<?xml version="1.0" encoding="UTF-8" standalone="no"?>
<svg
   xmlns:dc="http://purl.org/dc/elements/1.1/"
   xmlns:cc="http://creativecommons.org/ns#"
   xmlns:rdf="http://www.w3.org/1999/02/22-rdf-syntax-ns#"
   xmlns:svg="http://www.w3.org/2000/svg"
   xmlns="http://www.w3.org/2000/svg"
   xmlns:sodipodi="http://sodipodi.sourceforge.net/DTD/sodipodi-0.dtd"
   xmlns:inkscape="http://www.inkscape.org/namespaces/inkscape"
   width="106.66239"
   height="106.66239"
   viewBox="0 0 106.66239 106.66239"
   version="1.1"
   id="svg54"
   sodipodi:docname="logo.svg"
   inkscape:version="1.0.2 (394de47547, 2021-03-26)"
   inkscape:export-filename="/home/yerzhan/projects/azan.kz/askimam2/logo/logo.png"
   inkscape:export-xdpi="921.63696"
   inkscape:export-ydpi="921.63696">
  <metadata
     id="metadata60">
    <rdf:RDF>
      <cc:Work
         rdf:about="">
        <dc:format>image/svg+xml</dc:format>
        <dc:type
           rdf:resource="http://purl.org/dc/dcmitype/StillImage" />
      </cc:Work>
    </rdf:RDF>
  </metadata>
  <defs
     id="defs58" />
  <sodipodi:namedview
     pagecolor="#ffffff"
     bordercolor="#666666"
     borderopacity="1"
     objecttolerance="10"
     gridtolerance="10"
     guidetolerance="10"
     inkscape:pageopacity="0"
     inkscape:pageshadow="2"
     inkscape:window-width="1920"
     inkscape:window-height="1016"
     id="namedview56"
     showgrid="false"
     inkscape:zoom="4.063507"
     inkscape:cx="29.198067"
     inkscape:cy="80.913762"
     inkscape:window-x="1920"
     inkscape:window-y="27"
     inkscape:window-maximized="1"
     inkscape:current-layer="layer1" />
  <title
     id="title2">logo</title>
  <g
     inkscape:groupmode="layer"
     id="layer1"
     inkscape:label="BG"
     style="display:inline;mix-blend-mode:normal"
     transform="translate(7.3648052,13.268609)">
    <rect
       style="fill:#a5e2a2;fill-opacity:1;stroke-width:0.877837"
       id="rect81"
       width="106.66239"
       height="106.66239"
       x="-7.3648052"
       y="-13.268609" />
  </g>
  <g
     inkscape:groupmode="layer"
     id="layer2"
     inkscape:label="Logo"
     style="display:inline"
     transform="translate(7.3648052,13.268609)">
    <g
       fill="#FFF"
       fill-rule="evenodd"
       id="g52"
       style="fill:#ffffff"
       transform="translate(4.5148906,2.6095868)">
      <path
         d="M 10.17,0.822 V 0.817 h -0.002 v 0.005 c -0.36,0.48 -2.624,0.885 -2.195,3.575 0.62,-0.153 1.41,-0.233 2.196,-0.234 0.785,0 1.573,0.08 2.194,0.234 0.428,-2.69 -1.834,-3.096 -2.195,-3.575 m 39.735,11.832 h -0.006 c -2.05,2.114 -14.897,3.91 -12.463,15.8 3.458,-0.496 8,-0.75 12.466,-0.754 4.468,0.003 8.944,0.258 12.467,0.753 C 64.8,16.563 51.953,14.768 49.903,12.653 M 25.976,23.9 v -0.004 0.005 c -0.31,0.408 -2.24,0.753 -1.876,3.04 0.53,-0.132 1.204,-0.2 1.876,-0.2 0.672,0 1.345,0.068 1.875,0.2 0.367,-2.287 -1.565,-2.632 -1.874,-3.04 m 5.015,6.375 v -0.003 0.003 c -0.198,0.26 -1.437,0.482 -1.203,1.947 0.34,-0.083 0.77,-0.127 1.202,-0.127 0.43,0 0.862,0.044 1.202,0.127 0.235,-1.465 -1.004,-1.686 -1.202,-1.947 M 73.824,23.9 v -0.004 0.005 c 0.31,0.408 2.242,0.753 1.876,3.04 -0.53,-0.132 -1.204,-0.2 -1.876,-0.2 -0.672,0 -1.345,0.068 -1.875,0.2 -0.367,-2.287 1.566,-2.632 1.874,-3.04 m -5.013,6.375 v -0.003 0.003 c 0.197,0.26 1.435,0.482 1.2,1.947 -0.34,-0.083 -0.77,-0.127 -1.2,-0.127 -0.432,0 -0.864,0.044 -1.203,0.127 -0.235,-1.465 1.004,-1.686 1.202,-1.947"
         id="path4"
         style="fill:#ffffff" />
      <path
         d="m 49.857,11 h 0.093 v 1.75 h -0.093 z"
         id="path6"
         style="fill:#ffffff" />
      <path
         d="m 49.568,12.23 c 0,0.186 0.15,0.337 0.336,0.337 0.184,0 0.334,-0.15 0.334,-0.336 0,-0.185 -0.15,-0.336 -0.334,-0.336 -0.185,0 -0.336,0.15 -0.336,0.337 m 0.129,-0.757 c 0,0.114 0.092,0.207 0.207,0.207 0.113,0 0.205,-0.093 0.205,-0.207 0,-0.114 -0.093,-0.207 -0.206,-0.207 -0.115,0 -0.207,0.093 -0.207,0.207 M 50.185,9.42 c 0.123,0.137 0.2,0.316 0.2,0.516 0,0.43 -0.347,0.78 -0.776,0.78 -0.257,0 -0.483,-0.13 -0.624,-0.322 0.096,0.364 0.424,0.634 0.816,0.634 0.47,0 0.85,-0.38 0.85,-0.852 0,-0.332 -0.192,-0.616 -0.467,-0.757 M 23.212,27.71 c 0,0.062 0.03,0.123 0.082,0.18 0.294,-0.304 1.38,-0.53 2.68,-0.53 1.297,0 2.383,0.226 2.678,0.53 0.05,-0.057 0.08,-0.118 0.08,-0.18 0,-0.42 -1.235,-0.76 -2.76,-0.76 -1.524,0 -2.76,0.34 -2.76,0.76 m 26.686,3.28 c -5.76,0.002 -9.758,0.103 -12.02,0.18 v 25.163 h 0.48 V 32.626 h 23.08 V 56.333 H 61.92 V 31.17 C 59.658,31.093 55.66,30.992 49.898,30.99"
         id="path8"
         style="fill:#ffffff" />
      <path
         d="m 43.306,36.46 v 17.643 h 0.776 V 37.327 h 11.633 v 16.776 h 0.776 V 36.46 H 43.307"
         id="path10"
         style="fill:#ffffff" />
      <path
         d="m 53.59,44.487 -0.002,9.32 h 1.49 l 0.056,-9.423 c -0.437,-0.038 -1.04,-0.046 -1.543,0.103 m 1.545,-0.373 0.006,-1.204 c -0.436,-0.038 -1.044,-0.048 -1.55,0.102 v 1.2 c 0.5,-0.17 1.143,-0.14 1.544,-0.098 m -8.93,0.373 0.003,9.32 h -1.49 l -0.056,-9.423 c 0.436,-0.038 1.04,-0.046 1.542,0.103 M 44.662,44.114 44.655,42.91 c 0.437,-0.038 1.044,-0.048 1.55,0.102 v 1.2 c -0.5,-0.17 -1.143,-0.14 -1.543,-0.098 m 7.788,-5.492 c -0.927,-0.56 -2.547,-1.18 -2.547,-1.18 h -0.01 c 0,0 -1.62,0.62 -2.544,1.18 -3.028,1.83 -2.696,3.95 -2.696,3.95 0.4,-0.045 1.048,-0.075 1.55,0.095 v -0.083 c 0,0 0.01,-0.662 0.607,-1.51 0.575,-0.818 1.202,-1.208 1.81,-1.666 0.705,-0.53 1.22,-0.917 1.275,-0.96 v -0.006 0.002 H 49.9 v -0.002 h 0.002 v 0.007 c 0.056,0.04 0.57,0.428 1.275,0.958 0.608,0.458 1.236,0.848 1.81,1.665 0.596,0.85 0.605,1.51 0.605,1.51 v 0.084 c 0.503,-0.17 1.153,-0.14 1.552,-0.096 0,0 0.33,-2.117 -2.695,-3.948 m -1.322,11.574 c -0.23,-0.277 -0.478,-0.41 -0.72,-0.563 L 49.901,49.309 V 49.306 H 49.9 v 0.002 c -0.023,0.012 -0.228,0.143 -0.508,0.323 -0.242,0.154 -0.492,0.286 -0.72,0.563 -0.237,0.287 -0.24,0.51 -0.24,0.51 v 0.276 h 2.937 v -0.277 c 0,0 -0.003,-0.222 -0.24,-0.51 m 0.238,1.177 H 48.43 v 4.932 h 2.937 V 51.37 m 2.016,-8.327 c -0.78,0.39 -2.046,0.644 -3.485,0.648 -1.437,-0.003 -2.704,-0.258 -3.484,-0.647 v 1.21 c 0.792,0.378 2.053,0.623 3.48,0.628 h 0.01 c 1.427,-0.004 2.687,-0.25 3.48,-0.627 v -1.21 M 10.115,0.503 h 0.103 v 0.41 H 10.115 Z M 10.14,0.03 h 0.052 v 0.157 h -0.05 V 0.03 Z m -0.136,0.315 c 0,0.058 0.053,0.106 0.117,0.106 h 0.092 c 0.065,0 0.117,-0.047 0.117,-0.105 0,-0.058 -0.053,-0.105 -0.118,-0.105 h -0.09 c -0.065,0 -0.118,0.047 -0.118,0.105 m 3.852,12.744 c 0,-0.484 -1.652,-0.876 -3.69,-0.876 -2.037,0 -3.688,0.392 -3.688,0.876 0,0.072 0.04,0.14 0.11,0.208 0.392,-0.35 1.844,-0.612 3.58,-0.612 1.734,0 3.185,0.26 3.578,0.612 0.07,-0.067 0.11,-0.136 0.11,-0.208 M 12.72,15.43 V 14.51 C 12.547,14.35 11.48,14.225 10.184,14.225 H 10.15 c -1.296,0 -2.364,0.124 -2.536,0.285 v 0.986 C 7.784,15.334 8.852,15.21 10.15,15.21 h 0.033 c 1.297,0 2.366,0.124 2.536,0.286 V 15.429 M 6.934,5.305 c 0,0.073 0.036,0.144 0.097,0.212 0.346,-0.358 1.617,-0.624 3.137,-0.624 1.52,0 2.79,0.266 3.136,0.624 C 13.364,5.449 13.4,5.377 13.4,5.305 13.4,4.81 11.952,4.41 10.167,4.41 8.382,4.41 6.934,4.81 6.934,5.305 m 3.233,1.399 c -1.253,0 -2.27,0.194 -2.27,0.433 v 4.988 c 0.664,-0.12 1.47,-0.182 2.27,-0.182 0.8,0 1.603,0.062 2.265,0.182 V 7.15 l 0.004,-0.013 c 0,-0.24 -1.016,-0.433 -2.27,-0.433 z m -1.774,0.76 v 4.268 l -0.242,0.03 V 7.458 h 0.002 c 0.004,-0.086 0.117,-0.15 0.12,-0.15 0.003,0 0.117,0.064 0.12,0.15 v 0.004 z m 1.334,0.137 v 4.048 c -0.238,0.006 -0.47,0.016 -0.693,0.03 V 7.59 C 9.046,7.324 9.371,7.13 9.379,7.124 h 0.003 c 0.007,0.007 0.333,0.2 0.344,0.466 L 9.728,7.603 H 9.725 Z m 1.57,0 v 4.078 c -0.22,-0.014 -0.453,-0.024 -0.692,-0.03 V 7.59 c 0.013,-0.266 0.338,-0.46 0.346,-0.466 h 0.005 c 0.007,0.007 0.332,0.2 0.343,0.466 l 0.003,0.013 H 11.3 Z m 0.885,-0.136 v 4.297 c -0.078,-0.01 -0.16,-0.02 -0.24,-0.028 V 7.46 c 0.003,-0.086 0.116,-0.15 0.12,-0.15 0.003,0 0.116,0.064 0.12,0.15 v 0.004 z"
         id="path12"
         style="fill:#ffffff" />
      <path
         d="m 12.92,6.345 v -0.63 l 0.004,-0.006 c 0,-0.3 -1.235,-0.544 -2.757,-0.544 -1.515,0 -2.743,0.24 -2.756,0.54 v 0.642 c 0.014,-0.298 1.242,-0.54 2.757,-0.54 1.51,0 2.735,0.24 2.754,0.537"
         id="path14"
         style="fill:#ffffff" />
      <path
         d="m 12.763,6.558 c 0,-0.245 -1.163,-0.445 -2.596,-0.445 -1.434,0 -2.596,0.2 -2.596,0.445 0,0.08 0.126,0.155 0.34,0.22 0.122,-0.196 1.085,-0.348 2.257,-0.348 1.17,0 2.134,0.152 2.255,0.347 0.216,-0.064 0.34,-0.14 0.34,-0.22 m 0.572,6.841 C 12.769,13.163 11.567,13 10.169,12.998 h -0.004 c -1.4,0.002 -2.602,0.165 -3.167,0.4 -0.073,0.036 -0.132,0.074 -0.172,0.115 0.03,0.02 0.13,0.085 0.212,0.21 0.092,0.14 0.3,0.436 0.55,0.493 0.138,-0.172 1.237,-0.306 2.577,-0.307 1.34,0 2.438,0.134 2.577,0.306 0.25,-0.057 0.457,-0.352 0.55,-0.494 0.08,-0.124 0.18,-0.19 0.212,-0.21 -0.04,-0.04 -0.1,-0.078 -0.17,-0.114 m 0.522,11.487 c 0,-0.483 -1.652,-0.876 -3.69,-0.876 -2.037,0 -3.688,0.393 -3.688,0.876 0,0.072 0.04,0.142 0.11,0.208 0.392,-0.35 1.844,-0.61 3.58,-0.61 1.734,0 3.185,0.26 3.578,0.61 0.07,-0.066 0.11,-0.136 0.11,-0.208"
         id="path16"
         style="fill:#ffffff" />
      <path
         d="m 13.335,25.192 c -0.566,-0.234 -1.768,-0.397 -3.166,-0.4 h -0.004 c -1.4,0.003 -2.602,0.166 -3.167,0.4 -0.073,0.036 -0.132,0.075 -0.172,0.115 0.03,0.02 0.13,0.086 0.212,0.21 0.092,0.14 0.3,0.436 0.55,0.493 0.138,-0.17 1.237,-0.306 2.577,-0.307 1.34,0 2.438,0.136 2.577,0.307 0.25,-0.057 0.457,-0.352 0.55,-0.493 0.08,-0.124 0.18,-0.19 0.212,-0.21 -0.04,-0.04 -0.1,-0.08 -0.17,-0.115 M 14.406,40.2 c 0,-0.558 -1.898,-1.008 -4.24,-1.008 -2.34,0 -4.24,0.45 -4.24,1.007 0,0.08 0.048,0.16 0.127,0.238 0.453,-0.403 2.12,-0.703 4.114,-0.703 1.993,0 3.66,0.3 4.113,0.703 0.08,-0.077 0.126,-0.157 0.126,-0.24"
         id="path18"
         style="fill:#ffffff" />
      <path
         d="m 13.807,40.553 c -0.65,-0.27 -2.03,-0.457 -3.638,-0.46 h -0.005 c -1.608,0.003 -2.99,0.19 -3.64,0.46 -0.08,0.04 -0.15,0.085 -0.196,0.13 0.036,0.024 0.15,0.1 0.244,0.242 0.106,0.162 0.345,0.5 0.63,0.568 0.16,-0.198 1.423,-0.352 2.963,-0.354 1.54,0 2.802,0.155 2.962,0.353 0.284,-0.067 0.523,-0.406 0.63,-0.568 0.093,-0.142 0.208,-0.218 0.245,-0.24 -0.048,-0.047 -0.115,-0.09 -0.198,-0.132 M 61.91,30.182 h -0.002 v -0.034 h -0.256 c -3.38,-0.462 -7.59,-0.7 -11.796,-0.704 -4.21,0.004 -8.642,0.242 -11.97,0.704 V 30.71 H 61.91 v -0.528 h 0.002 m -15.502,14.4 v 0.32 c 0.815,0.34 1.997,0.557 3.335,0.577 v 0.007 l 0.153,-0.004 0.154,0.004 v -0.008 c 1.338,-0.02 2.52,-0.237 3.334,-0.578 v -0.32 c -0.78,0.36 -2.05,0.602 -3.485,0.606 -1.44,-0.004 -2.708,-0.247 -3.49,-0.606 z"
         id="path20"
         style="fill:#ffffff" />
      <path
         d="m 62.21,28.828 c -3.552,-0.452 -7.958,-0.693 -12.3,-0.703 h -0.023 c -4.342,0.01 -8.748,0.25 -12.3,0.703 -0.03,0.003 0.147,0.732 0.278,0.96 3.43,-0.488 7.687,-0.74 12.033,-0.75 4.347,0.01 8.606,0.262 12.035,0.75 0.13,-0.228 0.307,-0.957 0.278,-0.96 M 37.57,36.753 c 0.108,-0.282 0.387,-0.425 0.55,-0.52 v -1.102 h -1.637 v 3.86 h 0.912 c -0.012,-0.81 0.015,-1.825 0.174,-2.237 M 22.92,43.285 v 0.817 l 0.47,0.27 h 5.16 l 0.47,-0.27 v -0.817 h -6.1 m 6.204,-9.965 c 0,-0.367 -1.41,-0.666 -3.15,-0.666 -1.742,0 -3.153,0.3 -3.153,0.667 0,0.056 0.036,0.11 0.095,0.16 0.336,-0.268 1.576,-0.466 3.058,-0.466 1.48,0 2.72,0.198 3.058,0.466 0.06,-0.05 0.094,-0.104 0.094,-0.16 m -0.973,1.782 v -0.7 c -0.147,-0.122 -1.06,-0.217 -2.166,-0.217 h -0.03 c -1.106,0 -2.018,0.095 -2.165,0.217 v 0.75 c 0.145,-0.12 1.058,-0.216 2.166,-0.216 h 0.03 c 1.107,0 2.02,0.095 2.165,0.217 v -0.05 m -2.18,-6.199 c -1.07,0 -1.938,0.148 -1.938,0.33 v 3.352 c 0.566,-0.092 1.253,-0.14 1.938,-0.14 0.683,0 1.37,0.048 1.935,0.14 v -3.343 l 0.003,-0.01 c 0,-0.18 -0.867,-0.33 -1.937,-0.33 z m -1.516,0.58 v 2.803 l -0.206,0.02 v -2.827 c 0.005,-0.064 0.1,-0.112 0.104,-0.114 0.003,0.002 0.1,0.05 0.103,0.115 v 0.004 z m 1.14,0.104 v 2.633 c -0.204,0.004 -0.402,0.012 -0.592,0.023 v -2.667 c 0.01,-0.203 0.29,-0.35 0.295,-0.356 h 0.004 c 0.005,0.006 0.284,0.153 0.292,0.355 l 0.002,0.01 z m 1.343,0 v 2.656 c -0.19,-0.01 -0.39,-0.02 -0.593,-0.023 v -2.644 h 0.002 c 0.008,-0.203 0.286,-0.35 0.292,-0.356 h 0.004 c 0.006,0.006 0.284,0.153 0.294,0.355 v 0.01 z m 0.754,-0.106 v 2.825 c -0.068,-0.01 -0.136,-0.016 -0.206,-0.023 v -2.806 c 0.003,-0.064 0.1,-0.112 0.102,-0.114 h 0.002 c 0.002,0.002 0.098,0.05 0.102,0.115 v 0.004 z m 0.631,-0.889 V 28.06 l 0.002,-0.007 c 0,-0.255 -1.054,-0.46 -2.354,-0.46 -1.295,0 -2.344,0.204 -2.354,0.457 h -0.002 v 0.546 c 0.01,-0.253 1.06,-0.458 2.355,-0.458 1.29,0 2.336,0.204 2.352,0.456"
         id="path22"
         style="fill:#ffffff" />
      <path
         d="m 28.19,28.775 c 0,-0.208 -0.993,-0.378 -2.217,-0.378 -1.225,0 -2.218,0.17 -2.218,0.378 0,0.068 0.107,0.13 0.29,0.186 0.105,-0.164 0.927,-0.294 1.928,-0.294 1,0 1.823,0.13 1.926,0.295 0.183,-0.054 0.29,-0.117 0.29,-0.185 M 28.097,38.99 v -3.538 c -0.142,-0.12 -1.03,-0.212 -2.11,-0.212 h -0.03 c -1.077,0 -1.967,0.092 -2.108,0.212 v 3.538 h 4.247 m 0.584,-5.434 c -0.485,-0.18 -1.51,-0.303 -2.706,-0.305 h -0.003 c -1.194,0.003 -2.22,0.127 -2.703,0.306 -0.062,0.028 -0.113,0.057 -0.147,0.088 0.027,0.014 0.113,0.065 0.18,0.16 0.08,0.107 0.258,0.332 0.47,0.375 0.12,-0.132 1.058,-0.234 2.203,-0.235 1.144,0 2.083,0.103 2.2,0.234 0.214,-0.044 0.39,-0.27 0.47,-0.377 0.07,-0.094 0.155,-0.145 0.182,-0.16 -0.035,-0.03 -0.085,-0.06 -0.146,-0.087 m 4.33,2.76 c 0,-0.237 -0.905,-0.428 -2.02,-0.428 -1.116,0 -2.02,0.19 -2.02,0.428 0,0.035 0.02,0.07 0.06,0.1 0.214,-0.17 1.01,-0.297 1.96,-0.297 0.95,0 1.744,0.127 1.96,0.298 0.037,-0.032 0.06,-0.066 0.06,-0.1 m -0.622,1.141 v -0.45 c -0.095,-0.078 -0.68,-0.138 -1.39,-0.138 H 30.98 c -0.71,0 -1.294,0.06 -1.39,0.138 v 0.482 c 0.094,-0.08 0.68,-0.14 1.39,-0.14 H 31 c 0.71,0 1.294,0.06 1.388,0.14 V 37.456 M 29.22,32.718 c 0,0.04 0.02,0.078 0.052,0.115 0.188,-0.195 0.885,-0.34 1.717,-0.34 0.832,0 1.528,0.145 1.717,0.34 0.032,-0.037 0.052,-0.076 0.052,-0.115 0,-0.27 -0.794,-0.488 -1.77,-0.488 -0.978,0 -1.77,0.22 -1.77,0.488 m 1.772,0.766 c -0.687,0 -1.243,0.095 -1.243,0.212 v 2.147 c 0.363,-0.058 0.803,-0.088 1.242,-0.088 0.437,0 0.878,0.03 1.24,0.088 v -2.146 c 0,-0.117 -0.554,-0.212 -1.24,-0.212 z m -0.972,0.37 v 1.798 l -0.132,0.014 v -1.812 c 0.002,-0.043 0.064,-0.073 0.066,-0.075 0,0 0.064,0.03 0.066,0.073 z m 0.73,0.068 v 1.688 c -0.13,0.004 -0.257,0.008 -0.38,0.016 v -1.711 c 0.008,-0.13 0.186,-0.225 0.19,-0.228 h 0.002 c 0.004,0.003 0.182,0.098 0.188,0.228 v 0.006 z m 0.86,0 v 1.704 c -0.12,-0.008 -0.248,-0.012 -0.38,-0.016 v -1.695 h 0.002 c 0.005,-0.13 0.184,-0.225 0.19,-0.228 0.004,0.003 0.182,0.098 0.19,0.228 v 0.006 z m 0.484,-0.067 v 1.81 c -0.043,-0.004 -0.087,-0.01 -0.132,-0.013 v -1.8 c 0.003,-0.04 0.065,-0.07 0.067,-0.073 0.002,0 0.064,0.03 0.065,0.073 v 0.002 z"
         id="path24"
         style="fill:#ffffff" />
      <path
         d="m 32.497,33.284 v -0.346 c 0,-0.164 -0.674,-0.296 -1.508,-0.296 -0.83,0 -1.503,0.13 -1.51,0.294 v 0.35 c 0.007,-0.162 0.68,-0.294 1.51,-0.294 0.826,0 1.497,0.13 1.507,0.292"
         id="path26"
         style="fill:#ffffff" />
      <path
         d="m 32.41,33.4 c 0,-0.133 -0.636,-0.242 -1.42,-0.242 -0.786,0 -1.423,0.11 -1.423,0.242 0,0.044 0.07,0.084 0.187,0.12 0.066,-0.106 0.594,-0.19 1.235,-0.19 0.64,0 1.168,0.084 1.235,0.19 0.117,-0.036 0.185,-0.076 0.185,-0.12 M 32.35,38.978 V 37.73 C 32.26,37.653 31.69,37.594 30.998,37.594 H 30.98 c -0.69,0 -1.262,0.06 -1.352,0.136 v 1.248 h 2.722 m 0.374,-2.513 C 32.414,36.351 31.756,36.271 30.99,36.27 h -0.002 c -0.766,0 -1.424,0.08 -1.734,0.195 -0.04,0.018 -0.072,0.037 -0.094,0.056 0.018,0.01 0.072,0.043 0.117,0.103 0.05,0.07 0.164,0.214 0.3,0.242 0.076,-0.084 0.678,-0.15 1.412,-0.15 0.733,0 1.334,0.066 1.41,0.15 0.137,-0.028 0.25,-0.172 0.302,-0.242 0.044,-0.06 0.098,-0.092 0.116,-0.102 -0.023,-0.018 -0.055,-0.037 -0.094,-0.055 m -3.413,6.818 h 8.592 V 44.3 h -8.59 v -1.015 z m 3.812,9.587 V 47.98 c 0,0 0,-0.173 -0.18,-0.394 -0.17,-0.213 -0.358,-0.315 -0.54,-0.434 -0.21,-0.14 -0.364,-0.24 -0.38,-0.25 v -0.003 h -0.003 l -0.382,0.252 c -0.18,0.12 -0.368,0.22 -0.54,0.434 -0.178,0.22 -0.18,0.394 -0.18,0.394 v 6.913 h 2.204 v -2.02 m 3.969,0 0.003,-4.892 c 0,0 -0.003,-0.173 -0.18,-0.394 -0.172,-0.213 -0.36,-0.315 -0.54,-0.434 -0.21,-0.14 -0.365,-0.24 -0.38,-0.25 V 46.899 H 35.99 l -0.382,0.252 c -0.18,0.12 -0.368,0.22 -0.54,0.434 -0.178,0.22 -0.18,0.394 -0.18,0.394 v 6.913 h 2.203 v -0.334 h 0.002 V 52.872 M 62.23,36.753 c -0.11,-0.282 -0.39,-0.425 -0.553,-0.52 v -1.102 h 1.638 v 3.86 h -0.913 c 0.012,-0.81 -0.015,-1.825 -0.173,-2.237 m 14.648,6.531 v 0.817 l -0.47,0.27 h -5.16 l -0.47,-0.27 v -0.817 h 6.1 M 70.674,33.32 c 0,-0.367 1.41,-0.666 3.15,-0.666 1.74,0 3.152,0.3 3.152,0.667 0,0.056 -0.035,0.11 -0.093,0.16 -0.337,-0.268 -1.576,-0.466 -3.058,-0.466 -1.482,0 -2.722,0.198 -3.058,0.466 -0.06,-0.05 -0.093,-0.104 -0.093,-0.16 m 0.969,1.782 v -0.7 c 0.148,-0.122 1.06,-0.217 2.166,-0.217 h 0.03 c 1.106,0 2.02,0.095 2.165,0.217 v 0.75 c -0.145,-0.12 -1.058,-0.216 -2.166,-0.216 h -0.03 c -1.108,0 -2.02,0.095 -2.167,0.217 v -0.05 m 4.944,-7.394 c 0,0.062 -0.03,0.123 -0.08,0.18 -0.296,-0.304 -1.382,-0.53 -2.68,-0.53 -1.3,0 -2.385,0.226 -2.68,0.53 -0.05,-0.057 -0.08,-0.118 -0.08,-0.18 0,-0.42 1.234,-0.76 2.76,-0.76 1.525,0 2.76,0.34 2.76,0.76 m -4.699,1.525 0.003,0.01 v 3.34 c 0.565,-0.09 1.25,-0.138 1.935,-0.138 0.684,0 1.37,0.048 1.938,0.14 v -3.352 c 0,-0.182 -0.868,-0.33 -1.938,-0.33 -1.07,0 -1.94,0.148 -1.94,0.33 z m 3.454,0.25 v -0.003 c 0.003,-0.066 0.1,-0.114 0.102,-0.116 h 0.002 c 0.002,0.002 0.098,0.05 0.102,0.115 V 32.31 C 75.479,32.3 75.411,32.294 75.34,32.287 v -2.803 z m -1.14,0.104 v -0.01 c 0.01,-0.203 0.288,-0.35 0.294,-0.356 h 0.004 c 0.006,0.006 0.284,0.153 0.293,0.355 h 0.002 v 2.665 c -0.19,-0.01 -0.388,-0.02 -0.592,-0.023 v -2.63 z m -1.344,0 0.002,-0.01 c 0.01,-0.203 0.288,-0.35 0.293,-0.356 h 0.005 c 0.007,0.006 0.284,0.153 0.294,0.355 v 2.642 c -0.204,0.004 -0.402,0.012 -0.592,0.023 V 29.59 h -0.002 z m -0.753,-0.106 v -0.002 c 0.003,-0.066 0.1,-0.114 0.102,-0.116 h 0.002 c 0.002,0.002 0.1,0.05 0.102,0.115 v 2.808 l -0.207,0.02 v -2.824 z"
         id="path28"
         style="fill:#ffffff" />
      <path
         d="M 71.472,28.594 V 28.06 L 71.47,28.053 c 0,-0.255 1.054,-0.46 2.355,-0.46 1.294,0 2.343,0.204 2.354,0.457 v 0.546 c -0.012,-0.253 -1.06,-0.458 -2.355,-0.458 -1.29,0 -2.336,0.204 -2.353,0.456"
         id="path30"
         style="fill:#ffffff" />
      <path
         d="m 71.607,28.775 c 0,-0.208 0.993,-0.378 2.218,-0.378 1.224,0 2.217,0.17 2.217,0.378 0,0.068 -0.107,0.13 -0.29,0.186 -0.104,-0.164 -0.927,-0.294 -1.927,-0.294 -1,0 -1.823,0.13 -1.927,0.295 -0.184,-0.054 -0.29,-0.117 -0.29,-0.185 M 71.7,38.99 v -3.538 c 0.143,-0.12 1.03,-0.212 2.11,-0.212 h 0.03 c 1.078,0 1.968,0.092 2.108,0.212 V 38.99 H 71.7 m -0.582,-5.434 c 0.484,-0.18 1.51,-0.303 2.706,-0.305 h 0.002 c 1.195,0.003 2.22,0.127 2.705,0.306 0.062,0.028 0.113,0.057 0.147,0.088 -0.027,0.014 -0.112,0.065 -0.18,0.16 -0.08,0.107 -0.258,0.332 -0.47,0.375 -0.12,-0.132 -1.058,-0.234 -2.202,-0.235 -1.144,0 -2.083,0.103 -2.202,0.234 -0.213,-0.044 -0.39,-0.27 -0.47,-0.377 -0.068,-0.094 -0.154,-0.145 -0.18,-0.16 0.034,-0.03 0.084,-0.06 0.145,-0.087 m -4.331,2.76 c 0,-0.237 0.905,-0.428 2.02,-0.428 1.116,0 2.02,0.19 2.02,0.428 0,0.035 -0.022,0.07 -0.06,0.1 -0.215,-0.17 -1.01,-0.297 -1.96,-0.297 -0.95,0 -1.744,0.127 -1.96,0.298 -0.038,-0.032 -0.06,-0.066 -0.06,-0.1 m 0.622,1.141 v -0.45 c 0.095,-0.078 0.68,-0.138 1.39,-0.138 h 0.018 c 0.71,0 1.294,0.06 1.388,0.138 v 0.482 c -0.093,-0.08 -0.678,-0.14 -1.388,-0.14 h -0.02 c -0.71,0 -1.295,0.06 -1.388,0.14 v -0.033 m 3.168,-4.738 c 0,0.04 -0.02,0.078 -0.052,0.115 -0.19,-0.195 -0.886,-0.34 -1.718,-0.34 -0.832,0 -1.528,0.145 -1.717,0.34 -0.032,-0.037 -0.052,-0.076 -0.052,-0.115 0,-0.27 0.792,-0.488 1.77,-0.488 0.978,0 1.77,0.22 1.77,0.488 m -3.014,0.978 0.002,0.005 v 2.143 c 0.363,-0.058 0.803,-0.088 1.24,-0.088 0.44,0 0.88,0.03 1.243,0.088 v -2.147 c 0,-0.117 -0.556,-0.212 -1.242,-0.212 -0.687,0 -1.243,0.095 -1.243,0.212 z m 2.214,0.16 v -0.003 c 0,-0.042 0.064,-0.072 0.065,-0.074 0.003,0 0.065,0.03 0.067,0.073 v 1.813 l -0.132,-0.014 v -1.797 z m -0.732,0.066 v -0.006 c 0.007,-0.13 0.185,-0.225 0.19,-0.228 0.005,0.003 0.184,0.098 0.19,0.228 v 1.709 c -0.12,-0.008 -0.25,-0.012 -0.38,-0.016 v -1.688 z m -0.86,0 v -0.006 c 0.007,-0.13 0.185,-0.225 0.19,-0.228 0.005,0.003 0.183,0.098 0.19,0.228 v 1.694 c -0.13,0.004 -0.258,0.008 -0.38,0.016 z m -0.484,-0.067 v -0.002 c 0.003,-0.042 0.065,-0.072 0.066,-0.074 0.003,0 0.064,0.03 0.067,0.073 v 1.799 l -0.132,0.014 v -1.81 z"
         id="path32"
         style="fill:#ffffff" />
      <path
         d="m 67.3,33.284 v -0.346 c 0,-0.164 0.674,-0.296 1.508,-0.296 0.83,0 1.503,0.13 1.51,0.294 v 0.35 c -0.007,-0.162 -0.68,-0.294 -1.51,-0.294 -0.827,0 -1.497,0.13 -1.508,0.292"
         id="path34"
         style="fill:#ffffff" />
      <path
         d="m 67.386,33.4 c 0,-0.133 0.637,-0.242 1.422,-0.242 0.785,0 1.422,0.11 1.422,0.242 0,0.044 -0.07,0.084 -0.187,0.12 -0.066,-0.106 -0.594,-0.19 -1.235,-0.19 -0.64,0 -1.168,0.084 -1.236,0.19 -0.117,-0.036 -0.186,-0.076 -0.186,-0.12 m 0.061,5.578 V 37.73 c 0.09,-0.077 0.66,-0.136 1.352,-0.136 h 0.017 c 0.692,0 1.262,0.06 1.353,0.136 v 1.248 h -2.723 m -0.373,-2.513 c 0.31,-0.114 0.968,-0.194 1.734,-0.195 h 0.002 c 0.765,0 1.423,0.08 1.733,0.195 0.04,0.018 0.07,0.037 0.093,0.056 -0.016,0.01 -0.072,0.043 -0.115,0.103 -0.05,0.07 -0.165,0.214 -0.3,0.242 -0.077,-0.084 -0.68,-0.15 -1.412,-0.15 -0.733,0 -1.335,0.066 -1.41,0.15 -0.137,-0.028 -0.25,-0.172 -0.302,-0.242 -0.044,-0.06 -0.1,-0.092 -0.117,-0.102 0.022,-0.018 0.054,-0.037 0.093,-0.055 m -5.176,6.818 h 8.59 V 44.3 h -8.59 z m 4.779,9.587 V 47.98 c 0,0 0.002,-0.173 0.18,-0.394 0.172,-0.213 0.358,-0.315 0.54,-0.434 0.21,-0.14 0.364,-0.24 0.38,-0.25 v -0.003 h 0.002 l 0.382,0.252 c 0.18,0.12 0.367,0.22 0.54,0.434 0.177,0.22 0.18,0.394 0.18,0.394 v 6.913 h -2.205 v -2.021 m -3.968,10e-4 -0.002,-4.892 c 0,0 0.003,-0.173 0.18,-0.394 0.172,-0.213 0.36,-0.315 0.54,-0.434 0.21,-0.14 0.365,-0.24 0.382,-0.25 v -0.003 h 0.002 c 0.017,0.013 0.17,0.113 0.38,0.252 0.183,0.12 0.37,0.22 0.542,0.434 0.178,0.22 0.18,0.394 0.18,0.394 v 6.913 h -2.204 v -2.021"
         id="path36"
         style="fill:#ffffff" />
      <path
         d="m 65.237,56.333 h 5.614 V 44.77 h -5.613 v 11.563 z m 0.978,-10.314 h 3.007 v 9.065 H 66.215 V 46.02 Z M 76.884,42.7 c 0,0.083 -0.066,0.148 -0.147,0.148 h -5.82 c -0.08,0 -0.146,-0.065 -0.146,-0.147 v -3.366 c 0,-0.08 0.067,-0.147 0.148,-0.147 h 5.82 c 0.08,0 0.146,0.066 0.146,0.147 V 42.7 m -47.851,0 c 0,0.083 -0.065,0.148 -0.146,0.148 h -5.82 c -0.08,0 -0.146,-0.065 -0.146,-0.147 v -3.366 c 0,-0.08 0.066,-0.147 0.147,-0.147 h 5.818 c 0.08,0 0.146,0.066 0.146,0.147 V 42.7 m 9.091,-0.005 c 0,0.08 -0.065,0.147 -0.147,0.147 h -8.515 c -0.08,0 -0.146,-0.066 -0.146,-0.147 v -3.36 c 0,-0.082 0.065,-0.148 0.146,-0.148 h 8.515 c 0.082,0 0.147,0.066 0.147,0.147 v 3.36 m 32.346,10e-4 c 0,0.08 -0.065,0.147 -0.147,0.147 h -8.515 c -0.08,0 -0.147,-0.066 -0.147,-0.147 v -3.36 c 0,-0.082 0.067,-0.148 0.148,-0.148 h 8.515 c 0.082,0 0.147,0.066 0.147,0.147 v 3.36 m -57.695,-18.68 -0.16,-7.975 v -0.154 c -0.164,-0.156 -1.192,-0.276 -2.443,-0.278 h -0.012 c -1.25,0.002 -2.278,0.122 -2.443,0.278 v 0.153 l -0.16,7.974 c 0.165,-0.156 1.354,-0.277 2.61,-0.278 1.256,0 2.445,0.122 2.61,0.278 m 0.175,15.151 -0.28,-12.693 v -0.153 c -0.16,-0.15 -1.292,-0.268 -2.5,-0.277 h -0.01 C 8.953,26.05 7.82,26.166 7.66,26.317 V 26.47 L 7.38,39.163 c 0.16,-0.152 1.557,-0.27 2.787,-0.278 1.23,0.01 2.626,0.126 2.786,0.278 m 40.301,17.151 h 5.61 v -2.22 h -5.61 z"
         id="path38"
         style="fill:#ffffff" />
      <path
         d="m 46.194,55.93 h 7.408 v 0.384 h -7.408 v -0.383 z"
         id="path40"
         style="fill:#ffffff" />
      <path
         d="M 41.797,56.314 V 35.55 H 58 v 20.764 h 1.944 V 34.422 h -20.09 v 21.892 h 1.943"
         id="path42"
         style="fill:#ffffff" />
      <path
         d="m 40.932,56.314 h 5.61 v -2.22 h -5.61 z m -11.986,0 H 34.56 V 44.77 h -5.614 z m 1.628,-10.295 h 3.008 v 9.065 H 30.574 V 46.02 Z"
         id="path44"
         style="fill:#ffffff" />
      <path
         d="m 33.445,56.314 h 4.526 V 44.77 h -4.525 v 11.544 z m 0.978,-10.295 h 3.007 v 9.065 H 34.423 V 46.02 Z M 23.372,44.77 h 5.195 v 11.544 h -5.195 z"
         id="path46"
         style="fill:#ffffff" />
      <path
         d="M 13.725,56.314 V 54.58 c 0,0 -0.04,-0.45 0.49,-0.938 0.43,-0.352 0.706,-0.533 0.725,-0.545 v -0.002 h 0.002 v 0.002 c 0.018,0.012 0.295,0.193 0.726,0.545 0.53,0.49 0.49,0.938 0.49,0.938 v 1.734 h 0.82 V 54.58 c 0,0 -0.043,-0.45 0.487,-0.938 0.43,-0.352 0.71,-0.533 0.726,-0.545 v -0.002 h 0.004 v 0.002 c 0.018,0.012 0.294,0.193 0.727,0.545 0.53,0.49 0.49,0.938 0.49,0.938 v 1.734 H 20.23 V 54.58 c 0,0 -0.04,-0.45 0.49,-0.938 0.43,-0.352 0.707,-0.533 0.725,-0.545 v -0.002 h 0.002 v 0.002 c 0.018,0.012 0.296,0.193 0.727,0.545 0.53,0.49 0.488,0.938 0.488,0.938 v 1.734 h 0.732 V 47.21 h -10.38 v 9.104 h 0.713 z m 6.606,-6.056 c 0.21,-0.26 0.438,-0.384 0.658,-0.528 0.257,-0.168 0.444,-0.292 0.464,-0.306 v -0.002 h 0.002 v 0.002 l 0.465,0.306 c 0.22,0.144 0.447,0.268 0.656,0.528 0.217,0.27 0.22,0.48 0.22,0.48 v 0.956 H 20.11 v -0.956 c 0,0 0.004,-0.21 0.22,-0.48 z m -3.25,0 c 0.208,-0.26 0.436,-0.384 0.657,-0.528 l 0.464,-0.306 v -0.002 h 0.004 v 0.002 l 0.463,0.306 c 0.22,0.144 0.45,0.268 0.657,0.528 0.217,0.27 0.22,0.48 0.22,0.48 v 0.956 H 16.86 v -0.956 c 0,0 0.003,-0.21 0.22,-0.48 z m -3.252,0 c 0.21,-0.26 0.436,-0.384 0.657,-0.528 l 0.464,-0.306 v -0.002 h 0.002 v 0.002 l 0.463,0.306 c 0.22,0.144 0.45,0.268 0.657,0.528 0.217,0.27 0.22,0.48 0.22,0.48 v 0.956 h -2.684 v -0.956 c 0,0 0.002,-0.21 0.22,-0.48 z"
         id="path48"
         style="fill:#ffffff" />
      <path
         d="m 13.237,56.314 -0.27,-14.37 v -0.152 c -0.16,-0.15 -1.586,-0.268 -2.795,-0.277 h -0.01 c -1.21,0.01 -2.636,0.126 -2.796,0.277 v 0.153 l -0.268,14.37 h 6.14 M 39.254,33.83 h 21.29 v 22.484 h 0.515 V 33.304 H 38.737 v 23.01 h 0.516 V 33.83 m 22.574,22.484 h 4.525 V 44.77 h -4.525 z m 0.54,-10.295 h 3.007 v 9.065 H 62.367 V 46.02 Z M 71.23,44.77 h 5.195 V 56.314 H 71.23 Z m -69.375,25.136 1.63,-1.778 -1.7,-1.855 -1.63,1.778 1.7,1.856 m 79.265,-10e-4 1.628,-1.778 -1.7,-1.855 -1.628,1.778 1.7,1.856 m -65.673,2.557 c 0.08,0.197 0.164,0.394 0.254,0.586 0.048,0.1 0.103,0.217 0.164,0.308 0.08,0.116 0.308,0.19 0.433,0.225 l 0.2,0.054 v 0.648 H 12.12 V 73.63 l 0.207,-0.05 c 0.49,-0.115 0.627,-0.478 0.627,-0.965 0,-0.555 -0.254,-1.08 -0.56,-1.52 -0.415,-0.593 -0.967,-1.042 -1.587,-1.383 -0.644,-0.355 -1.338,-0.534 -2.06,-0.574 l -0.907,2.61 c -0.116,0.335 -0.258,0.79 -0.258,1.15 0,0.18 0.052,0.33 0.18,0.452 0.145,0.136 0.313,0.204 0.507,0.225 l 0.237,0.028 v 0.682 h -3.98 v -0.653 l 0.206,-0.05 c 0.143,-0.036 0.317,-0.09 0.443,-0.17 0.11,-0.07 0.204,-0.18 0.276,-0.284 0.304,-0.456 0.54,-1.057 0.728,-1.573 l 2.727,-7.48 c 0.047,-0.124 0.092,-0.25 0.133,-0.37 0.03,-0.095 0.058,-0.192 0.077,-0.29 v -0.007 c 0.02,-0.083 0.03,-0.168 0.03,-0.253 0,-0.07 -0.015,-0.124 -0.063,-0.172 -0.065,-0.065 -0.154,-0.097 -0.24,-0.11 l -0.226,-0.04 v -0.678 h 4.293 v 0.656 l -0.198,0.056 c -0.197,0.054 -0.297,0.147 -0.297,0.365 0,0.17 0.086,0.43 0.14,0.586 l 2.892,8.648 z M 10.344,64.567 9.2,67.71 c 0.546,0.037 1.08,0.158 1.596,0.362 0.31,0.123 0.602,0.275 0.875,0.46 L 10.345,64.567 Z M 24.02,63.58 23.2,63.537 H 23.194 C 23.147,63.531 23.099,63.525 23.052,63.523 22.996,63.52 22.939,63.52 22.884,63.52 c -0.566,0 -1.128,0.082 -1.663,0.275 -0.504,0.182 -0.946,0.472 -1.326,0.862 -0.405,0.415 -0.69,0.915 -0.886,1.47 l -0.08,0.228 -0.643,-0.15 1.048,-4.61 0.342,0.44 c 0.037,0.05 0.103,0.07 0.158,0.08 l 0.006,0.002 c 0.175,0.037 0.398,0.038 0.577,0.038 h 7.25 l -6.607,10.723 0.797,0.042 c 0.068,0 0.136,0.003 0.205,0.006 l 0.155,0.012 c 0.695,-0.002 1.38,-0.113 2.034,-0.356 0.64,-0.238 1.215,-0.59 1.722,-1.06 0.52,-0.482 0.927,-1.06 1.232,-1.712 l 0.1,-0.212 0.653,0.206 -1.937,5.072 -0.275,-0.5 c -0.02,-0.03 -0.048,-0.046 -0.083,-0.053 L 25.657,74.321 C 25.509,74.285 25.285,74.286 25.133,74.286 H 17.46 l 6.56,-10.705 m 14.91,8.883 c 0.08,0.197 0.165,0.394 0.255,0.586 0.046,0.1 0.1,0.217 0.162,0.308 0.08,0.116 0.308,0.19 0.432,0.225 l 0.2,0.054 v 0.648 H 35.602 V 73.63 l 0.208,-0.05 c 0.49,-0.115 0.627,-0.478 0.627,-0.965 0,-0.555 -0.254,-1.08 -0.56,-1.52 -0.414,-0.593 -0.967,-1.042 -1.587,-1.383 -0.644,-0.355 -1.338,-0.534 -2.06,-0.574 l -0.907,2.61 c -0.117,0.335 -0.257,0.79 -0.257,1.15 0,0.18 0.05,0.33 0.18,0.452 0.144,0.136 0.313,0.204 0.506,0.225 l 0.238,0.028 v 0.682 h -3.98 v -0.653 l 0.207,-0.05 c 0.142,-0.036 0.317,-0.09 0.443,-0.17 0.11,-0.07 0.203,-0.18 0.275,-0.284 0.304,-0.456 0.54,-1.057 0.728,-1.573 l 2.728,-7.48 c 0.048,-0.124 0.093,-0.25 0.133,-0.37 0.03,-0.095 0.058,-0.192 0.077,-0.29 v -0.007 c 0.02,-0.083 0.03,-0.168 0.03,-0.253 0,-0.07 -0.015,-0.124 -0.062,-0.172 -0.066,-0.065 -0.154,-0.097 -0.242,-0.11 l -0.224,-0.04 v -0.678 h 4.292 v 0.656 l -0.2,0.056 c -0.196,0.054 -0.297,0.147 -0.297,0.365 0,0.17 0.088,0.43 0.143,0.586 l 2.89,8.648 z m -5.103,-7.897 -1.144,3.142 c 0.547,0.037 1.08,0.158 1.596,0.362 0.31,0.123 0.602,0.275 0.874,0.46 l -1.327,-3.965 z m 14.58,6.643 -4.837,-6.78 v 7.276 c 0,0.447 0.023,1.006 0.15,1.43 0.094,0.313 0.35,0.41 0.608,0.44 l 0.213,0.024 v 0.685 H 40.66 v -0.674 l 0.202,-0.033 c 0.235,-0.04 0.525,-0.137 0.62,-0.423 0.13,-0.38 0.15,-0.924 0.15,-1.328 v -7.083 c 0,-0.332 -0.007,-0.685 -0.05,-1.014 -0.025,-0.215 -0.093,-0.41 -0.208,-0.577 -0.12,-0.177 -0.327,-0.25 -0.51,-0.28 L 40.66,62.839 v -0.685 h 4.896 v 0.704 l -0.698,0.004 3.785,5.38 V 64.74 c 0,-0.44 -0.018,-1.025 -0.15,-1.44 -0.1,-0.308 -0.382,-0.397 -0.634,-0.426 L 47.645,62.85 v -0.695 h 3.91 v 0.686 l -0.204,0.033 c -0.242,0.038 -0.522,0.135 -0.618,0.43 -0.126,0.383 -0.148,0.903 -0.148,1.31 v 7.093 c 0,0.438 0.022,0.987 0.152,1.402 0.097,0.31 0.357,0.424 0.617,0.47 l 0.203,0.034 v 0.673 h -3.91 v -0.683 l 0.21,-0.027 c 0.18,-0.023 0.393,-0.085 0.522,-0.25 0.116,-0.148 0.232,-0.32 0.26,-0.52 l 0.002,-0.74 c 0,-0.34 -0.08,-0.686 -0.23,-0.856 m 3.964,2.127 c 0,-0.253 0.083,-0.48 0.266,-0.667 0.186,-0.19 0.423,-0.28 0.695,-0.28 0.263,0 0.487,0.097 0.657,0.285 0.163,0.18 0.245,0.393 0.245,0.63 0,0.248 -0.09,0.47 -0.26,0.657 -0.178,0.193 -0.404,0.3 -0.676,0.3 -0.263,0 -0.485,-0.103 -0.66,-0.286 -0.173,-0.18 -0.265,-0.396 -0.265,-0.64 m 6.071,-7.156 1.017,-0.847 c 0.315,-0.262 0.624,-0.533 0.927,-0.81 0.314,-0.288 0.617,-0.592 0.896,-0.917 0.098,-0.115 0.346,-0.424 0.346,-0.59 0,-0.017 -0.002,-0.062 -0.01,-0.083 -0.055,-0.034 -0.153,-0.052 -0.21,-0.06 l -0.233,-0.03 v -0.688 h 4.605 v 0.707 l -0.253,0.013 c -0.362,0.02 -0.71,0.105 -1.04,0.255 -0.31,0.14 -0.612,0.31 -0.884,0.518 -0.37,0.282 -0.73,0.583 -1.082,0.887 l -1.033,0.892 c 0.487,0.5 0.942,1.03 1.352,1.6 0.46,0.636 0.87,1.306 1.23,2.006 0.376,0.724 0.706,1.472 0.997,2.232 l 0.322,0.81 v 0.002 c 0.106,0.28 0.215,0.566 0.34,0.837 0.077,0.166 0.187,0.315 0.312,0.445 l 0.003,0.003 c 0.115,0.124 0.253,0.192 0.418,0.213 l 0.234,0.03 v 0.68 h -4.26 v -0.67 l 0.225,-0.038 c 0.247,-0.043 0.37,-0.145 0.37,-0.412 0,-0.49 -0.197,-1.088 -0.37,-1.538 -0.24,-0.616 -0.51,-1.22 -0.83,-1.794 -0.582,-1.043 -1.306,-2.017 -2.077,-2.92 L 58.448,68 v 3.706 c 0,0.447 0.025,1.006 0.17,1.43 0.106,0.313 0.395,0.41 0.688,0.44 l 0.24,0.024 v 0.685 h -4.593 v -0.67 l 0.226,-0.038 c 0.203,-0.033 0.447,-0.106 0.588,-0.276 0.124,-0.15 0.2,-0.322 0.23,-0.518 0.05,-0.308 0.055,-0.644 0.055,-0.956 v -7.083 c 0,-0.437 -0.024,-0.996 -0.17,-1.41 -0.11,-0.31 -0.412,-0.417 -0.7,-0.46 l -0.23,-0.035 v -0.683 h 4.594 v 0.697 l -0.244,0.022 c -0.268,0.025 -0.58,0.103 -0.687,0.392 -0.145,0.39 -0.168,0.934 -0.168,1.348 v 1.565 m 15.989,-2.6 -0.82,-0.043 H 73.608 C 73.561,63.531 73.514,63.525 73.466,63.523 73.41,63.52 73.354,63.52 73.298,63.52 c -0.566,0 -1.127,0.082 -1.663,0.275 -0.504,0.182 -0.946,0.472 -1.326,0.862 -0.407,0.415 -0.693,0.915 -0.888,1.47 l -0.08,0.228 -0.643,-0.15 1.047,-4.61 0.342,0.44 c 0.036,0.05 0.102,0.07 0.157,0.08 l 0.006,0.002 c 0.176,0.037 0.4,0.038 0.578,0.038 h 7.25 l -6.604,10.723 0.797,0.042 c 0.07,0 0.137,0.003 0.206,0.006 l 0.154,0.012 c 0.695,-0.002 1.38,-0.113 2.035,-0.356 0.638,-0.238 1.213,-0.59 1.72,-1.06 0.52,-0.482 0.927,-1.06 1.232,-1.712 l 0.1,-0.212 0.654,0.206 -1.938,5.072 -0.276,-0.5 C 76.14,74.346 76.11,74.33 76.075,74.323 l -0.007,-0.002 c -0.147,-0.036 -0.37,-0.035 -0.522,-0.035 h -7.675 l 6.56,-10.705"
         id="path50"
         style="fill:#ffffff" />
    </g>
  </g>
</svg>
