<?xml version="1.0" encoding="UTF-8" standalone="no" ?>
<!DOCTYPE svg PUBLIC "-//W3C//DTD SVG 1.1//EN" "http://www.w3.org/Graphics/SVG/1.1/DTD/svg11.dtd">
<svg xmlns="http://www.w3.org/2000/svg" xmlns:xlink="http://www.w3.org/1999/xlink" version="1.1" width="1032.427573093" height="1032.427573093" viewBox="7.142857142857224 7.142857142856997 1032.427573093 1032.427573093" xml:space="preserve">
<desc>Created with Fabric.js 5.3.0</desc>
<defs>
</defs>
<g transform="matrix(1 0 0 1 523.3566436894 523.3566436894)" id="BlN--Eam2PyWOy8yV0fLf"  >
<g style=""   >
		<g transform="matrix(9.6003849154 0 0 9.6003849154 0 0)" id="de3V0vrE1dnioMZopCMGo"  >
<path style="stroke: none; stroke-width: 0.877837; stroke-dasharray: none; stroke-linecap: butt; stroke-dashoffset: 0; stroke-linejoin: miter; stroke-miterlimit: 4; fill: rgb(61,111,229); fill-rule: nonzero; opacity: 1;"  transform=" translate(-53.331195, -53.331195)" d="M 0 106.66239 L 0 0 L 106.66239 0 L 106.66239 106.66239 z" stroke-linecap="round" />
</g>
		<g transform="matrix(9.5220182119 0 0 9.5220182119 3.6282758374 -199.3243996114)" id="I-EhHAw8oEBBFWKv1wzGY"  >
<path style="stroke: none; stroke-width: 1; stroke-dasharray: none; stroke-linecap: butt; stroke-dashoffset: 0; stroke-linejoin: miter; stroke-miterlimit: 4; fill: rgb(255,255,255); fill-rule: evenodd; opacity: 1;"  transform=" translate(-41.832539832, -16.52)" d="M 10.17 0.822 L 10.17 0.817 L 10.168 0.817 L 10.168 0.822 C 9.808 1.302 7.543999999999999 1.7069999999999999 7.972999999999999 4.397 C 8.592999999999998 4.244000000000001 9.383 4.164000000000001 10.168999999999999 4.163 C 10.953999999999999 4.163 11.741999999999999 4.243 12.363 4.397 C 12.791 1.7070000000000003 10.529 1.3010000000000002 10.168 0.8220000000000001 M 49.903 12.654 L 49.897 12.654 C 47.847 14.768 35 16.564 37.434 28.454 C 40.891999999999996 27.958000000000002 45.434 27.704 49.9 27.7 C 54.367999999999995 27.703 58.844 27.958 62.367 28.453 C 64.8 16.563 51.953 14.768 49.903 12.653 M 25.976 23.9 L 25.976 23.895999999999997 L 25.976 23.900999999999996 C 25.666 24.308999999999997 23.735999999999997 24.653999999999996 24.099999999999998 26.940999999999995 C 24.63 26.808999999999994 25.304 26.740999999999996 25.976 26.740999999999996 C 26.648 26.740999999999996 27.320999999999998 26.808999999999997 27.851 26.940999999999995 C 28.218 24.653999999999996 26.285999999999998 24.308999999999994 25.977 23.900999999999996 M 30.992 30.275999999999996 L 30.992 30.272999999999996 L 30.992 30.275999999999996 C 30.794 30.535999999999998 29.555 30.757999999999996 29.789 32.223 C 30.129 32.14 30.559 32.096 30.991 32.096 C 31.421 32.096 31.852999999999998 32.13999999999999 32.193 32.223 C 32.428 30.758 31.188999999999997 30.537 30.991 30.276 M 73.824 23.9 L 73.824 23.895999999999997 L 73.824 23.900999999999996 C 74.134 24.308999999999997 76.066 24.653999999999996 75.7 26.940999999999995 C 75.17 26.808999999999994 74.49600000000001 26.740999999999996 73.824 26.740999999999996 C 73.152 26.740999999999996 72.479 26.808999999999997 71.949 26.940999999999995 C 71.582 24.653999999999996 73.515 24.308999999999994 73.823 23.900999999999996 M 68.80999999999999 30.275999999999996 L 68.80999999999999 30.272999999999996 L 68.80999999999999 30.275999999999996 C 69.00699999999999 30.535999999999998 70.24499999999999 30.757999999999996 70.00999999999999 32.223 C 69.66999999999999 32.14 69.24 32.096 68.80999999999999 32.096 C 68.37799999999999 32.096 67.94599999999998 32.13999999999999 67.60699999999999 32.223 C 67.37199999999999 30.758 68.61099999999999 30.537 68.80899999999998 30.276" stroke-linecap="round" />
</g>
		<g transform="matrix(9.5220182119 0 0 9.5220182119 80.4801055443 -243.5541742055)" id="DtCJq4bh1eZ2fC_P6mS5m"  >
<path style="stroke: none; stroke-width: 1; stroke-dasharray: none; stroke-linecap: butt; stroke-dashoffset: 0; stroke-linejoin: miter; stroke-miterlimit: 4; fill: rgb(255,255,255); fill-rule: evenodd; opacity: 1;"  transform=" translate(-49.9035, -11.875)" d="M 49.857 11 L 49.95 11 L 49.95 12.75 L 49.857 12.75 z" stroke-linecap="round" />
</g>
		<g transform="matrix(9.5220182119 0 0 9.5220182119 10.6122969147 -43.5822697381)" id="-v6zJ9wLMAKMXlPa6huDy"  >
<path style="stroke: none; stroke-width: 1; stroke-dasharray: none; stroke-linecap: butt; stroke-dashoffset: 0; stroke-linejoin: miter; stroke-miterlimit: 4; fill: rgb(255,255,255); fill-rule: evenodd; opacity: 1;"  transform=" translate(-42.566, -32.876)" d="M 49.568 12.23 C 49.568 12.416 49.717999999999996 12.567 49.903999999999996 12.567 C 50.087999999999994 12.567 50.238 12.417 50.238 12.231 C 50.238 12.046 50.088 11.895 49.903999999999996 11.895 C 49.718999999999994 11.895 49.568 12.045 49.568 12.232 M 49.696999999999996 11.475 C 49.696999999999996 11.589 49.788999999999994 11.682 49.903999999999996 11.682 C 50.016999999999996 11.682 50.108999999999995 11.589 50.108999999999995 11.475 C 50.108999999999995 11.360999999999999 50.01599999999999 11.267999999999999 49.90299999999999 11.267999999999999 C 49.78799999999999 11.267999999999999 49.69599999999999 11.360999999999999 49.69599999999999 11.475 M 50.185 9.42 C 50.308 9.557 50.385000000000005 9.736 50.385000000000005 9.936 C 50.385000000000005 10.366 50.038000000000004 10.716 49.609 10.716 C 49.352000000000004 10.716 49.126000000000005 10.585999999999999 48.985 10.394 C 49.080999999999996 10.758000000000001 49.409 11.028 49.801 11.028 C 50.271 11.028 50.651 10.648 50.651 10.176 C 50.651 9.844 50.459 9.56 50.184000000000005 9.419 M 23.212 27.71 C 23.212 27.772000000000002 23.242 27.833000000000002 23.294 27.89 C 23.588 27.586000000000002 24.674 27.36 25.974 27.36 C 27.271 27.36 28.357 27.586 28.652 27.89 C 28.702 27.833000000000002 28.732 27.772000000000002 28.732 27.71 C 28.732 27.29 27.497 26.95 25.972 26.95 C 24.448 26.95 23.212000000000003 27.29 23.212000000000003 27.71 M 49.898 30.990000000000002 C 44.138000000000005 30.992 40.14 31.093000000000004 37.878 31.17 L 37.878 56.333 L 38.358 56.333 L 38.358 32.626 L 61.437999999999995 32.626 L 61.437999999999995 56.333 L 61.92 56.333 L 61.92 31.17 C 59.658 31.093 55.66 30.992 49.898 30.99" stroke-linecap="round" />
</g>
		<g transform="matrix(9.5220182119 0 0 9.5220182119 80.4324954532 74.5431271892)" id="SyaY1j-kHhHAMTAJMH7tF"  >
<path style="stroke: none; stroke-width: 1; stroke-dasharray: none; stroke-linecap: butt; stroke-dashoffset: 0; stroke-linejoin: miter; stroke-miterlimit: 4; fill: rgb(255,255,255); fill-rule: evenodd; opacity: 1;"  transform=" translate(-49.8985, -45.2815)" d="M 43.306 36.46 L 43.306 54.103 L 44.082 54.103 L 44.082 37.327 L 55.715 37.327 L 55.715 54.102999999999994 L 56.49100000000001 54.102999999999994 L 56.49100000000001 36.46 L 43.307 36.46" stroke-linecap="round" />
</g>
		<g transform="matrix(9.5220182119 0 0 9.5220182119 -101.2686277109 -88.430975516)" id="A4-U8m2hfESi2UHphofbx"  >
<path style="stroke: none; stroke-width: 1; stroke-dasharray: none; stroke-linecap: butt; stroke-dashoffset: 0; stroke-linejoin: miter; stroke-miterlimit: 4; fill: rgb(255,255,255); fill-rule: evenodd; opacity: 1;"  transform=" translate(-30.8162929383, -28.166)" d="M 53.59 44.487 L 53.588 53.807 L 55.078 53.807 L 55.134 44.384 C 54.697 44.346000000000004 54.094 44.338 53.591 44.487 M 55.136 44.114000000000004 L 55.142 42.910000000000004 C 54.706 42.87200000000001 54.098000000000006 42.862 53.592000000000006 43.012 L 53.592000000000006 44.212 C 54.092000000000006 44.042 54.73500000000001 44.072 55.136 44.114000000000004 M 46.206 44.487 L 46.209 53.807 L 44.719 53.807 L 44.663000000000004 44.384 C 45.099000000000004 44.346000000000004 45.703 44.338 46.205000000000005 44.487 M 44.662 44.114 L 44.655 42.91 C 45.092 42.872 45.699 42.861999999999995 46.205 43.01199999999999 L 46.205 44.211999999999996 C 45.705 44.041999999999994 45.062 44.071999999999996 44.662 44.114 M 52.45 38.622 C 51.523 38.062 49.903000000000006 37.442 49.903000000000006 37.442 L 49.89300000000001 37.442 C 49.89300000000001 37.442 48.27300000000001 38.062 47.34900000000001 38.622 C 44.32100000000001 40.452 44.65300000000001 42.572 44.65300000000001 42.572 C 45.05300000000001 42.527 45.701000000000015 42.497 46.20300000000001 42.667 L 46.20300000000001 42.584 C 46.20300000000001 42.584 46.21300000000001 41.922000000000004 46.81000000000001 41.074000000000005 C 47.38500000000001 40.25600000000001 48.01200000000001 39.86600000000001 48.62000000000001 39.40800000000001 C 49.32500000000001 38.87800000000001 49.84000000000001 38.49100000000001 49.89500000000001 38.44800000000001 L 49.89500000000001 38.44200000000001 L 49.89500000000001 38.44400000000001 L 49.9 38.44400000000001 L 49.9 38.44200000000001 L 49.902 38.44200000000001 L 49.902 38.449000000000005 C 49.958 38.489000000000004 50.472 38.877 51.177 39.407000000000004 C 51.785 39.865 52.413 40.255 52.987 41.072 C 53.583 41.922000000000004 53.592 42.582 53.592 42.582 L 53.592 42.666000000000004 C 54.095 42.496 54.745 42.526 55.144 42.57000000000001 C 55.144 42.57000000000001 55.474 40.45300000000001 52.449 38.62200000000001 M 51.126999999999995 50.196000000000005 C 50.897 49.919000000000004 50.648999999999994 49.78600000000001 50.407 49.633 L 49.901 49.309 L 49.901 49.306 L 49.9 49.306 L 49.9 49.308 C 49.876999999999995 49.32 49.672 49.451 49.391999999999996 49.631 C 49.15 49.785000000000004 48.9 49.917 48.672 50.194 C 48.434999999999995 50.481 48.431999999999995 50.704 48.431999999999995 50.704 L 48.431999999999995 50.980000000000004 L 51.36899999999999 50.980000000000004 L 51.36899999999999 50.703 C 51.36899999999999 50.703 51.36599999999999 50.481 51.12899999999999 50.193000000000005 M 51.36699999999999 51.370000000000005 L 48.43 51.370000000000005 L 48.43 56.30200000000001 L 51.367 56.30200000000001 L 51.367 51.37 M 53.382999999999996 43.043 C 52.602999999999994 43.433 51.336999999999996 43.687 49.897999999999996 43.691 C 48.461 43.688 47.193999999999996 43.433 46.413999999999994 43.044000000000004 L 46.413999999999994 44.254000000000005 C 47.205999999999996 44.632000000000005 48.46699999999999 44.877 49.89399999999999 44.882000000000005 L 49.90399999999999 44.882000000000005 C 51.33099999999999 44.87800000000001 52.59099999999999 44.632000000000005 53.383999999999986 44.255 L 53.383999999999986 43.045 M 10.115 0.503 L 10.218 0.503 L 10.218 0.913 L 10.115 0.913 Z M 10.14 0.03 L 10.192 0.03 L 10.192 0.187 L 10.142 0.187 L 10.142 0.03 Z M 10.004000000000001 0.345 C 10.004000000000001 0.40299999999999997 10.057000000000002 0.45099999999999996 10.121000000000002 0.45099999999999996 L 10.213000000000003 0.45099999999999996 C 10.278000000000002 0.45099999999999996 10.330000000000004 0.40399999999999997 10.330000000000004 0.346 C 10.330000000000004 0.288 10.277000000000003 0.241 10.212000000000003 0.241 L 10.122000000000003 0.241 C 10.057000000000004 0.241 10.004000000000003 0.288 10.004000000000003 0.346 M 13.856000000000003 13.09 C 13.856000000000003 12.606 12.204000000000004 12.214 10.166000000000004 12.214 C 8.129000000000005 12.214 6.478000000000003 12.606 6.478000000000003 13.09 C 6.478000000000003 13.161999999999999 6.518000000000003 13.23 6.588000000000004 13.298 C 6.980000000000004 12.948 8.432000000000004 12.686 10.168000000000003 12.686 C 11.902000000000003 12.686 13.353000000000003 12.946 13.746000000000002 13.298 C 13.816000000000003 13.231 13.856000000000002 13.162 13.856000000000002 13.09 M 12.72 15.43 L 12.72 14.51 C 12.547 14.35 11.48 14.225 10.184 14.225 L 10.15 14.225 C 8.854000000000001 14.225 7.7860000000000005 14.349 7.614000000000001 14.51 L 7.614000000000001 15.496 C 7.784 15.334 8.852 15.21 10.15 15.21 L 10.183 15.21 C 11.48 15.21 12.549 15.334000000000001 12.719 15.496 L 12.719 15.429 M 6.934 5.305 C 6.934 5.378 6.97 5.449 7.031000000000001 5.5169999999999995 C 7.377000000000001 5.159 8.648 4.893 10.168000000000001 4.893 C 11.688 4.893 12.958000000000002 5.159 13.304000000000002 5.5169999999999995 C 13.364 5.449 13.4 5.377 13.4 5.305 C 13.4 4.81 11.952 4.41 10.167 4.41 C 8.382 4.41 6.934 4.81 6.934 5.305 M 10.167 6.704 C 8.914 6.704 7.897 6.898 7.897 7.137 L 7.897 12.125 C 8.561 12.005 9.367 11.943 10.167 11.943 C 10.967 11.943 11.77 12.004999999999999 12.432 12.125 L 12.432 7.15 L 12.436 7.1370000000000005 C 12.436 6.897 11.42 6.704000000000001 10.166 6.704000000000001 z M 8.393 7.4639999999999995 L 8.393 11.732 L 8.151 11.761999999999999 L 8.151 7.458 L 8.153 7.458 C 8.157 7.372 8.270000000000001 7.308 8.273 7.308 C 8.276 7.308 8.39 7.372 8.392999999999999 7.458 L 8.392999999999999 7.462 z M 9.727 7.600999999999999 L 9.727 11.649 C 9.489 11.655 9.257 11.665 9.034 11.678999999999998 L 9.034 7.59 C 9.046 7.324 9.371 7.13 9.379 7.124 L 9.382 7.124 C 9.389 7.130999999999999 9.715 7.324 9.725999999999999 7.59 L 9.728 7.603 L 9.725 7.603 Z M 11.297 7.600999999999999 L 11.297 11.678999999999998 C 11.077 11.665 10.844000000000001 11.655 10.605 11.649 L 10.605 7.59 C 10.618 7.324 10.943 7.13 10.951 7.124 L 10.956000000000001 7.124 C 10.963000000000001 7.130999999999999 11.288000000000002 7.324 11.299000000000001 7.59 L 11.302000000000001 7.603 L 11.3 7.603 Z M 12.182 7.464999999999999 L 12.182 11.761999999999999 C 12.104000000000001 11.751999999999999 12.022 11.741999999999999 11.942 11.733999999999998 L 11.942 7.46 C 11.945 7.374 12.058 7.31 12.062 7.31 C 12.065 7.31 12.177999999999999 7.374 12.181999999999999 7.46 L 12.181999999999999 7.4639999999999995 z" stroke-linecap="round" />
</g>
		<g transform="matrix(9.5220182119 0 0 9.5220182119 -297.8868101224 -301.8194036439)" id="S-6dycysozISfoPhT63pl"  >
<path style="stroke: none; stroke-width: 1; stroke-dasharray: none; stroke-linecap: butt; stroke-dashoffset: 0; stroke-linejoin: miter; stroke-miterlimit: 4; fill: rgb(255,255,255); fill-rule: evenodd; opacity: 1;"  transform=" translate(-10.1675, -5.756)" d="M 12.92 6.345 L 12.92 5.715 L 12.924 5.709 C 12.924 5.409 11.689 5.164999999999999 10.167 5.164999999999999 C 8.652 5.164999999999999 7.4239999999999995 5.404999999999999 7.411 5.704999999999999 L 7.411 6.3469999999999995 C 7.425 6.0489999999999995 8.652999999999999 5.8069999999999995 10.168 5.8069999999999995 C 11.677999999999999 5.8069999999999995 12.902999999999999 6.047 12.921999999999999 6.343999999999999" stroke-linecap="round" />
</g>
		<g transform="matrix(9.5220182119 0 0 9.5220182119 -297.8915711315 -208.0608513207)" id="OWY5KsdRllcTGWKav23CF"  >
<path style="stroke: none; stroke-width: 1; stroke-dasharray: none; stroke-linecap: butt; stroke-dashoffset: 0; stroke-linejoin: miter; stroke-miterlimit: 4; fill: rgb(255,255,255); fill-rule: evenodd; opacity: 1;"  transform=" translate(-10.167, -15.6025)" d="M 12.763 6.558 C 12.763 6.313 11.6 6.1129999999999995 10.167 6.1129999999999995 C 8.733 6.1129999999999995 7.571 6.313 7.571 6.558 C 7.571 6.638 7.697 6.713 7.911 6.778 C 8.033 6.582 8.995999999999999 6.43 10.168 6.43 C 11.338 6.43 12.302 6.582 12.422999999999998 6.776999999999999 C 12.638999999999998 6.712999999999999 12.762999999999998 6.637 12.762999999999998 6.5569999999999995 M 13.334999999999997 13.398 C 12.769 13.163 11.567 13 10.169 12.998 L 10.165000000000001 12.998 C 8.765 13 7.563000000000001 13.162999999999998 6.998000000000001 13.398 C 6.925000000000001 13.434 6.866000000000001 13.472 6.826000000000001 13.513 C 6.856000000000002 13.533 6.956000000000001 13.598 7.038000000000001 13.723 C 7.130000000000001 13.863000000000001 7.338000000000001 14.159 7.588000000000001 14.216000000000001 C 7.726000000000001 14.044 8.825000000000001 13.910000000000002 10.165000000000001 13.909 C 11.505 13.909 12.603000000000002 14.043000000000001 12.742 14.215 C 12.992 14.158 13.199000000000002 13.863 13.292000000000002 13.721 C 13.372000000000002 13.597 13.472000000000001 13.531 13.504000000000001 13.511 C 13.464000000000002 13.471 13.404000000000002 13.433 13.334000000000001 13.396999999999998 M 13.856000000000002 24.884 C 13.856000000000002 24.401 12.204000000000002 24.008 10.166000000000002 24.008 C 8.129000000000001 24.008 6.4780000000000015 24.401 6.4780000000000015 24.884 C 6.4780000000000015 24.956 6.518000000000002 25.026 6.588000000000002 25.092 C 6.980000000000002 24.741999999999997 8.432000000000002 24.482 10.168000000000003 24.482 C 11.902000000000003 24.482 13.353000000000003 24.742 13.746000000000002 25.092 C 13.816000000000003 25.026 13.856000000000002 24.956 13.856000000000002 24.884" stroke-linecap="round" />
</g>
		<g transform="matrix(9.5220182119 0 0 9.5220182119 -297.9010931497 -46.0722775005)" id="OYHPPHXSvCbjE7DuJqOva"  >
<path style="stroke: none; stroke-width: 1; stroke-dasharray: none; stroke-linecap: butt; stroke-dashoffset: 0; stroke-linejoin: miter; stroke-miterlimit: 4; fill: rgb(255,255,255); fill-rule: evenodd; opacity: 1;"  transform=" translate(-10.166, -32.6145)" d="M 13.335 25.192 C 12.769 24.958 11.567 24.795 10.169 24.792 L 10.165000000000001 24.792 C 8.765 24.795 7.563000000000001 24.958000000000002 6.998000000000001 25.192 C 6.925000000000001 25.228 6.866000000000001 25.267 6.826000000000001 25.307 C 6.856000000000002 25.326999999999998 6.956000000000001 25.392999999999997 7.038000000000001 25.517 C 7.130000000000001 25.657 7.338000000000001 25.953 7.588000000000001 26.009999999999998 C 7.726000000000001 25.839999999999996 8.825000000000001 25.703999999999997 10.165000000000001 25.703 C 11.505 25.703 12.603000000000002 25.839 12.742 26.009999999999998 C 12.992 25.953 13.199000000000002 25.657999999999998 13.292000000000002 25.517 C 13.372000000000002 25.393 13.472000000000001 25.326999999999998 13.504000000000001 25.307 C 13.464000000000002 25.267 13.404000000000002 25.227 13.334000000000001 25.192 M 14.406 40.2 C 14.406 39.642 12.508000000000001 39.192 10.166 39.192 C 7.8260000000000005 39.192 5.926 39.642 5.926 40.199 C 5.926 40.278999999999996 5.974 40.358999999999995 6.053 40.437 C 6.506 40.034 8.173 39.733999999999995 10.167 39.733999999999995 C 12.16 39.733999999999995 13.827 40.03399999999999 14.280000000000001 40.437 C 14.360000000000001 40.36 14.406 40.28 14.406 40.196999999999996" stroke-linecap="round" />
</g>
		<g transform="matrix(9.5220182119 0 0 9.5220182119 -69.8106689027 0.1142718362)" id="RqzFLODwvYyZUj-zJ5qu3"  >
<path style="stroke: none; stroke-width: 1; stroke-dasharray: none; stroke-linecap: butt; stroke-dashoffset: 0; stroke-linejoin: miter; stroke-miterlimit: 4; fill: rgb(255,255,255); fill-rule: evenodd; opacity: 1;"  transform=" translate(-34.12, -37.465)" d="M 13.807 40.553 C 13.157 40.282999999999994 11.777000000000001 40.096 10.169 40.092999999999996 L 10.164 40.092999999999996 C 8.556 40.096 7.1739999999999995 40.282999999999994 6.523999999999999 40.553 C 6.443999999999999 40.592999999999996 6.373999999999999 40.638 6.327999999999999 40.683 C 6.363999999999999 40.707 6.478 40.783 6.571999999999999 40.925 C 6.677999999999999 41.086999999999996 6.916999999999999 41.425 7.201999999999999 41.492999999999995 C 7.361999999999999 41.294999999999995 8.625 41.141 10.165 41.138999999999996 C 11.704999999999998 41.138999999999996 12.966999999999999 41.294 13.126999999999999 41.492 C 13.411 41.425 13.649999999999999 41.086 13.757 40.924 C 13.85 40.782 13.965 40.705999999999996 14.001999999999999 40.684 C 13.953999999999999 40.637 13.886999999999999 40.593999999999994 13.803999999999998 40.552 M 61.91 30.182 L 61.907999999999994 30.182 L 61.907999999999994 30.148 L 61.651999999999994 30.148 C 58.27199999999999 29.686 54.062 29.448 49.855999999999995 29.444 C 45.645999999999994 29.448 41.214 29.686 37.885999999999996 30.148 L 37.885999999999996 30.71 L 61.91 30.71 L 61.91 30.182000000000002 L 61.912 30.182000000000002 M 46.41 44.582 L 46.41 44.902 C 47.224999999999994 45.242000000000004 48.407 45.459 49.745 45.479 L 49.745 45.486 L 49.897999999999996 45.482 L 50.052 45.486 L 50.052 45.477999999999994 C 51.39 45.45799999999999 52.572 45.24099999999999 53.386 44.89999999999999 L 53.386 44.57999999999999 C 52.606 44.93999999999999 51.336000000000006 45.18199999999999 49.901 45.18599999999999 C 48.461000000000006 45.181999999999995 47.193000000000005 44.93899999999999 46.411 44.57999999999999 z" stroke-linecap="round" />
</g>
		<g transform="matrix(9.5220182119 0 0 9.5220182119 10.1512236333 -14.0021201629)" id="HvBdHAruoyugdyKHvRHo8"  >
<path style="stroke: none; stroke-width: 1; stroke-dasharray: none; stroke-linecap: butt; stroke-dashoffset: 0; stroke-linejoin: miter; stroke-miterlimit: 4; fill: rgb(255,255,255); fill-rule: evenodd; opacity: 1;"  transform=" translate(-42.5175781979, -35.9825)" d="M 62.21 28.828 C 58.658 28.375999999999998 54.252 28.134999999999998 49.91 28.125 L 49.88699999999999 28.125 C 45.544999999999995 28.135 41.138999999999996 28.375 37.58699999999999 28.828 C 37.55699999999999 28.831 37.73399999999999 29.56 37.86499999999999 29.788 C 41.29499999999999 29.3 45.551999999999985 29.048000000000002 49.89799999999999 29.038 C 54.24499999999999 29.048000000000002 58.50399999999999 29.3 61.93299999999999 29.788 C 62.062999999999995 29.56 62.239999999999995 28.831 62.21099999999999 28.828 M 37.57 36.753 C 37.678 36.471000000000004 37.957 36.328 38.12 36.233 L 38.12 35.131 L 36.483 35.131 L 36.483 38.991 L 37.394999999999996 38.991 C 37.382999999999996 38.181 37.41 37.166 37.568999999999996 36.754 M 22.92 43.285 L 22.92 44.102 L 23.39 44.372 L 28.55 44.372 L 29.02 44.102 L 29.02 43.285 L 22.92 43.285 M 29.124000000000002 33.31999999999999 C 29.124000000000002 32.952999999999996 27.714000000000002 32.653999999999996 25.974000000000004 32.653999999999996 C 24.232000000000003 32.653999999999996 22.821000000000005 32.95399999999999 22.821000000000005 33.321 C 22.821000000000005 33.376999999999995 22.857000000000006 33.431 22.916000000000004 33.480999999999995 C 23.252000000000002 33.212999999999994 24.492000000000004 33.01499999999999 25.974000000000004 33.01499999999999 C 27.454000000000004 33.01499999999999 28.694000000000003 33.212999999999994 29.032000000000004 33.480999999999995 C 29.092000000000002 33.431 29.126000000000005 33.376999999999995 29.126000000000005 33.321 M 28.153000000000006 35.102999999999994 L 28.153000000000006 34.40299999999999 C 28.006000000000007 34.28099999999999 27.093000000000007 34.18599999999999 25.987000000000005 34.18599999999999 L 25.957000000000004 34.18599999999999 C 24.851000000000003 34.18599999999999 23.939000000000004 34.28099999999999 23.792000000000005 34.40299999999999 L 23.792000000000005 35.15299999999999 C 23.937000000000005 35.032999999999994 24.850000000000005 34.93699999999999 25.958000000000006 34.93699999999999 L 25.988000000000007 34.93699999999999 C 27.095000000000006 34.93699999999999 28.008000000000006 35.03199999999999 28.153000000000006 35.15399999999999 L 28.153000000000006 35.10399999999999 M 25.973000000000006 28.904999999999994 C 24.903000000000006 28.904999999999994 24.035000000000007 29.052999999999994 24.035000000000007 29.234999999999992 L 24.035000000000007 32.58699999999999 C 24.601000000000006 32.49499999999999 25.288000000000007 32.44699999999999 25.973000000000006 32.44699999999999 C 26.656000000000006 32.44699999999999 27.343000000000007 32.49499999999999 27.908000000000005 32.58699999999999 L 27.908000000000005 29.24399999999999 L 27.911000000000005 29.233999999999988 C 27.911000000000005 29.053999999999988 27.044000000000004 28.90399999999999 25.974000000000004 28.90399999999999 z M 24.457000000000008 29.484999999999992 L 24.457000000000008 32.28799999999999 L 24.25100000000001 32.30799999999999 L 24.25100000000001 29.480999999999995 C 24.256000000000007 29.416999999999994 24.35100000000001 29.368999999999996 24.355000000000008 29.366999999999994 C 24.358000000000008 29.368999999999993 24.45500000000001 29.416999999999994 24.45800000000001 29.481999999999992 L 24.45800000000001 29.485999999999994 z M 25.59700000000001 29.58899999999999 L 25.59700000000001 32.221999999999994 C 25.393000000000008 32.22599999999999 25.195000000000007 32.233999999999995 25.00500000000001 32.245 L 25.00500000000001 29.577999999999996 C 25.01500000000001 29.374999999999996 25.29500000000001 29.227999999999994 25.30000000000001 29.221999999999994 L 25.304000000000013 29.221999999999994 C 25.30900000000001 29.227999999999994 25.58800000000001 29.374999999999993 25.596000000000014 29.576999999999995 L 25.598000000000013 29.586999999999996 z M 26.94000000000001 29.58899999999999 L 26.94000000000001 32.24499999999999 C 26.750000000000007 32.23499999999999 26.550000000000008 32.22499999999999 26.34700000000001 32.22199999999999 L 26.34700000000001 29.57799999999999 L 26.349000000000007 29.57799999999999 C 26.357000000000006 29.37499999999999 26.63500000000001 29.227999999999987 26.64100000000001 29.221999999999987 L 26.64500000000001 29.221999999999987 C 26.65100000000001 29.227999999999987 26.92900000000001 29.374999999999986 26.93900000000001 29.576999999999988 L 26.93900000000001 29.58699999999999 z M 27.69400000000001 29.48299999999999 L 27.69400000000001 32.30799999999999 C 27.62600000000001 32.297999999999995 27.55800000000001 32.291999999999994 27.48800000000001 32.28499999999999 L 27.48800000000001 29.47899999999999 C 27.49100000000001 29.41499999999999 27.58800000000001 29.36699999999999 27.59000000000001 29.364999999999988 L 27.59200000000001 29.364999999999988 C 27.59400000000001 29.366999999999987 27.69000000000001 29.41499999999999 27.69400000000001 29.479999999999986 L 27.69400000000001 29.483999999999988 z M 28.32500000000001 28.59399999999999 L 28.32500000000001 28.06 L 28.32700000000001 28.052999999999997 C 28.32700000000001 27.798 27.27300000000001 27.592999999999996 25.97300000000001 27.592999999999996 C 24.67800000000001 27.592999999999996 23.62900000000001 27.796999999999997 23.61900000000001 28.049999999999997 L 23.61700000000001 28.049999999999997 L 23.61700000000001 28.595999999999997 C 23.627000000000013 28.342999999999996 24.67700000000001 28.137999999999998 25.972000000000012 28.137999999999998 C 27.26200000000001 28.137999999999998 28.30800000000001 28.342 28.324000000000012 28.593999999999998" stroke-linecap="round" />
</g>
		<g transform="matrix(9.5220182119 0 0 9.5220182119 -127.4617281664 -35.7980198499)" id="WXOJCwBdc0KkJvrxD-Zk7"  >
<path style="stroke: none; stroke-width: 1; stroke-dasharray: none; stroke-linecap: butt; stroke-dashoffset: 0; stroke-linejoin: miter; stroke-miterlimit: 4; fill: rgb(255,255,255); fill-rule: evenodd; opacity: 1;"  transform=" translate(-28.0655, -33.6935)" d="M 28.19 28.775 C 28.19 28.567 27.197000000000003 28.397 25.973000000000003 28.397 C 24.748 28.397 23.755000000000003 28.567 23.755000000000003 28.775 C 23.755000000000003 28.843 23.862000000000002 28.904999999999998 24.045 28.961 C 24.150000000000002 28.796999999999997 24.972 28.666999999999998 25.973000000000003 28.666999999999998 C 26.973000000000003 28.666999999999998 27.796000000000003 28.796999999999997 27.899 28.962 C 28.082 28.908 28.189 28.845 28.189 28.777 M 28.097 38.99 L 28.097 35.452000000000005 C 27.955000000000002 35.33200000000001 27.067 35.24 25.987000000000002 35.24 L 25.957 35.24 C 24.880000000000003 35.24 23.990000000000002 35.332 23.849 35.452000000000005 L 23.849 38.99 L 28.096 38.99 M 28.68 33.556000000000004 C 28.195 33.376000000000005 27.169999999999998 33.25300000000001 25.974 33.251000000000005 L 25.971 33.251000000000005 C 24.777 33.254000000000005 23.751 33.37800000000001 23.268 33.557 C 23.206 33.585 23.155 33.614000000000004 23.121000000000002 33.645 C 23.148000000000003 33.659000000000006 23.234 33.71 23.301000000000002 33.805 C 23.381 33.912 23.559 34.137 23.771 34.18 C 23.891000000000002 34.048 24.829 33.946 25.974 33.945 C 27.118 33.945 28.057000000000002 34.048 28.174 34.179 C 28.387999999999998 34.135000000000005 28.564 33.909 28.644 33.802 C 28.714 33.708 28.799 33.657 28.825999999999997 33.642 C 28.790999999999997 33.612 28.740999999999996 33.582 28.679999999999996 33.555 M 33.01 36.315 C 33.01 36.077999999999996 32.105 35.887 30.99 35.887 C 29.874 35.887 28.97 36.077 28.97 36.315 C 28.97 36.349999999999994 28.99 36.385 29.029999999999998 36.415 C 29.243999999999996 36.245 30.04 36.118 30.99 36.118 C 31.939999999999998 36.118 32.734 36.245000000000005 32.949999999999996 36.416000000000004 C 32.986999999999995 36.38400000000001 33.01 36.35 33.01 36.316 M 32.388 37.457 L 32.388 37.007 C 32.293 36.928999999999995 31.708 36.869 30.997999999999998 36.869 L 30.98 36.869 C 30.27 36.869 29.686 36.929 29.59 37.007 L 29.59 37.489 C 29.684 37.409 30.27 37.349 30.98 37.349 L 31 37.349 C 31.71 37.349 32.294 37.409 32.388 37.489 L 32.388 37.456 M 29.22 32.718 C 29.22 32.758 29.24 32.79600000000001 29.272 32.833000000000006 C 29.459999999999997 32.638000000000005 30.157 32.493 30.988999999999997 32.493 C 31.820999999999998 32.493 32.516999999999996 32.638000000000005 32.705999999999996 32.833000000000006 C 32.73799999999999 32.79600000000001 32.757999999999996 32.757000000000005 32.757999999999996 32.718 C 32.757999999999996 32.448 31.963999999999995 32.230000000000004 30.987999999999996 32.230000000000004 C 30.009999999999994 32.230000000000004 29.217999999999996 32.45 29.217999999999996 32.718 M 30.989999999999995 33.484 C 30.302999999999994 33.484 29.746999999999996 33.579 29.746999999999996 33.696000000000005 L 29.746999999999996 35.843 C 30.109999999999996 35.785000000000004 30.549999999999997 35.755 30.988999999999997 35.755 C 31.426 35.755 31.866999999999997 35.785000000000004 32.229 35.843 L 32.229 33.697 C 32.229 33.580000000000005 31.675 33.485 30.989 33.485 z M 30.017999999999994 33.854 L 30.017999999999994 35.652 L 29.885999999999992 35.666000000000004 L 29.885999999999992 33.854000000000006 C 29.88799999999999 33.81100000000001 29.949999999999992 33.781000000000006 29.95199999999999 33.779 C 29.95199999999999 33.779 30.01599999999999 33.809000000000005 30.01799999999999 33.852000000000004 z M 30.747999999999994 33.922 L 30.747999999999994 35.61 C 30.617999999999995 35.614 30.490999999999993 35.618 30.367999999999995 35.626 L 30.367999999999995 33.915 C 30.375999999999994 33.785 30.553999999999995 33.69 30.557999999999996 33.687 L 30.559999999999995 33.687 C 30.563999999999997 33.69 30.741999999999994 33.785 30.747999999999994 33.915 L 30.747999999999994 33.921 z M 31.607999999999993 33.922 L 31.607999999999993 35.626 C 31.487999999999992 35.617999999999995 31.359999999999992 35.614 31.227999999999994 35.61 L 31.227999999999994 33.915 L 31.229999999999993 33.915 C 31.234999999999992 33.785 31.413999999999994 33.69 31.419999999999995 33.687 C 31.423999999999996 33.69 31.601999999999993 33.785 31.609999999999996 33.915 L 31.609999999999996 33.921 z M 32.09199999999999 33.855 L 32.09199999999999 35.665 C 32.04899999999999 35.661 32.00499999999999 35.655 31.95999999999999 35.652 L 31.95999999999999 33.852000000000004 C 31.96299999999999 33.812000000000005 32.02499999999999 33.782000000000004 32.02699999999999 33.779 C 32.02899999999999 33.779 32.09099999999999 33.809000000000005 32.091999999999985 33.852000000000004 L 32.091999999999985 33.854000000000006 z" stroke-linecap="round" />
</g>
		<g transform="matrix(9.5220182119 0 0 9.5220182119 -99.6336299422 -42.7443321354)" id="DsBnp72wVPss-okX4bfCV"  >
<path style="stroke: none; stroke-width: 1; stroke-dasharray: none; stroke-linecap: butt; stroke-dashoffset: 0; stroke-linejoin: miter; stroke-miterlimit: 4; fill: rgb(255,255,255); fill-rule: evenodd; opacity: 1;"  transform=" translate(-30.988, -32.964)" d="M 32.497 33.284 L 32.497 32.938 C 32.497 32.774 31.823 32.642 30.989 32.642 C 30.159000000000002 32.642 29.486 32.772000000000006 29.479 32.936 L 29.479 33.286 C 29.486 33.124 30.159 32.992000000000004 30.989 32.992000000000004 C 31.815 32.992000000000004 32.486000000000004 33.12200000000001 32.496 33.284000000000006" stroke-linecap="round" />
</g>
		<g transform="matrix(9.5220182119 0 0 9.5220182119 110.6125321757 33.0223667764)" id="QP4uR4euMH7xs2QyMwSVU"  >
<path style="stroke: none; stroke-width: 1; stroke-dasharray: none; stroke-linecap: butt; stroke-dashoffset: 0; stroke-linejoin: miter; stroke-miterlimit: 4; fill: rgb(255,255,255); fill-rule: evenodd; opacity: 1;"  transform=" translate(-53.068, -40.921)" d="M 32.41 33.4 C 32.41 33.266999999999996 31.773999999999997 33.158 30.989999999999995 33.158 C 30.203999999999994 33.158 29.566999999999993 33.268 29.566999999999993 33.4 C 29.566999999999993 33.443999999999996 29.636999999999993 33.484 29.753999999999994 33.519999999999996 C 29.819999999999993 33.413999999999994 30.347999999999995 33.33 30.988999999999994 33.33 C 31.628999999999994 33.33 32.157 33.414 32.224 33.519999999999996 C 32.340999999999994 33.483999999999995 32.409 33.443999999999996 32.409 33.4 M 32.35 38.978 L 32.35 37.73 C 32.26 37.653 31.69 37.594 30.998 37.594 L 30.98 37.594 C 30.29 37.594 29.718 37.654 29.628 37.730000000000004 L 29.628 38.978 L 32.35 38.978 M 32.724000000000004 36.465 C 32.414 36.351 31.756 36.271 30.99 36.27 L 30.988 36.27 C 30.222 36.27 29.564 36.35 29.253999999999998 36.465 C 29.214 36.483000000000004 29.182 36.502 29.159999999999997 36.521 C 29.177999999999997 36.531 29.231999999999996 36.564 29.276999999999997 36.624 C 29.326999999999998 36.694 29.441 36.838 29.576999999999998 36.866 C 29.653 36.782 30.255 36.716 30.988999999999997 36.716 C 31.721999999999998 36.716 32.323 36.782000000000004 32.398999999999994 36.866 C 32.535999999999994 36.838 32.648999999999994 36.694 32.70099999999999 36.624 C 32.74499999999999 36.564 32.79899999999999 36.532000000000004 32.81699999999999 36.522000000000006 C 32.79399999999999 36.504000000000005 32.76199999999999 36.48500000000001 32.72299999999999 36.467000000000006 M 29.30999999999999 43.285000000000004 L 37.901999999999994 43.285000000000004 L 37.901999999999994 44.3 L 29.311999999999994 44.3 L 29.311999999999994 43.285 z M 33.12199999999999 52.872 L 33.12199999999999 47.98 C 33.12199999999999 47.98 33.12199999999999 47.806999999999995 32.94199999999999 47.586 C 32.77199999999999 47.373 32.583999999999996 47.271 32.401999999999994 47.152 C 32.19199999999999 47.012 32.038 46.912 32.02199999999999 46.902 L 32.02199999999999 46.899 L 32.01899999999999 46.899 L 31.63699999999999 47.151 C 31.45699999999999 47.271 31.26899999999999 47.371 31.09699999999999 47.585 C 30.91899999999999 47.805 30.91699999999999 47.979 30.91699999999999 47.979 L 30.91699999999999 54.891999999999996 L 33.12099999999999 54.891999999999996 L 33.12099999999999 52.87199999999999 M 37.08999999999999 52.87199999999999 L 37.09299999999999 47.97999999999999 C 37.09299999999999 47.97999999999999 37.08999999999999 47.80699999999999 36.91299999999999 47.58599999999999 C 36.74099999999999 47.37299999999999 36.55299999999999 47.270999999999994 36.37299999999999 47.151999999999994 C 36.16299999999999 47.01199999999999 36.00799999999999 46.91199999999999 35.99299999999999 46.901999999999994 L 35.99299999999999 46.899 L 35.99 46.899 L 35.608000000000004 47.151 C 35.428000000000004 47.271 35.24 47.371 35.068000000000005 47.585 C 34.89000000000001 47.805 34.888000000000005 47.979 34.888000000000005 47.979 L 34.888000000000005 54.891999999999996 L 37.09100000000001 54.891999999999996 L 37.09100000000001 54.55799999999999 L 37.09300000000001 54.55799999999999 L 37.09300000000001 52.872 M 62.23 36.753 C 62.12 36.471000000000004 61.839999999999996 36.328 61.677 36.233 L 61.677 35.131 L 63.315 35.131 L 63.315 38.991 L 62.402 38.991 C 62.414 38.181 62.387 37.166 62.229 36.754 M 76.877 43.285 L 76.877 44.102 L 76.407 44.372 L 71.247 44.372 L 70.777 44.102 L 70.777 43.285 L 76.877 43.285 M 70.674 33.32 C 70.674 32.953 72.084 32.654 73.82400000000001 32.654 C 75.56400000000001 32.654 76.97600000000001 32.954 76.97600000000001 33.321000000000005 C 76.97600000000001 33.377 76.94100000000002 33.431000000000004 76.88300000000001 33.481 C 76.546 33.213 75.30700000000002 33.015 73.82500000000002 33.015 C 72.34300000000002 33.015 71.10300000000002 33.213 70.76700000000002 33.481 C 70.70700000000002 33.431000000000004 70.67400000000002 33.377 70.67400000000002 33.321000000000005 M 71.64300000000001 35.10300000000001 L 71.64300000000001 34.403000000000006 C 71.79100000000001 34.281000000000006 72.70300000000002 34.18600000000001 73.80900000000001 34.18600000000001 L 73.83900000000001 34.18600000000001 C 74.94500000000001 34.18600000000001 75.85900000000001 34.281000000000006 76.00400000000002 34.403000000000006 L 76.00400000000002 35.153000000000006 C 75.85900000000002 35.03300000000001 74.94600000000001 34.937000000000005 73.83800000000002 34.937000000000005 L 73.80800000000002 34.937000000000005 C 72.70000000000002 34.937000000000005 71.78800000000003 35.032000000000004 71.64100000000002 35.154 L 71.64100000000002 35.104000000000006 M 76.58500000000002 27.710000000000008 C 76.58500000000002 27.77200000000001 76.55500000000002 27.83300000000001 76.50500000000002 27.890000000000008 C 76.20900000000002 27.58600000000001 75.12300000000002 27.360000000000007 73.82500000000002 27.360000000000007 C 72.52500000000002 27.360000000000007 71.44000000000001 27.586000000000006 71.14500000000001 27.890000000000008 C 71.09500000000001 27.83300000000001 71.06500000000001 27.77200000000001 71.06500000000001 27.710000000000008 C 71.06500000000001 27.290000000000006 72.299 26.950000000000006 73.82500000000002 26.950000000000006 C 75.35000000000002 26.950000000000006 76.58500000000002 27.290000000000006 76.58500000000002 27.710000000000008 M 71.88600000000002 29.235000000000007 L 71.88900000000002 29.245000000000008 L 71.88900000000002 32.58500000000001 C 72.45400000000002 32.495000000000005 73.13900000000002 32.44700000000001 73.82400000000003 32.44700000000001 C 74.50800000000002 32.44700000000001 75.19400000000003 32.49500000000001 75.76200000000003 32.58700000000001 L 75.76200000000003 29.23500000000001 C 75.76200000000003 29.05300000000001 74.89400000000003 28.905000000000012 73.82400000000003 28.905000000000012 C 72.75400000000003 28.905000000000012 71.88400000000003 29.05300000000001 71.88400000000003 29.23500000000001 z M 75.34000000000002 29.485000000000007 L 75.34000000000002 29.482000000000006 C 75.34300000000002 29.416000000000007 75.44000000000001 29.368000000000006 75.44200000000002 29.366000000000007 L 75.44400000000002 29.366000000000007 C 75.44600000000001 29.368000000000006 75.54200000000002 29.416000000000007 75.54600000000002 29.481000000000005 L 75.54600000000002 32.31 C 75.479 32.3 75.411 32.294 75.34 32.287 L 75.34 29.483999999999998 z M 74.20000000000002 29.589000000000006 L 74.20000000000002 29.579000000000004 C 74.21000000000002 29.376000000000005 74.48800000000001 29.229000000000003 74.49400000000001 29.223000000000003 L 74.49800000000002 29.223000000000003 C 74.50400000000002 29.229000000000003 74.78200000000002 29.376 74.79100000000003 29.578000000000003 L 74.79300000000002 29.578000000000003 L 74.79300000000002 32.243 C 74.60300000000002 32.233000000000004 74.40500000000002 32.223 74.20100000000002 32.22 L 74.20100000000002 29.59 z M 72.85600000000002 29.589000000000006 L 72.85800000000002 29.579000000000004 C 72.86800000000002 29.376000000000005 73.14600000000002 29.229000000000003 73.15100000000002 29.223000000000003 L 73.15600000000002 29.223000000000003 C 73.16300000000003 29.229000000000003 73.44000000000003 29.376 73.45000000000002 29.578000000000003 L 73.45000000000002 32.220000000000006 C 73.24600000000002 32.224000000000004 73.04800000000002 32.232000000000006 72.85800000000002 32.24300000000001 L 72.85800000000002 29.59 L 72.85600000000002 29.59 z M 72.10300000000002 29.483000000000004 L 72.10300000000002 29.481000000000005 C 72.10600000000002 29.415000000000006 72.20300000000002 29.367000000000004 72.20500000000003 29.365000000000006 L 72.20700000000002 29.365000000000006 C 72.20900000000002 29.367000000000004 72.30700000000002 29.415000000000006 72.30900000000003 29.480000000000004 L 72.30900000000003 32.288000000000004 L 72.10200000000003 32.30800000000001 L 72.10200000000003 29.48400000000001 z" stroke-linecap="round" />
</g>
		<g transform="matrix(9.5220182119 0 0 9.5220182119 308.2563031903 -89.1117998181)" id="max6uTApKaXGGTGHnnkXG"  >
<path style="stroke: none; stroke-width: 1; stroke-dasharray: none; stroke-linecap: butt; stroke-dashoffset: 0; stroke-linejoin: miter; stroke-miterlimit: 4; fill: rgb(255,255,255); fill-rule: evenodd; opacity: 1;"  transform=" translate(-73.8245, -28.0945)" d="M 71.472 28.594 L 71.472 28.06 L 71.47 28.053 C 71.47 27.798000000000002 72.524 27.593 73.825 27.593 C 75.119 27.593 76.168 27.797 76.179 28.05 L 76.179 28.596 C 76.167 28.343 75.119 28.138 73.824 28.138 C 72.53399999999999 28.138 71.488 28.342000000000002 71.471 28.594" stroke-linecap="round" />
</g>
		<g transform="matrix(9.5220182119 0 0 9.5220182119 288.3410021002 -35.7980198499)" id="IXSlaOyusXU4UZoqCjRiE"  >
<path style="stroke: none; stroke-width: 1; stroke-dasharray: none; stroke-linecap: butt; stroke-dashoffset: 0; stroke-linejoin: miter; stroke-miterlimit: 4; fill: rgb(255,255,255); fill-rule: evenodd; opacity: 1;"  transform=" translate(-71.733, -33.6935)" d="M 71.607 28.775 C 71.607 28.567 72.6 28.397 73.825 28.397 C 75.049 28.397 76.042 28.567 76.042 28.775 C 76.042 28.843 75.935 28.904999999999998 75.752 28.961 C 75.648 28.796999999999997 74.82499999999999 28.666999999999998 73.82499999999999 28.666999999999998 C 72.82499999999999 28.666999999999998 72.002 28.796999999999997 71.89799999999998 28.962 C 71.71399999999998 28.908 71.60799999999998 28.845 71.60799999999998 28.777 M 71.7 38.99 L 71.7 35.452000000000005 C 71.843 35.33200000000001 72.73 35.24 73.81 35.24 L 73.84 35.24 C 74.918 35.24 75.808 35.332 75.94800000000001 35.452000000000005 L 75.94800000000001 38.99 L 71.7 38.99 M 71.11800000000001 33.556000000000004 C 71.602 33.376000000000005 72.62800000000001 33.25300000000001 73.82400000000001 33.251000000000005 L 73.82600000000001 33.251000000000005 C 75.021 33.254000000000005 76.046 33.37800000000001 76.531 33.557 C 76.593 33.585 76.644 33.614000000000004 76.67800000000001 33.645 C 76.65100000000001 33.659000000000006 76.56600000000002 33.71 76.498 33.805 C 76.418 33.912 76.24000000000001 34.137 76.028 34.18 C 75.908 34.048 74.97 33.946 73.82600000000001 33.945 C 72.682 33.945 71.74300000000001 34.048 71.62400000000001 34.179 C 71.41100000000002 34.135000000000005 71.23400000000001 33.909 71.15400000000001 33.802 C 71.08600000000001 33.708 71.00000000000001 33.657 70.974 33.642 C 71.00800000000001 33.612 71.058 33.582 71.119 33.555 M 66.788 36.315 C 66.788 36.077999999999996 67.693 35.887 68.80799999999999 35.887 C 69.92399999999999 35.887 70.82799999999999 36.077 70.82799999999999 36.315 C 70.82799999999999 36.349999999999994 70.80599999999998 36.385 70.76799999999999 36.415 C 70.55299999999998 36.245 69.75799999999998 36.118 68.80799999999999 36.118 C 67.85799999999999 36.118 67.064 36.245000000000005 66.848 36.416000000000004 C 66.81 36.38400000000001 66.788 36.35 66.788 36.316 M 67.41 37.457 L 67.41 37.007 C 67.505 36.928999999999995 68.09 36.869 68.8 36.869 L 68.818 36.869 C 69.52799999999999 36.869 70.112 36.929 70.206 37.007 L 70.206 37.489 C 70.113 37.409 69.528 37.349 68.818 37.349 L 68.798 37.349 C 68.08800000000001 37.349 67.503 37.409 67.41 37.489 L 67.41 37.455999999999996 M 70.578 32.717999999999996 C 70.578 32.757999999999996 70.558 32.796 70.526 32.833 C 70.336 32.638 69.64 32.492999999999995 68.80799999999999 32.492999999999995 C 67.976 32.492999999999995 67.27999999999999 32.638 67.091 32.833 C 67.059 32.796 67.03899999999999 32.757 67.03899999999999 32.717999999999996 C 67.03899999999999 32.44799999999999 67.83099999999999 32.23 68.80899999999998 32.23 C 69.78699999999998 32.23 70.57899999999998 32.449999999999996 70.57899999999998 32.717999999999996 M 67.56499999999998 33.696 L 67.56699999999998 33.701 L 67.56699999999998 35.844 C 67.92999999999998 35.786 68.36999999999998 35.756 68.80699999999997 35.756 C 69.24699999999997 35.756 69.68699999999997 35.786 70.04999999999997 35.844 L 70.04999999999997 33.697 C 70.04999999999997 33.580000000000005 69.49399999999997 33.485 68.80799999999996 33.485 C 68.12099999999997 33.485 67.56499999999997 33.58 67.56499999999997 33.697 z M 69.77899999999998 33.855999999999995 L 69.77899999999998 33.852999999999994 C 69.77899999999998 33.81099999999999 69.84299999999998 33.78099999999999 69.84399999999998 33.778999999999996 C 69.84699999999998 33.778999999999996 69.90899999999998 33.809 69.91099999999997 33.852 L 69.91099999999997 35.665 L 69.77899999999997 35.650999999999996 L 69.77899999999997 33.854 z M 69.04699999999998 33.922 L 69.04699999999998 33.916 C 69.05399999999999 33.785999999999994 69.23199999999999 33.690999999999995 69.23699999999998 33.687999999999995 C 69.24199999999998 33.690999999999995 69.42099999999998 33.785999999999994 69.42699999999998 33.916 L 69.42699999999998 35.625 C 69.30699999999997 35.617 69.17699999999998 35.613 69.04699999999998 35.609 L 69.04699999999998 33.921 z M 68.18699999999998 33.922 L 68.18699999999998 33.916 C 68.19399999999999 33.785999999999994 68.37199999999999 33.690999999999995 68.37699999999998 33.687999999999995 C 68.38199999999998 33.690999999999995 68.55999999999999 33.785999999999994 68.56699999999998 33.916 L 68.56699999999998 35.61 C 68.43699999999998 35.614 68.30899999999998 35.618 68.18699999999998 35.626 z M 67.70299999999999 33.855 L 67.70299999999999 33.852999999999994 C 67.70599999999999 33.81099999999999 67.76799999999999 33.78099999999999 67.76899999999999 33.778999999999996 C 67.77199999999999 33.778999999999996 67.83299999999998 33.809 67.83599999999998 33.852 L 67.83599999999998 35.650999999999996 L 67.70399999999998 35.665 L 67.70399999999998 33.855 z" stroke-linecap="round" />
</g>
		<g transform="matrix(9.5220182119 0 0 9.5220182119 260.4986208487 -42.7443321354)" id="wMXy91sbfpqsSDW9i4vc6"  >
<path style="stroke: none; stroke-width: 1; stroke-dasharray: none; stroke-linecap: butt; stroke-dashoffset: 0; stroke-linejoin: miter; stroke-miterlimit: 4; fill: rgb(255,255,255); fill-rule: evenodd; opacity: 1;"  transform=" translate(-68.809, -32.964)" d="M 67.3 33.284 L 67.3 32.938 C 67.3 32.774 67.974 32.642 68.80799999999999 32.642 C 69.63799999999999 32.642 70.31099999999999 32.772000000000006 70.318 32.936 L 70.318 33.286 C 70.31099999999999 33.124 69.63799999999999 32.992000000000004 68.80799999999999 32.992000000000004 C 67.981 32.992000000000004 67.31099999999999 33.12200000000001 67.3 33.284000000000006" stroke-linecap="round" />
</g>
		<g transform="matrix(9.5220182119 0 0 9.5220182119 236.2793675268 62.578711306)" id="SjEEVrLX7R9DalPusdF1g"  >
<path style="stroke: none; stroke-width: 1; stroke-dasharray: none; stroke-linecap: butt; stroke-dashoffset: 0; stroke-linejoin: miter; stroke-miterlimit: 4; fill: rgb(255,255,255); fill-rule: evenodd; opacity: 1;"  transform=" translate(-66.2655, -44.025)" d="M 67.386 33.4 C 67.386 33.266999999999996 68.023 33.158 68.80799999999999 33.158 C 69.59299999999999 33.158 70.22999999999999 33.268 70.22999999999999 33.4 C 70.22999999999999 33.443999999999996 70.16 33.484 70.04299999999999 33.519999999999996 C 69.97699999999999 33.413999999999994 69.449 33.33 68.80799999999999 33.33 C 68.16799999999999 33.33 67.63999999999999 33.414 67.57199999999999 33.519999999999996 C 67.45499999999998 33.483999999999995 67.38599999999998 33.443999999999996 67.38599999999998 33.4 M 67.44699999999999 38.978 L 67.44699999999999 37.73 C 67.53699999999999 37.653 68.10699999999999 37.593999999999994 68.79899999999999 37.593999999999994 L 68.81599999999999 37.593999999999994 C 69.50799999999998 37.593999999999994 70.07799999999999 37.653999999999996 70.16899999999998 37.73 L 70.16899999999998 38.977999999999994 L 67.44599999999998 38.977999999999994 M 67.07299999999998 36.464999999999996 C 67.38299999999998 36.351 68.04099999999998 36.270999999999994 68.80699999999997 36.269999999999996 L 68.80899999999997 36.269999999999996 C 69.57399999999997 36.269999999999996 70.23199999999997 36.349999999999994 70.54199999999997 36.464999999999996 C 70.58199999999998 36.483 70.61199999999997 36.501999999999995 70.63499999999998 36.520999999999994 C 70.61899999999997 36.53099999999999 70.56299999999997 36.56399999999999 70.51999999999998 36.623999999999995 C 70.46999999999998 36.693999999999996 70.35499999999998 36.837999999999994 70.21999999999998 36.86599999999999 C 70.14299999999999 36.78199999999999 69.53999999999998 36.715999999999994 68.80799999999998 36.715999999999994 C 68.07499999999997 36.715999999999994 67.47299999999998 36.782 67.39799999999998 36.86599999999999 C 67.26099999999998 36.837999999999994 67.14799999999998 36.693999999999996 67.09599999999998 36.623999999999995 C 67.05199999999998 36.56399999999999 66.99599999999998 36.532 66.97899999999997 36.522 C 67.00099999999998 36.504 67.03299999999997 36.485 67.07199999999997 36.467 M 61.89599999999997 43.285 L 70.48599999999998 43.285 L 70.48599999999998 44.3 L 61.89599999999997 44.3 z M 66.67499999999997 52.872 L 66.67499999999997 47.98 C 66.67499999999997 47.98 66.67699999999996 47.806999999999995 66.85499999999998 47.586 C 67.02699999999997 47.373 67.21299999999998 47.271 67.39499999999998 47.152 C 67.60499999999998 47.012 67.75899999999999 46.912 67.77499999999998 46.902 L 67.77499999999998 46.899 L 67.77699999999997 46.899 L 68.15899999999998 47.151 C 68.33899999999998 47.271 68.52599999999998 47.371 68.69899999999998 47.585 C 68.87599999999999 47.805 68.87899999999999 47.979 68.87899999999999 47.979 L 68.87899999999999 54.891999999999996 L 66.67399999999999 54.891999999999996 L 66.67399999999999 52.870999999999995 M 62.70599999999999 52.87199999999999 L 62.703999999999986 47.97999999999999 C 62.703999999999986 47.97999999999999 62.70699999999999 47.80699999999999 62.883999999999986 47.58599999999999 C 63.05599999999998 47.37299999999999 63.243999999999986 47.270999999999994 63.423999999999985 47.151999999999994 C 63.633999999999986 47.01199999999999 63.78899999999999 46.91199999999999 63.80599999999998 46.901999999999994 L 63.80599999999998 46.898999999999994 L 63.807999999999986 46.898999999999994 C 63.82499999999999 46.91199999999999 63.97799999999999 47.01199999999999 64.18799999999999 47.150999999999996 C 64.371 47.270999999999994 64.55799999999999 47.370999999999995 64.72999999999999 47.584999999999994 C 64.90799999999999 47.80499999999999 64.91 47.97899999999999 64.91 47.97899999999999 L 64.91 54.891999999999996 L 62.705999999999996 54.891999999999996 L 62.705999999999996 52.870999999999995" stroke-linecap="round" />
</g>
		<g transform="matrix(9.5220182119 0 0 9.5220182119 6.4845020199 -14.1211453906)" id="nP6Qce_bvIqRQsr-Lfr73"  >
<path style="stroke: none; stroke-width: 1; stroke-dasharray: none; stroke-linecap: butt; stroke-dashoffset: 0; stroke-linejoin: miter; stroke-miterlimit: 4; fill: rgb(255,255,255); fill-rule: evenodd; opacity: 1;"  transform=" translate(-42.1325, -35.97)" d="M 65.237 56.333 L 70.851 56.333 L 70.851 44.77 L 65.238 44.77 L 65.238 56.333000000000006 z M 66.21499999999999 46.019 L 69.222 46.019 L 69.222 55.083999999999996 L 66.215 55.083999999999996 L 66.215 46.02 Z M 76.884 42.7 C 76.884 42.783 76.818 42.848000000000006 76.737 42.848000000000006 L 70.917 42.848000000000006 C 70.837 42.848000000000006 70.771 42.78300000000001 70.771 42.70100000000001 L 70.771 39.33500000000001 C 70.771 39.25500000000001 70.838 39.18800000000001 70.919 39.18800000000001 L 76.739 39.18800000000001 C 76.819 39.18800000000001 76.885 39.25400000000001 76.885 39.33500000000001 L 76.885 42.7 M 29.034000000000006 42.7 C 29.034000000000006 42.783 28.969000000000005 42.848000000000006 28.888000000000005 42.848000000000006 L 23.068000000000005 42.848000000000006 C 22.988000000000007 42.848000000000006 22.922000000000004 42.78300000000001 22.922000000000004 42.70100000000001 L 22.922000000000004 39.33500000000001 C 22.922000000000004 39.25500000000001 22.988000000000003 39.18800000000001 23.069000000000003 39.18800000000001 L 28.887 39.18800000000001 C 28.967 39.18800000000001 29.033 39.25400000000001 29.033 39.33500000000001 L 29.033 42.7 M 38.124 42.695 C 38.124 42.775 38.059000000000005 42.842 37.977000000000004 42.842 L 29.462000000000003 42.842 C 29.382000000000005 42.842 29.316000000000003 42.775999999999996 29.316000000000003 42.695 L 29.316000000000003 39.335 C 29.316000000000003 39.253 29.381000000000004 39.187 29.462000000000003 39.187 L 37.977000000000004 39.187 C 38.059000000000005 39.187 38.124 39.253 38.124 39.333999999999996 L 38.124 42.693999999999996 M 70.47 42.69499999999999 C 70.47 42.77499999999999 70.405 42.84199999999999 70.323 42.84199999999999 L 61.80799999999999 42.84199999999999 C 61.727999999999994 42.84199999999999 61.660999999999994 42.77599999999999 61.660999999999994 42.69499999999999 L 61.660999999999994 39.334999999999994 C 61.660999999999994 39.25299999999999 61.727999999999994 39.18699999999999 61.809 39.18699999999999 L 70.324 39.18699999999999 C 70.40599999999999 39.18699999999999 70.471 39.25299999999999 70.471 39.33399999999999 L 70.471 42.69399999999999 M 12.776000000000003 24.01399999999999 L 12.616000000000003 16.038999999999987 L 12.616000000000003 15.884999999999987 C 12.452000000000004 15.728999999999987 11.424000000000003 15.608999999999988 10.173000000000004 15.606999999999987 L 10.161000000000003 15.606999999999987 C 8.911000000000003 15.608999999999988 7.883000000000003 15.728999999999987 7.7180000000000035 15.884999999999987 L 7.7180000000000035 16.037999999999986 L 7.558000000000003 24.011999999999986 C 7.723000000000003 23.855999999999987 8.912000000000003 23.734999999999985 10.168000000000003 23.733999999999988 C 11.424000000000003 23.733999999999988 12.613000000000003 23.855999999999987 12.778000000000002 24.011999999999986 M 12.953000000000003 39.16299999999998 L 12.673000000000004 26.469999999999985 L 12.673000000000004 26.316999999999986 C 12.513000000000003 26.166999999999987 11.381000000000004 26.048999999999985 10.173000000000004 26.039999999999985 L 10.163000000000004 26.039999999999985 C 8.953 26.05 7.82 26.166 7.66 26.317 L 7.66 26.47 L 7.38 39.163 C 7.54 39.010999999999996 8.937 38.892999999999994 10.167 38.885 C 11.397 38.894999999999996 12.793 39.010999999999996 12.953 39.163 M 53.254000000000005 56.31399999999999 L 58.864000000000004 56.31399999999999 L 58.864000000000004 54.093999999999994 L 53.254000000000005 54.093999999999994 z" stroke-linecap="round" />
</g>
		<g transform="matrix(9.5220182119 0 0 9.5220182119 80.4277344441 177.7665656149)" id="G_2JdWbDek-h-tGkluxSG"  >
<path style="stroke: none; stroke-width: 1; stroke-dasharray: none; stroke-linecap: butt; stroke-dashoffset: 0; stroke-linejoin: miter; stroke-miterlimit: 4; fill: rgb(255,255,255); fill-rule: evenodd; opacity: 1;"  transform=" translate(-49.898, -56.122)" d="M 46.194 55.93 L 53.602000000000004 55.93 L 53.602000000000004 56.314 L 46.194 56.314 L 46.194 55.931 z" stroke-linecap="round" />
</g>
		<g transform="matrix(9.5220182119 0 0 9.5220182119 80.4372564623 75.3667817645)" id="QouurRFKJA5S3JmRRFeMY"  >
<path style="stroke: none; stroke-width: 1; stroke-dasharray: none; stroke-linecap: butt; stroke-dashoffset: 0; stroke-linejoin: miter; stroke-miterlimit: 4; fill: rgb(255,255,255); fill-rule: evenodd; opacity: 1;"  transform=" translate(-49.899, -45.368)" d="M 41.797 56.314 L 41.797 35.55 L 58 35.55 L 58 56.31399999999999 L 59.944 56.31399999999999 L 59.944 34.422 L 39.854 34.422 L 39.854 56.31399999999999 L 41.797 56.31399999999999" stroke-linecap="round" />
</g>
		<g transform="matrix(9.5220182119 0 0 9.5220182119 -35.3028749029 124.6337039927)" id="tPh4Yrvh4AokvPGYbIJUK"  >
<path style="stroke: none; stroke-width: 1; stroke-dasharray: none; stroke-linecap: butt; stroke-dashoffset: 0; stroke-linejoin: miter; stroke-miterlimit: 4; fill: rgb(255,255,255); fill-rule: evenodd; opacity: 1;"  transform=" translate(-37.744, -50.542)" d="M 40.932 56.314 L 46.542 56.314 L 46.542 54.094 L 40.932 54.094 z M 28.946 56.314 L 34.56 56.314 L 34.56 44.77 L 28.946 44.77 z M 30.574 46.019 L 33.582 46.019 L 33.582 55.083999999999996 L 30.574 55.083999999999996 L 30.574 46.02 Z" stroke-linecap="round" />
</g>
		<g transform="matrix(9.5220182119 0 0 9.5220182119 -102.6473487063 124.6337039927)" id="JjsmYIu9U4dCFbirvqEmZ"  >
<path style="stroke: none; stroke-width: 1; stroke-dasharray: none; stroke-linecap: butt; stroke-dashoffset: 0; stroke-linejoin: miter; stroke-miterlimit: 4; fill: rgb(255,255,255); fill-rule: evenodd; opacity: 1;"  transform=" translate(-30.6715, -50.542)" d="M 33.445 56.314 L 37.971000000000004 56.314 L 37.971000000000004 44.77 L 33.446000000000005 44.77 L 33.446000000000005 56.31400000000001 z M 34.423 46.019 L 37.43 46.019 L 37.43 55.083999999999996 L 34.423 55.083999999999996 L 34.423 46.02 Z M 23.372 44.77 L 28.567 44.77 L 28.567 56.31400000000001 L 23.372 56.31400000000001 z" stroke-linecap="round" />
</g>
		<g transform="matrix(9.5220182119 0 0 9.5220182119 -221.3631107627 136.2505662112)" id="nr2Di-1vqdq7G0k5YFfcc"  >
<path style="stroke: none; stroke-width: 1; stroke-dasharray: none; stroke-linecap: butt; stroke-dashoffset: 0; stroke-linejoin: miter; stroke-miterlimit: 4; fill: rgb(255,255,255); fill-rule: evenodd; opacity: 1;"  transform=" translate(-18.204, -51.762)" d="M 13.725 56.314 L 13.725 54.58 C 13.725 54.58 13.685 54.129999999999995 14.215 53.641999999999996 C 14.645 53.29 14.921 53.108999999999995 14.94 53.096999999999994 L 14.94 53.09499999999999 L 14.942 53.09499999999999 L 14.942 53.096999999999994 C 14.96 53.108999999999995 15.237 53.28999999999999 15.668 53.641999999999996 C 16.198 54.132 16.157999999999998 54.58 16.157999999999998 54.58 L 16.157999999999998 56.314 L 16.977999999999998 56.314 L 16.977999999999998 54.58 C 16.977999999999998 54.58 16.935 54.129999999999995 17.464999999999996 53.641999999999996 C 17.894999999999996 53.29 18.174999999999997 53.108999999999995 18.190999999999995 53.096999999999994 L 18.190999999999995 53.09499999999999 L 18.194999999999997 53.09499999999999 L 18.194999999999997 53.096999999999994 C 18.212999999999997 53.108999999999995 18.488999999999997 53.28999999999999 18.921999999999997 53.641999999999996 C 19.451999999999998 54.132 19.411999999999995 54.58 19.411999999999995 54.58 L 19.411999999999995 56.314 L 20.23 56.314 L 20.23 54.58 C 20.23 54.58 20.19 54.129999999999995 20.72 53.641999999999996 C 21.15 53.29 21.427 53.108999999999995 21.445 53.096999999999994 L 21.445 53.09499999999999 L 21.447 53.09499999999999 L 21.447 53.096999999999994 C 21.465 53.108999999999995 21.743 53.28999999999999 22.174 53.641999999999996 C 22.704 54.132 22.662 54.58 22.662 54.58 L 22.662 56.314 L 23.394 56.314 L 23.394 47.21 L 13.013999999999998 47.21 L 13.013999999999998 56.314 L 13.726999999999997 56.314 z M 20.331 50.258 C 20.541 49.998000000000005 20.769 49.874 20.989 49.730000000000004 C 21.246000000000002 49.562000000000005 21.433 49.438 21.453 49.42400000000001 L 21.453 49.422000000000004 L 21.455 49.422000000000004 L 21.455 49.42400000000001 L 21.919999999999998 49.730000000000004 C 22.139999999999997 49.874 22.366999999999997 49.998000000000005 22.575999999999997 50.258 C 22.792999999999996 50.528000000000006 22.795999999999996 50.738 22.795999999999996 50.738 L 22.795999999999996 51.694 L 20.11 51.694 L 20.11 50.738 C 20.11 50.738 20.114 50.528 20.33 50.258 z M 17.081 50.258 C 17.288999999999998 49.998000000000005 17.517 49.874 17.738 49.730000000000004 L 18.201999999999998 49.42400000000001 L 18.201999999999998 49.422000000000004 L 18.206 49.422000000000004 L 18.206 49.42400000000001 L 18.669 49.730000000000004 C 18.889 49.874 19.119 49.998000000000005 19.326 50.258 C 19.543 50.528000000000006 19.546 50.738 19.546 50.738 L 19.546 51.694 L 16.86 51.694 L 16.86 50.738 C 16.86 50.738 16.863 50.528 17.08 50.258 z M 13.829 50.258 C 14.039000000000001 49.998000000000005 14.265 49.874 14.486 49.730000000000004 L 14.950000000000001 49.42400000000001 L 14.950000000000001 49.422000000000004 L 14.952000000000002 49.422000000000004 L 14.952000000000002 49.42400000000001 L 15.415000000000001 49.730000000000004 C 15.635000000000002 49.874 15.865 49.998000000000005 16.072000000000003 50.258 C 16.289 50.528000000000006 16.292 50.738 16.292 50.738 L 16.292 51.694 L 13.608 51.694 L 13.608 50.738 C 13.608 50.738 13.610000000000001 50.528 13.828000000000001 50.258 z" stroke-linecap="round" />
</g>
		<g transform="matrix(9.5220182119 0 0 9.5220182119 0.0000076176 158.4178246084)" id="sIJ1QyB_hh6gOC4iKSSHi"  >
<path style="stroke: none; stroke-width: 1; stroke-dasharray: none; stroke-linecap: butt; stroke-dashoffset: 0; stroke-linejoin: miter; stroke-miterlimit: 4; fill: rgb(255,255,255); fill-rule: evenodd; opacity: 1;"  transform=" translate(-41.4515, -54.09)" d="M 13.237 56.314 L 12.967 41.944 L 12.967 41.792 C 12.807 41.642 11.381 41.524 10.172 41.515 L 10.162 41.515 C 8.952000000000002 41.525 7.526000000000001 41.641 7.366000000000001 41.792 L 7.366000000000001 41.945 L 7.098000000000002 56.315 L 13.238000000000001 56.315 M 39.254 33.83 L 60.544 33.83 L 60.544 56.314 L 61.059 56.314 L 61.059 33.304 L 38.737 33.304 L 38.737 56.31400000000001 L 39.253 56.31400000000001 L 39.253 33.83 M 61.827 56.314 L 66.352 56.314 L 66.352 44.77 L 61.827000000000005 44.77 z M 62.367 46.019 L 65.374 46.019 L 65.374 55.083999999999996 L 62.367 55.083999999999996 L 62.367 46.02 Z M 71.23 44.77 L 76.42500000000001 44.77 L 76.42500000000001 56.314 L 71.23 56.314 Z M 1.855000000000004 69.906 L 3.485000000000004 68.128 L 1.785000000000004 66.273 L 0.15500000000000402 68.051 L 1.855000000000004 69.907 M 81.12 69.90599999999999 L 82.748 68.12799999999999 L 81.048 66.27299999999998 L 79.42 68.05099999999999 L 81.12 69.90699999999998 M 15.447000000000003 72.46399999999998 C 15.527000000000003 72.66099999999999 15.611000000000002 72.85799999999999 15.701000000000002 73.04999999999998 C 15.749000000000002 73.14999999999998 15.804000000000002 73.26699999999998 15.865000000000002 73.35799999999999 C 15.945000000000002 73.47399999999999 16.173000000000002 73.54799999999999 16.298000000000002 73.58299999999998 L 16.498 73.63699999999999 L 16.498 74.28499999999998 L 12.12 74.28499999999998 L 12.12 73.63 L 12.327 73.58 C 12.817 73.465 12.954 73.102 12.954 72.615 C 12.954 72.05999999999999 12.700000000000001 71.535 12.394 71.095 C 11.979000000000001 70.502 11.427 70.053 10.807 69.712 C 10.163 69.357 9.469000000000001 69.178 8.747 69.138 L 7.84 71.748 C 7.724 72.083 7.582 72.53800000000001 7.582 72.89800000000001 C 7.582 73.07800000000002 7.6339999999999995 73.22800000000001 7.762 73.35000000000001 C 7.906999999999999 73.486 8.075 73.554 8.269 73.575 L 8.506 73.60300000000001 L 8.506 74.28500000000001 L 4.526 74.28500000000001 L 4.526 73.632 L 4.732 73.58200000000001 C 4.875 73.546 5.049 73.492 5.175 73.412 C 5.285 73.34200000000001 5.379 73.232 5.451 73.128 C 5.755 72.672 5.991 72.071 6.178999999999999 71.555 L 8.905999999999999 64.075 C 8.953 63.951 8.998 63.825 9.038999999999998 63.705000000000005 C 9.068999999999997 63.61000000000001 9.096999999999998 63.513000000000005 9.115999999999998 63.415000000000006 L 9.115999999999998 63.40800000000001 C 9.135999999999997 63.32500000000001 9.145999999999997 63.24000000000001 9.145999999999997 63.15500000000001 C 9.145999999999997 63.08500000000001 9.130999999999997 63.031000000000006 9.082999999999997 62.98300000000001 C 9.017999999999997 62.91800000000001 8.928999999999997 62.88600000000001 8.842999999999996 62.87300000000001 L 8.616999999999996 62.83300000000001 L 8.616999999999996 62.155000000000015 L 12.909999999999997 62.155000000000015 L 12.909999999999997 62.811000000000014 L 12.711999999999996 62.86700000000001 C 12.514999999999997 62.921000000000014 12.414999999999996 63.01400000000001 12.414999999999996 63.23200000000001 C 12.414999999999996 63.402000000000015 12.500999999999996 63.66200000000001 12.554999999999996 63.81800000000001 L 15.446999999999996 72.46600000000001 z M 10.344 64.567 L 9.2 67.71 C 9.745999999999999 67.747 10.28 67.868 10.796 68.07199999999999 C 11.106 68.195 11.398 68.347 11.671 68.53199999999998 L 10.345 64.567 Z M 24.02 63.58 L 23.2 63.537 L 23.194 63.537 C 23.147 63.531 23.099 63.525 23.052 63.523 C 22.996 63.52 22.939 63.52 22.884 63.52 C 22.318 63.52 21.756 63.602000000000004 21.221 63.795 C 20.717 63.977000000000004 20.275 64.267 19.895 64.657 C 19.49 65.072 19.205 65.572 19.009 66.127 L 18.929000000000002 66.35499999999999 L 18.286 66.20499999999998 L 19.334000000000003 61.594999999999985 L 19.676000000000002 62.03499999999998 C 19.713 62.08499999999998 19.779000000000003 62.10499999999998 19.834000000000003 62.11499999999998 L 19.840000000000003 62.11699999999998 C 20.015000000000004 62.15399999999998 20.238000000000003 62.15499999999998 20.417 62.15499999999998 L 27.667 62.15499999999998 L 21.060000000000002 72.87799999999999 L 21.857000000000003 72.91999999999999 C 21.925000000000004 72.91999999999999 21.993000000000002 72.92299999999999 22.062 72.92599999999999 L 22.217000000000002 72.93799999999999 C 22.912000000000003 72.93599999999999 23.597 72.82499999999999 24.251 72.582 C 24.891000000000002 72.344 25.466 71.99199999999999 25.973000000000003 71.52199999999999 C 26.493000000000002 71.03999999999999 26.900000000000002 70.46199999999999 27.205000000000002 69.80999999999999 L 27.305000000000003 69.59799999999998 L 27.958000000000002 69.80399999999999 L 26.021 74.87599999999999 L 25.746000000000002 74.37599999999999 C 25.726000000000003 74.34599999999999 25.698000000000004 74.32999999999998 25.663000000000004 74.323 L 25.657 74.321 C 25.509 74.285 25.285 74.286 25.133 74.286 L 17.46 74.286 L 24.02 63.581 M 38.93 72.464 C 39.01 72.661 39.095 72.858 39.185 73.05 C 39.231 73.14999999999999 39.285000000000004 73.267 39.347 73.358 C 39.427 73.474 39.655 73.548 39.779 73.583 L 39.979000000000006 73.637 L 39.979000000000006 74.285 L 35.602 74.285 L 35.602 73.63 L 35.809999999999995 73.58 C 36.3 73.465 36.437 73.102 36.437 72.615 C 36.437 72.05999999999999 36.183 71.535 35.876999999999995 71.095 C 35.462999999999994 70.502 34.91 70.053 34.28999999999999 69.712 C 33.645999999999994 69.357 32.95199999999999 69.178 32.22999999999999 69.138 L 31.32299999999999 71.748 C 31.20599999999999 72.083 31.06599999999999 72.53800000000001 31.06599999999999 72.89800000000001 C 31.06599999999999 73.07800000000002 31.11599999999999 73.22800000000001 31.245999999999988 73.35000000000001 C 31.389999999999986 73.486 31.558999999999987 73.554 31.75199999999999 73.575 L 31.989999999999988 73.60300000000001 L 31.989999999999988 74.28500000000001 L 28.009999999999987 74.28500000000001 L 28.009999999999987 73.632 L 28.216999999999988 73.58200000000001 C 28.358999999999988 73.546 28.53399999999999 73.492 28.65999999999999 73.412 C 28.76999999999999 73.34200000000001 28.86299999999999 73.232 28.934999999999988 73.128 C 29.238999999999987 72.672 29.474999999999987 72.071 29.66299999999999 71.555 L 32.39099999999999 64.075 C 32.43899999999999 63.951 32.483999999999995 63.825 32.523999999999994 63.705000000000005 C 32.553999999999995 63.61000000000001 32.581999999999994 63.513000000000005 32.60099999999999 63.415000000000006 L 32.60099999999999 63.40800000000001 C 32.620999999999995 63.32500000000001 32.63099999999999 63.24000000000001 32.63099999999999 63.15500000000001 C 32.63099999999999 63.08500000000001 32.61599999999999 63.031000000000006 32.568999999999996 62.98300000000001 C 32.50299999999999 62.91800000000001 32.41499999999999 62.88600000000001 32.327 62.87300000000001 L 32.103 62.83300000000001 L 32.103 62.155000000000015 L 36.395 62.155000000000015 L 36.395 62.811000000000014 L 36.195 62.86700000000001 C 35.999 62.921000000000014 35.898 63.01400000000001 35.898 63.23200000000001 C 35.898 63.402000000000015 35.986000000000004 63.66200000000001 36.041000000000004 63.81800000000001 L 38.931000000000004 72.46600000000001 z M 33.827 64.567 L 32.683 67.70899999999999 C 33.23 67.746 33.763 67.86699999999999 34.278999999999996 68.07099999999998 C 34.589 68.19399999999999 34.88099999999999 68.34599999999999 35.153 68.53099999999998 L 33.826 64.56599999999997 z M 48.407 71.21 L 43.56999999999999 64.42999999999999 L 43.56999999999999 71.70599999999999 C 43.56999999999999 72.15299999999999 43.592999999999996 72.71199999999999 43.71999999999999 73.136 C 43.81399999999999 73.449 44.06999999999999 73.54599999999999 44.32799999999999 73.576 L 44.54099999999999 73.6 L 44.54099999999999 74.285 L 40.66 74.285 L 40.66 73.61099999999999 L 40.861999999999995 73.57799999999999 C 41.096999999999994 73.53799999999998 41.38699999999999 73.44099999999999 41.48199999999999 73.15499999999999 C 41.611999999999995 72.77499999999999 41.63199999999999 72.23099999999998 41.63199999999999 71.82699999999998 L 41.63199999999999 64.74399999999999 C 41.63199999999999 64.41199999999999 41.62499999999999 64.05899999999998 41.581999999999994 63.72999999999998 C 41.556999999999995 63.51499999999998 41.48899999999999 63.319999999999986 41.373999999999995 63.152999999999984 C 41.254 62.975999999999985 41.047 62.902999999999984 40.864 62.87299999999998 L 40.66 62.839 L 40.66 62.153999999999996 L 45.556 62.153999999999996 L 45.556 62.858 L 44.858 62.861999999999995 L 48.643 68.24199999999999 L 48.643 64.74 C 48.643 64.3 48.625 63.714999999999996 48.493 63.3 C 48.393 62.992 48.111000000000004 62.903 47.859 62.873999999999995 L 47.645 62.85 L 47.645 62.155 L 51.55500000000001 62.155 L 51.55500000000001 62.841 L 51.351000000000006 62.874 C 51.10900000000001 62.912 50.82900000000001 63.009 50.733000000000004 63.304 C 50.607000000000006 63.687000000000005 50.585 64.20700000000001 50.585 64.614 L 50.585 71.70700000000001 C 50.585 72.14500000000001 50.607 72.694 50.737 73.10900000000001 C 50.834 73.41900000000001 51.094 73.53300000000002 51.354 73.57900000000001 L 51.557 73.61300000000001 L 51.557 74.28600000000002 L 47.647000000000006 74.28600000000002 L 47.647000000000006 73.60300000000001 L 47.857000000000006 73.57600000000001 C 48.037000000000006 73.55300000000001 48.25000000000001 73.49100000000001 48.379000000000005 73.32600000000001 C 48.495000000000005 73.17800000000001 48.611000000000004 73.00600000000001 48.639 72.80600000000001 L 48.641000000000005 72.06600000000002 C 48.641000000000005 71.72600000000001 48.56100000000001 71.38000000000001 48.41100000000001 71.21000000000002 M 52.37500000000001 73.33700000000002 C 52.37500000000001 73.08400000000002 52.458000000000006 72.85700000000001 52.641000000000005 72.67000000000002 C 52.827000000000005 72.48000000000002 53.06400000000001 72.39000000000001 53.336000000000006 72.39000000000001 C 53.599000000000004 72.39000000000001 53.82300000000001 72.48700000000001 53.99300000000001 72.67500000000001 C 54.156000000000006 72.85500000000002 54.23800000000001 73.06800000000001 54.23800000000001 73.305 C 54.23800000000001 73.55300000000001 54.148 73.775 53.97800000000001 73.962 C 53.80000000000001 74.155 53.574000000000005 74.262 53.30200000000001 74.262 C 53.03900000000001 74.262 52.81700000000001 74.159 52.64200000000001 73.976 C 52.46900000000001 73.79599999999999 52.37700000000001 73.58 52.37700000000001 73.336 M 58.44800000000001 66.17999999999999 L 59.46500000000001 65.333 C 59.78000000000001 65.071 60.08900000000001 64.8 60.39200000000001 64.523 C 60.70600000000001 64.235 61.00900000000001 63.931 61.28800000000001 63.605999999999995 C 61.38600000000001 63.49099999999999 61.63400000000001 63.181999999999995 61.63400000000001 63.01599999999999 C 61.63400000000001 62.99899999999999 61.632000000000005 62.95399999999999 61.62400000000001 62.93299999999999 C 61.56900000000001 62.898999999999994 61.47100000000001 62.88099999999999 61.41400000000001 62.87299999999999 L 61.18100000000001 62.84299999999999 L 61.18100000000001 62.15499999999999 L 65.78600000000002 62.15499999999999 L 65.78600000000002 62.86199999999999 L 65.53300000000002 62.874999999999986 C 65.17100000000002 62.89499999999999 64.82300000000002 62.97999999999998 64.49300000000001 63.12999999999999 C 64.183 63.26999999999999 63.88100000000001 63.43999999999999 63.60900000000001 63.64799999999999 C 63.23900000000001 63.929999999999986 62.87900000000001 64.231 62.52700000000001 64.53499999999998 L 61.49400000000001 65.42699999999998 C 61.98100000000001 65.92699999999998 62.43600000000001 66.45699999999998 62.846000000000004 67.02699999999997 C 63.306000000000004 67.66299999999997 63.716 68.33299999999997 64.07600000000001 69.03299999999997 C 64.45200000000001 69.75699999999998 64.78200000000001 70.50499999999997 65.07300000000001 71.26499999999997 L 65.39500000000001 72.07499999999997 L 65.39500000000001 72.07699999999997 C 65.501 72.35699999999997 65.61000000000001 72.64299999999997 65.73500000000001 72.91399999999997 C 65.81200000000001 73.07999999999997 65.92200000000001 73.22899999999997 66.04700000000001 73.35899999999997 L 66.05000000000001 73.36199999999997 C 66.165 73.48599999999996 66.30300000000001 73.55399999999996 66.46800000000002 73.57499999999996 L 66.70200000000001 73.60499999999996 L 66.70200000000001 74.28499999999997 L 62.442000000000014 74.28499999999997 L 62.442000000000014 73.61499999999997 L 62.667000000000016 73.57699999999997 C 62.914000000000016 73.53399999999996 63.03700000000001 73.43199999999997 63.03700000000001 73.16499999999996 C 63.03700000000001 72.67499999999997 62.84000000000001 72.07699999999997 62.667000000000016 71.62699999999997 C 62.427000000000014 71.01099999999997 62.15700000000002 70.40699999999997 61.83700000000002 69.83299999999997 C 61.25500000000002 68.78999999999996 60.53100000000002 67.81599999999997 59.76000000000002 66.91299999999997 L 58.448 68 L 58.448 71.706 C 58.448 72.153 58.473 72.712 58.618 73.13600000000001 C 58.724000000000004 73.44900000000001 59.013000000000005 73.546 59.306000000000004 73.57600000000001 L 59.54600000000001 73.60000000000001 L 59.54600000000001 74.28500000000001 L 54.953 74.28500000000001 L 54.953 73.61500000000001 L 55.179 73.57700000000001 C 55.382000000000005 73.54400000000001 55.626000000000005 73.47100000000002 55.767 73.30100000000002 C 55.891000000000005 73.15100000000001 55.967000000000006 72.97900000000001 55.997 72.78300000000002 C 56.047 72.47500000000001 56.052 72.13900000000001 56.052 71.82700000000001 L 56.052 64.74400000000001 C 56.052 64.30700000000002 56.028 63.74800000000001 55.882 63.33400000000002 C 55.772 63.024000000000015 55.47 62.917000000000016 55.181999999999995 62.87400000000002 L 54.952 62.83900000000002 L 54.952 62.15600000000002 L 59.546 62.15600000000002 L 59.546 62.85300000000002 L 59.302 62.87500000000002 C 59.034 62.90000000000002 58.722 62.97800000000002 58.615 63.267000000000024 C 58.47 63.657000000000025 58.447 64.20100000000002 58.447 64.61500000000002 L 58.447 66.18000000000002 M 74.436 63.58000000000002 L 73.61600000000001 63.53700000000002 L 73.608 63.53700000000002 C 73.561 63.531 73.514 63.525 73.466 63.523 C 73.41 63.52 73.354 63.52 73.298 63.52 C 72.732 63.52 72.171 63.602000000000004 71.635 63.795 C 71.131 63.977000000000004 70.68900000000001 64.267 70.30900000000001 64.657 C 69.90200000000002 65.072 69.61600000000001 65.572 69.421 66.127 L 69.34100000000001 66.35499999999999 L 68.69800000000001 66.20499999999998 L 69.745 61.594999999999985 L 70.087 62.03499999999998 C 70.123 62.08499999999998 70.18900000000001 62.10499999999998 70.244 62.11499999999998 L 70.25 62.11699999999998 C 70.426 62.15399999999998 70.65 62.15499999999998 70.828 62.15499999999998 L 78.078 62.15499999999998 L 71.474 72.87799999999999 L 72.271 72.91999999999999 C 72.341 72.91999999999999 72.408 72.92299999999999 72.477 72.92599999999999 L 72.631 72.93799999999999 C 73.326 72.93599999999999 74.011 72.82499999999999 74.666 72.582 C 75.304 72.344 75.87899999999999 71.99199999999999 76.386 71.52199999999999 C 76.90599999999999 71.03999999999999 77.313 70.46199999999999 77.618 69.80999999999999 L 77.71799999999999 69.59799999999998 L 78.37199999999999 69.80399999999999 L 76.43399999999998 74.87599999999999 L 76.15799999999999 74.37599999999999 C 76.14 74.346 76.11 74.33 76.075 74.323 L 76.068 74.321 C 75.92099999999999 74.285 75.698 74.286 75.54599999999999 74.286 L 67.871 74.286 L 74.431 63.581" stroke-linecap="round" />
</g>
</g>
</g>
</svg>