<?xml version="1.0" encoding="UTF-8" standalone="no"?>
<svg
   xmlns:sketch="http://www.bohemiancoding.com/sketch/ns"
   xmlns:dc="http://purl.org/dc/elements/1.1/"
   xmlns:cc="http://creativecommons.org/ns#"
   xmlns:rdf="http://www.w3.org/1999/02/22-rdf-syntax-ns#"
   xmlns:svg="http://www.w3.org/2000/svg"
   xmlns="http://www.w3.org/2000/svg"
   xmlns:sodipodi="http://sodipodi.sourceforge.net/DTD/sodipodi-0.dtd"
   xmlns:inkscape="http://www.inkscape.org/namespaces/inkscape"
   width="83px"
   height="75px"
   viewBox="0 0 83 75"
   version="1.1"
   id="svg119"
   sodipodi:docname="logo.svg"
   inkscape:version="0.92.3 (2405546, 2018-03-11)"
   inkscape:export-filename="/home/yerzhan/projects/askimam/design/logo.png"
   inkscape:export-xdpi="656.7002"
   inkscape:export-ydpi="656.7002">
  <metadata
     id="metadata123">
    <rdf:RDF>
      <cc:Work
         rdf:about="">
        <dc:format>image/svg+xml</dc:format>
        <dc:type
           rdf:resource="http://purl.org/dc/dcmitype/StillImage" />
        <dc:title>logo</dc:title>
      </cc:Work>
    </rdf:RDF>
  </metadata>
  <sodipodi:namedview
     pagecolor="#ffffff"
     bordercolor="#666666"
     borderopacity="1"
     objecttolerance="10"
     gridtolerance="10"
     guidetolerance="10"
     inkscape:pageopacity="0"
     inkscape:pageshadow="2"
     inkscape:window-width="1920"
     inkscape:window-height="1025"
     id="namedview121"
     showgrid="false"
     inkscape:zoom="3.1466667"
     inkscape:cx="-48.754238"
     inkscape:cy="24.788136"
     inkscape:window-x="1920"
     inkscape:window-y="27"
     inkscape:window-maximized="1"
     inkscape:current-layer="svg119" />
  <!-- Generator: Sketch 3.4.4 (17249) - http://www.bohemiancoding.com/sketch -->
  <title
     id="title2">logo</title>
  <desc
     id="desc4">Created with Sketch.</desc>
  <defs
     id="defs6" />
  <rect
     style="fill:#ffffff;fill-opacity:1;stroke-width:0.96077365"
     id="rect924"
     width="70"
     height="70"
     x="7.2957802"
     y="1.9726249"
     inkscape:export-xdpi="702.16998"
     inkscape:export-ydpi="702.16998" />
  <g
     id="books"
     sketch:type="MSPage"
     style="fill:#0f9ddb;fill-opacity:1;fill-rule:evenodd;stroke:none;stroke-width:1"
     transform="matrix(0.6383105,0,0,0.6383105,15.836759,13.066532)"
     inkscape:export-xdpi="702.16998"
     inkscape:export-ydpi="702.16998">
    <g
       id="books_koran_sura"
       sketch:type="MSArtboardGroup"
       transform="translate(-28,-10)"
       style="fill:#0f9ddb;fill-opacity:1">
      <g
         id="header_logged_out_menu"
         sketch:type="MSLayerGroup"
         style="fill:#0f9ddb;fill-opacity:1">
        <g
           id="logo"
           transform="translate(28,10)"
           sketch:type="MSShapeGroup"
           style="fill:#0f9ddb;fill-opacity:1">
          <path
             d="m 10.168642,0.82232143 v -0.004974 7.6531e-4 l -7.61e-4,-7.6531e-4 v 0.001148 0.003827 C 9.806945,1.3010204 7.5442431,1.7070153 7.9729495,4.3970663 8.5931651,4.2440051 9.3816651,4.1640306 10.168642,4.1632653 c 0.786216,7.653e-4 1.574335,0.08074 2.194931,0.233801 0.428326,-2.690051 -1.833614,-3.0960459 -2.194931,-3.57474487"
             id="Fill-1"
             style="fill:#0f9ddb;fill-opacity:1"
             inkscape:connector-curvature="0" />
          <path
             d="m 49.902798,12.654337 h -0.0061 c -2.049871,2.113775 -14.896215,3.909566 -12.462944,15.798597 3.457825,-0.495153 7.998839,-0.749618 12.46599,-0.753062 4.467913,0.0034 8.943821,0.257909 12.466753,0.753062 C 64.800156,16.563903 51.953431,14.768112 49.902798,12.654337"
             id="Fill-2"
             style="fill:#0f9ddb;fill-opacity:1"
             inkscape:connector-curvature="0" />
          <path
             d="m 25.976335,23.901275 v -0.005 l -7.62e-4,7.65e-4 v -7.65e-4 0.005 c -0.308775,0.406378 -2.241,0.751531 -1.875114,3.0375 0.529981,-0.130484 1.203119,-0.197831 1.875114,-0.198596 0.672376,7.65e-4 1.345514,0.06811 1.875496,0.198596 0.365885,-2.285969 -1.56634,-2.631122 -1.874734,-3.0375"
             id="Fill-3"
             style="fill:#0f9ddb;fill-opacity:1"
             inkscape:connector-curvature="0" />
          <path
             d="m 30.991743,30.275893 v -0.0031 3.82e-4 l -3.81e-4,-3.82e-4 v 0.0031 c -0.197601,0.260969 -1.436128,0.48176 -1.201977,1.947321 0.339996,-0.08342 0.771748,-0.127041 1.202358,-0.127423 0.430991,3.82e-4 0.862362,0.044 1.202358,0.127423 0.234532,-1.465561 -1.004376,-1.686352 -1.202358,-1.947321"
             id="Fill-4"
             style="fill:#0f9ddb;fill-opacity:1"
             inkscape:connector-curvature="0" />
          <path
             d="m 73.82355,23.901275 v -0.005 l 7.62e-4,7.65e-4 7.61e-4,-7.65e-4 v 0.005 c 0.308014,0.406378 2.24062,0.751531 1.874734,3.0375 -0.529601,-0.130484 -1.2035,-0.197831 -1.875495,-0.198596 -0.671996,7.65e-4 -1.345514,0.06811 -1.875115,0.198596 -0.365885,-2.285969 1.56634,-2.631122 1.874353,-3.0375"
             id="Fill-5"
             style="fill:#0f9ddb;fill-opacity:1"
             inkscape:connector-curvature="0" />
          <path
             d="m 68.808523,30.275893 v -0.0031 3.82e-4 l 3.81e-4,-3.82e-4 v 0.0031 c 0.197601,0.260969 1.436509,0.48176 1.201596,1.947321 -0.339234,-0.08342 -0.771367,-0.127041 -1.201977,-0.127423 -0.43061,3.82e-4 -0.862743,0.044 -1.201977,0.127423 -0.234913,-1.465561 1.004757,-1.686352 1.201977,-1.947321"
             id="Fill-6"
             style="fill:#0f9ddb;fill-opacity:1"
             inkscape:connector-curvature="0" />
          <path
             id="Fill-7"
             d="m 49.857491,11.000128 h 0.09214 v 1.75102 h -0.09214 z"
             style="fill:#0f9ddb;fill-opacity:1"
             inkscape:connector-curvature="0" />
          <path
             d="m 49.568133,12.23074 c 0,0.185587 0.15039,0.335969 0.335427,0.335969 0.184656,0 0.334284,-0.150382 0.334284,-0.335969 0,-0.18597 -0.149628,-0.336735 -0.334284,-0.336735 -0.185037,0 -0.335427,0.150765 -0.335427,0.336735"
             id="Fill-8"
             style="fill:#0f9ddb;fill-opacity:1"
             inkscape:connector-curvature="0" />
          <path
             id="Fill-9"
             d="m 49.697202,11.475 c 0,0.114031 0.09214,0.207015 0.206358,0.207015 0.113839,0 0.205596,-0.09298 0.205596,-0.207015 0,-0.114413 -0.09176,-0.207398 -0.205596,-0.207398 -0.114221,0 -0.206358,0.09299 -0.206358,0.207398"
             style="fill:#0f9ddb;fill-opacity:1"
             inkscape:connector-curvature="0" />
          <path
             d="m 50.185303,9.4190051 c 0.122215,0.1377551 0.199504,0.3172194 0.199504,0.5173469 0,0.429719 -0.347229,0.778316 -0.775555,0.778316 -0.256234,0 -0.48239,-0.127423 -0.623642,-0.321046 0.09671,0.364286 0.424138,0.634057 0.816674,0.634057 0.468684,0 0.848276,-0.381123 0.848276,-0.852169 0,-0.3313773 -0.190748,-0.6156886 -0.465257,-0.7565049"
             id="Fill-10"
             style="fill:#0f9ddb;fill-opacity:1"
             inkscape:connector-curvature="0" />
          <path
             d="m 23.212206,27.709821 c 0,0.06237 0.03008,0.122832 0.08148,0.180613 0.294308,-0.304592 1.380542,-0.530357 2.678845,-0.530357 1.298302,0 2.384536,0.225765 2.679224,0.530357 0.0514,-0.05778 0.08148,-0.11824 0.08148,-0.180613 0,-0.41977 -1.235862,-0.759566 -2.760701,-0.759566 -1.52484,0 -2.760322,0.339796 -2.760322,0.759566"
             id="Fill-11"
             style="fill:#0f9ddb;fill-opacity:1"
             inkscape:connector-curvature="0" />
          <path
             d="m 49.898229,30.991454 c -5.761266,3.83e-4 -9.758211,0.101403 -12.021293,0.178316 v 25.162883 h 0.481628 V 32.626148 h 23.079711 v 23.706505 h 0.481629 V 31.16977 C 59.657583,31.09286 55.660257,30.991837 49.898229,30.991454"
             id="Fill-12"
             style="fill:#0f9ddb;fill-opacity:1"
             inkscape:connector-curvature="0" />
          <path
             d="m 43.306202,36.459949 v 17.642602 h 0.775936 v -16.77551 h 11.632945 v 16.77551 h 0.776316 V 36.459949 H 43.306202"
             id="Fill-13"
             style="fill:#0f9ddb;fill-opacity:1"
             inkscape:connector-curvature="0" />
          <path
             d="m 53.591349,44.486862 -0.003,9.320663 h 1.489431 l 0.05597,-9.423979 c -0.436321,-0.0375 -1.039023,-0.04592 -1.542353,0.103316"
             id="Fill-14"
             style="fill:#0f9ddb;fill-opacity:1"
             inkscape:connector-curvature="0" />
          <path
             d="m 55.135605,44.114158 0.0065,-1.204209 c -0.436321,-0.0375 -1.043592,-0.04821 -1.549968,0.101786 l -7.61e-4,1.199617 c 0.499523,-0.16875 1.144105,-0.140434 1.544256,-0.09719"
             id="Fill-15"
             style="fill:#0f9ddb;fill-opacity:1"
             inkscape:connector-curvature="0" />
          <path
             d="m 46.205872,44.486862 0.003,9.320663 h -1.489431 l -0.05559,-9.423979 c 0.436321,-0.0375 1.038642,-0.04592 1.541973,0.103316"
             id="Fill-16"
             style="fill:#0f9ddb;fill-opacity:1"
             inkscape:connector-curvature="0" />
          <path
             d="m 44.661615,44.114158 -0.0065,-1.204209 c 0.436702,-0.0375 1.043592,-0.04821 1.550349,0.101786 v 1.199617 c -0.499142,-0.16875 -1.143344,-0.140434 -1.543876,-0.09719"
             id="Fill-17"
             style="fill:#0f9ddb;fill-opacity:1"
             inkscape:connector-curvature="0" />
          <path
             d="m 52.448766,38.621939 c -0.925945,-0.559822 -2.545968,-1.179337 -2.545968,-1.179337 h -0.0084 c 0,0 -1.620023,0.619515 -2.545587,1.179337 -3.026835,1.830612 -2.695216,3.948597 -2.695216,3.948597 0.399009,-0.04324 1.048542,-0.07309 1.551872,0.09681 v -0.08304 c 0,0 0.008,-0.662755 0.605367,-1.511097 0.574147,-0.816964 1.201596,-1.207653 1.808867,-1.664923 0.705119,-0.529975 1.21911,-0.917602 1.275459,-0.959694 v -0.0065 l 7.61e-4,3.83e-4 v 0.0011 l 0.0015,0.0011 7.61e-4,-7.65e-4 0.0015,0.0011 0.0015,-0.0015 v -0.0011 l 3.81e-4,-3.83e-4 v 0.0065 c 0.05673,0.04209 0.571101,0.429719 1.275839,0.959694 0.607652,0.45727 1.235101,0.847959 1.809248,1.664923 0.59661,0.848342 0.605367,1.511097 0.605367,1.511097 v 0.08304 c 0.50333,-0.169898 1.152863,-0.140051 1.552252,-0.09681 0,0 0.330477,-2.117985 -2.695596,-3.948597"
             id="Fill-18"
             style="fill:#0f9ddb;fill-opacity:1"
             inkscape:connector-curvature="0" />
          <path
             d="m 51.127238,50.195663 c -0.228821,-0.276275 -0.478201,-0.408291 -0.719587,-0.5625 -0.28022,-0.179847 -0.484674,-0.310714 -0.507137,-0.32449 v -0.0019 l -0.0023,3.83e-4 -0.0015,-3.83e-4 v 0.0019 c -0.02208,0.01378 -0.226917,0.144643 -0.507137,0.32449 -0.241385,0.154209 -0.491147,0.286225 -0.718826,0.5625 -0.237578,0.28699 -0.241005,0.509311 -0.241005,0.509311 l 3.81e-4,0.277041 h 2.937363 v -0.277041 c 0,0 -0.0034,-0.222321 -0.240244,-0.509311"
             id="Fill-19"
             style="fill:#0f9ddb;fill-opacity:1"
             inkscape:connector-curvature="0" />
          <path
             d="m 51.367482,51.370408 h -2.937363 l -3.81e-4,4.93125 h 2.937744 v -4.93125"
             id="Fill-20"
             style="fill:#0f9ddb;fill-opacity:1"
             inkscape:connector-curvature="0" />
          <path
             d="m 53.383087,43.043495 c -0.779743,0.388775 -2.046445,0.64324 -3.484858,0.647449 -1.43727,-0.0042 -2.704353,-0.258674 -3.484477,-0.647449 v 1.209949 c 0.791927,0.377296 2.052918,0.622576 3.479147,0.627168 v 3.83e-4 h 0.01142 v -3.83e-4 c 1.426991,-0.0046 2.68684,-0.249872 3.478766,-0.627168 v -1.209949"
             id="Fill-21"
             style="fill:#0f9ddb;fill-opacity:1"
             inkscape:connector-curvature="0" />
          <path
             id="Fill-22"
             d="m 10.114578,0.50318878 h 0.10356 V 0.9130102 h -0.10356 z"
             style="fill:#0f9ddb;fill-opacity:1"
             inkscape:connector-curvature="0" />
          <path
             id="Fill-23"
             d="m 10.140849,0.02869898 h 0.0514 v 0.15841837 h -0.0514 z"
             style="fill:#0f9ddb;fill-opacity:1"
             inkscape:connector-curvature="0" />
          <path
             id="Fill-24"
             d="m 10.004165,0.34515306 c 0,0.0581633 0.05254,0.10561225 0.117266,0.10561225 h 0.09062 c 0.06472,0 0.116885,-0.047449 0.116885,-0.10561225 0,-0.0581633 -0.05216,-0.10561224 -0.116885,-0.10561224 h -0.09062 c -0.06472,0 -0.117266,0.047449 -0.117266,0.10561224"
             style="fill:#0f9ddb;fill-opacity:1"
             inkscape:connector-curvature="0" />
          <path
             d="m 13.85567,13.089796 c 0,-0.484056 -1.651624,-0.876276 -3.688551,-0.876276 -2.0380685,0 -3.6889309,0.39222 -3.6889309,0.876276 0,0.07194 0.039216,0.141582 0.1088899,0.208163 0.3932981,-0.350893 1.8446559,-0.611862 3.580041,-0.611862 1.734624,0 3.185982,0.260969 3.57928,0.611862 0.06929,-0.06658 0.109271,-0.136224 0.109271,-0.208163"
             id="Fill-25"
             style="fill:#0f9ddb;fill-opacity:1"
             inkscape:connector-curvature="0" />
          <path
             d="m 12.71994,15.428571 v -0.91875 c -0.172472,-0.161097 -1.240812,-0.285076 -2.535688,-0.285076 l -0.01713,3.83e-4 -0.01751,-3.83e-4 c -1.2952574,0 -2.3632161,0.123979 -2.5356886,0.285076 v 0.985715 C 7.7841055,15.334439 8.852445,15.210077 10.149606,15.210077 l 0.01409,3.82e-4 h 0.0057 l 0.01485,-3.82e-4 c 1.29678,0 2.3655,0.124362 2.535688,0.285459 v -0.06696"
             id="Fill-26"
             style="fill:#0f9ddb;fill-opacity:1"
             inkscape:connector-curvature="0" />
          <path
             d="m 6.9343073,5.3047194 c 0,0.073087 0.03617,0.1442602 0.096326,0.2119898 C 7.375959,5.1589286 8.6472297,4.892602 10.167119,4.892602 c 1.519509,0 2.79078,0.2663266 3.136106,0.6241072 0.06054,-0.06773 0.09556,-0.1389031 0.09556,-0.2119898 0,-0.4943878 -1.446789,-0.8942602 -3.23167,-0.8942602 -1.7848802,0 -3.2328114,0.3998724 -3.2328114,0.8942602"
             id="Fill-27"
             style="fill:#0f9ddb;fill-opacity:1"
             inkscape:connector-curvature="0" />
          <path
             d="m 10.167119,6.703699 c -1.2533759,0 -2.2691741,0.1943877 -2.2691741,0.4335459 v 4.9875001 c 0.6628579,-0.120153 1.4677294,-0.182143 2.2691741,-0.182143 0.799542,0 1.603271,0.06199 2.265367,0.182143 V 7.1487245 l 0.003,-0.01148 c 0,-0.2391582 -1.015417,-0.4335459 -2.268413,-0.4335459 z M 8.3928991,7.463648 v 4.268495 c -0.082619,0.0092 -0.1625734,0.01875 -0.2417661,0.02908 V 7.4594388 h 7.615e-4 C 8.1557018,7.3737245 8.2691606,7.311352 8.2714449,7.3090561 h 0.00152 c 0.00228,0.0023 0.1157431,0.064668 0.1199312,0.1503827 v 3.826e-4 l 3.807e-4,0.00383 h -3.807e-4 z m 1.3340917,0.1373724 v 4.0473216 c -0.2383394,0.0054 -0.4702064,0.01569 -0.6929358,0.02946 V 7.6010204 h -7.614e-4 l 7.614e-4,-0.00689 v -0.00574 h 0.00114 C 9.0458578,7.3220663 9.3713853,7.1288265 9.379,7.1215561 h 7.615e-4 l 0.00152,3.827e-4 0.00152,-3.827e-4 h 7.615e-4 c 0.00647,0.00727 0.3323807,0.2005102 0.343422,0.4668368 v 3.826e-4 l 0.00152,0.012245 h -0.00152 z m 1.5712892,0 v 4.0767856 c -0.221968,-0.01378 -0.454216,-0.02411 -0.692936,-0.02946 V 7.6010204 h -0.0011 l 0.0011,-0.00689 v -0.00574 h 0.0011 c 0.01104,-0.2663266 0.336569,-0.4595664 0.344184,-0.4668368 h 3.8e-4 l 0.0015,3.827e-4 0.0015,-3.827e-4 h 7.62e-4 c 0.0072,0.00727 0.332381,0.2005102 0.343422,0.4668368 v 3.826e-4 l 0.0023,0.012245 h -0.0023 z M 12.181963,7.463648 v 4.297577 c -0.07843,-0.01033 -0.159147,-0.0199 -0.241385,-0.02908 V 7.4594388 h 3.81e-4 c 0.0042,-0.085714 0.117266,-0.1480868 0.119931,-0.1503827 h 0.0011 c 0.0027,0.0023 0.116124,0.064668 0.119931,0.1503827 v 3.826e-4 l 7.62e-4,0.00383 h -7.62e-4 z"
             id="Fill-28"
             style="fill:#0f9ddb;fill-opacity:1"
             inkscape:connector-curvature="0" />
          <path
             d="m 12.921349,6.3447704 v -0.628699 l 0.0027,-0.00727 c 0,-0.3 -1.235101,-0.5429847 -2.756895,-0.5429847 -1.5153208,0 -2.7435685,0.2410715 -2.755752,0.5387755 H 7.410262 V 6.347832 h 0.00114 c 0.012183,-0.2980867 1.2404312,-0.5391581 2.755752,-0.5391581 1.50961,0 2.734812,0.2395408 2.75423,0.5360969"
             id="Fill-29"
             style="fill:#0f9ddb;fill-opacity:1"
             inkscape:connector-curvature="0" />
          <path
             d="m 12.762583,6.5579082 c 0,-0.244898 -1.162381,-0.4450255 -2.595464,-0.4450255 -1.4338438,0 -2.5962245,0.2001275 -2.5962245,0.4450255 0,0.079974 0.1248807,0.1549744 0.3403761,0.2192602 C 8.032344,6.582398 8.9952202,6.430102 10.167119,6.430102 c 1.170757,0 2.134014,0.152296 2.255087,0.3470664 0.215496,-0.064286 0.340377,-0.1392858 0.340377,-0.2192602"
             id="Fill-30"
             style="fill:#0f9ddb;fill-opacity:1"
             inkscape:connector-curvature="0" />
          <path
             d="m 13.334826,13.398214 c -0.565771,-0.235331 -1.767367,-0.397959 -3.166184,-0.399872 h -0.003 c -1.3999584,0.0019 -2.601174,0.164541 -3.1669446,0.399872 -0.071578,0.03559 -0.1305918,0.07385 -0.1709496,0.114796 0.03122,0.01875 0.131734,0.08533 0.2120688,0.209311 0.092518,0.141199 0.3003991,0.436225 0.5493991,0.493623 0.1385872,-0.171811 1.2381468,-0.30574 2.5779493,-0.30727 1.339042,0.0015 2.43822,0.135459 2.577188,0.30727 0.24862,-0.0574 0.456881,-0.352424 0.549399,-0.493623 0.08072,-0.123979 0.180849,-0.190561 0.21245,-0.209311 -0.04074,-0.04094 -0.09975,-0.07921 -0.17133,-0.114796"
             id="Fill-31"
             style="fill:#0f9ddb;fill-opacity:1"
             inkscape:connector-curvature="0" />
          <path
             d="m 13.85567,24.884311 c 0,-0.483673 -1.651624,-0.875893 -3.688551,-0.875893 -2.0380685,0 -3.6889309,0.39222 -3.6889309,0.875893 0,0.07156 0.039216,0.141582 0.1088899,0.208164 0.3932981,-0.350893 1.8446559,-0.611863 3.580041,-0.611863 1.734624,0 3.185982,0.26097 3.57928,0.611863 0.06929,-0.06658 0.109271,-0.136608 0.109271,-0.208164"
             id="Fill-32"
             style="fill:#0f9ddb;fill-opacity:1"
             inkscape:connector-curvature="0" />
          <path
             d="m 13.334826,25.192347 c -0.565771,-0.234566 -1.767367,-0.397577 -3.166184,-0.39949 h -0.003 c -1.3999584,0.0019 -2.601174,0.164924 -3.1669446,0.39949 -0.071578,0.03597 -0.1305918,0.07423 -0.1709496,0.114796 0.03122,0.01951 0.131734,0.08571 0.2120688,0.209694 0.092518,0.140816 0.3003991,0.436224 0.5493991,0.493622 0.1385872,-0.171811 1.2381468,-0.306122 2.5779493,-0.30727 1.339042,0.0011 2.43822,0.135459 2.577188,0.30727 0.24862,-0.0574 0.456881,-0.352806 0.549399,-0.493622 0.08072,-0.12398 0.180849,-0.190179 0.21245,-0.209694 -0.04074,-0.04056 -0.09975,-0.07883 -0.17133,-0.114796"
             id="Fill-33"
             style="fill:#0f9ddb;fill-opacity:1"
             inkscape:connector-curvature="0" />
          <path
             d="m 14.406211,40.198852 c 0,-0.556378 -1.898339,-1.007143 -4.239092,-1.007143 -2.3418942,0 -4.2398529,0.450765 -4.2398529,1.007143 0,0.08227 0.04683,0.162628 0.1252614,0.238776 0.4530734,-0.402934 2.1203074,-0.702934 4.1145915,-0.702934 1.993143,0 3.661138,0.3 4.113069,0.702934 0.07919,-0.07615 0.126023,-0.156506 0.126023,-0.238776"
             id="Fill-34"
             style="fill:#0f9ddb;fill-opacity:1"
             inkscape:connector-curvature="0" />
          <path
             d="m 13.807317,40.552806 c -0.650294,-0.26977 -2.030455,-0.45727 -3.638675,-0.459566 h -0.0034 c -1.6082206,0.0023 -2.9887619,0.189796 -3.6390555,0.459566 -0.082238,0.04133 -0.1500091,0.08495 -0.1968394,0.131633 0.036551,0.02219 0.1515321,0.09872 0.2444312,0.240689 0.1062248,0.162244 0.3453257,0.501275 0.6312569,0.567857 0.1591468,-0.197832 1.422422,-0.352041 2.9621098,-0.353572 1.538546,0.0015 2.802202,0.15574 2.96173,0.353572 0.28555,-0.06658 0.524651,-0.405613 0.631257,-0.567857 0.09252,-0.141965 0.20788,-0.218495 0.244431,-0.240689 -0.04759,-0.04668 -0.114601,-0.09031 -0.19722,-0.131633"
             id="Fill-35"
             style="fill:#0f9ddb;fill-opacity:1"
             inkscape:connector-curvature="0" />
          <path
             d="m 61.909624,30.182143 h -0.0019 v -0.03444 h -0.255472 c -3.379014,-0.461479 -7.589931,-0.699872 -11.796661,-0.703316 -4.208633,0.0034 -8.641899,0.241837 -11.968371,0.703316 v 0.562117 h 24.0205 v -0.527678 h 0.0019"
             id="Fill-36"
             style="fill:#0f9ddb;fill-opacity:1"
             inkscape:connector-curvature="0" />
          <path
             d="m 46.410326,44.582143 v 0.319515 c 0.815151,0.341327 1.996949,0.557526 3.334468,0.577806 v 0.0073 l 0.153435,-0.0038 0.153817,0.0038 v -0.0073 c 1.33828,-0.02028 2.519697,-0.236479 3.334087,-0.577806 v -0.319515 c -0.781266,0.358928 -2.050633,0.601913 -3.484858,0.60574 -1.439936,-0.0038 -2.709303,-0.246812 -3.490949,-0.60574 z"
             id="Fill-37"
             style="fill:#0f9ddb;fill-opacity:1"
             inkscape:connector-curvature="0" />
          <path
             d="M 62.210784,28.827934 C 58.658156,28.376403 54.251922,28.134949 49.910413,28.125 v -3.83e-4 h -0.02322 V 28.125 c -4.342271,0.0099 -8.748505,0.251403 -12.300752,0.702934 -0.02894,0.0027 0.147725,0.731632 0.278697,0.958928 3.428509,-0.486734 7.687018,-0.73852 12.033096,-0.747704 4.34722,0.0092 8.60573,0.26097 12.03462,0.747704 0.130211,-0.227296 0.306871,-0.95625 0.277935,-0.958928"
             id="Fill-38"
             style="fill:#0f9ddb;fill-opacity:1"
             inkscape:connector-curvature="0" />
          <path
             d="m 37.568541,36.753061 c 0.109652,-0.282398 0.388349,-0.424745 0.551684,-0.518877 v -1.102806 h -1.637537 v 3.857525 h 0.912239 c -0.0118,-0.808163 0.01485,-1.824107 0.173614,-2.235842"
             id="Fill-39"
             style="fill:#0f9ddb;fill-opacity:1"
             inkscape:connector-curvature="0" />
          <path
             d="m 22.919422,43.284566 v 0.817347 l 0.471349,0.269771 h 5.158183 l 0.470587,-0.269771 v -0.817347 h -6.100119"
             id="Fill-40"
             style="fill:#0f9ddb;fill-opacity:1"
             inkscape:connector-curvature="0" />
          <path
             d="m 29.124243,33.321429 c 0,-0.368878 -1.411381,-0.66773 -3.151715,-0.66773 -1.740716,0 -3.151335,0.298852 -3.151335,0.66773 0,0.05472 0.03465,0.107908 0.09366,0.158801 0.336188,-0.267858 1.575858,-0.466454 3.057675,-0.466454 1.481816,0 2.721867,0.198596 3.058055,0.466454 0.05863,-0.05089 0.09366,-0.104082 0.09366,-0.158801"
             id="Fill-41"
             style="fill:#0f9ddb;fill-opacity:1"
             inkscape:connector-curvature="0" />
          <path
             d="M 28.153372,35.103061 V 34.403189 C 28.006408,34.28074 27.09417,34.185842 25.987376,34.185842 h -0.02932 c -1.106794,0 -2.019032,0.0949 -2.166376,0.217347 v 0.751148 c 0.14544,-0.122832 1.058059,-0.217347 2.166376,-0.217347 h 0.02932 c 1.107936,0 2.020555,0.09452 2.165996,0.217347 v -0.05128"
             id="Fill-42"
             style="fill:#0f9ddb;fill-opacity:1"
             inkscape:connector-curvature="0" />
          <path
             d="m 25.972528,28.90523 c -1.070624,0 -1.937936,0.148086 -1.937936,0.330229 v 3.351276 c 0.566151,-0.09222 1.253376,-0.139286 1.937936,-0.139286 0.683417,0 1.370261,0.04707 1.935651,0.13852 V 29.24426 l 0.0027,-0.0088 c 0,-0.182143 -0.867693,-0.330229 -1.938316,-0.330229 z m -1.515322,0.578954 V 32.2875 c -0.07005,0.0069 -0.139348,0.01378 -0.206357,0.02181 v -2.828189 h 3.8e-4 c 0.0038,-0.06543 0.100133,-0.112882 0.102418,-0.114796 h 7.61e-4 c 0.003,0.0019 0.09937,0.04936 0.102798,0.114796 v 3.83e-4 l 3.81e-4,0.0027 h -3.81e-4 z m 1.139537,0.104847 v 2.634183 c -0.203693,0.0042 -0.401674,0.01148 -0.59166,0.02258 v -2.65676 h -3.81e-4 l 3.81e-4,-0.005 v -0.005 h 7.61e-4 c 0.0091,-0.202424 0.287835,-0.349363 0.293927,-0.355102 h 0.0042 c 0.0053,0.0057 0.283646,0.152678 0.292403,0.355102 h 3.81e-4 v 3.82e-4 l 0.0015,0.0096 h -0.0015 z m 1.342849,0 v 2.65676 c -0.189987,-0.0111 -0.388349,-0.01837 -0.592422,-0.02258 v -2.634183 h -7.62e-4 l 7.62e-4,-0.005 v -0.005 h 0.0015 c 0.0091,-0.202424 0.287454,-0.349363 0.293546,-0.355102 h 0.0034 c 0.0061,0.0057 0.284408,0.152678 0.293927,0.355102 v 3.82e-4 l 0.0011,0.0096 h -0.0011 z m 0.754234,-0.104847 v 2.825127 c -0.06739,-0.008 -0.135542,-0.01492 -0.205597,-0.02181 v -2.803316 h -0.0011 l 0.0011,-0.0011 v -0.0019 c 0.003,-0.06543 0.09975,-0.112882 0.102037,-0.114796 h 0.0015 c 0.0023,0.0019 0.09861,0.04936 0.102037,0.114796 v 3.83e-4 l 7.61e-4,0.0027 h -7.61e-4 z"
             id="Fill-43"
             style="fill:#0f9ddb;fill-opacity:1"
             inkscape:connector-curvature="0" />
          <path
             d="m 28.325463,28.594133 v -0.534567 l 0.0019,-0.0061 c 0,-0.25523 -1.054633,-0.46148 -2.354839,-0.46148 -1.294115,0 -2.343418,0.20472 -2.353698,0.458036 h -7.61e-4 v 0.546429 h 7.61e-4 c 0.01028,-0.253699 1.059583,-0.458036 2.353698,-0.458036 1.289926,0 2.336944,0.203189 2.352935,0.45574"
             id="Fill-44"
             style="fill:#0f9ddb;fill-opacity:1"
             inkscape:connector-curvature="0" />
          <path
             d="m 28.189541,28.774745 c 0,-0.208163 -0.992192,-0.377679 -2.217013,-0.377679 -1.224822,0 -2.217776,0.169516 -2.217776,0.377679 0,0.06811 0.106987,0.131633 0.291262,0.186735 0.103559,-0.165307 0.925945,-0.295409 1.926514,-0.295409 0.999807,0 1.823334,0.130102 1.926894,0.295409 0.183514,-0.0551 0.290119,-0.118623 0.290119,-0.186735"
             id="Fill-45"
             style="fill:#0f9ddb;fill-opacity:1"
             inkscape:connector-curvature="0" />
          <path
             d="M 28.096642,38.990434 V 35.451658 C 27.954628,35.33227 27.065615,35.240051 25.986995,35.240051 h -0.02856 c -1.078619,0 -1.968775,0.09222 -2.109266,0.211607 v 3.538776 h 4.247468"
             id="Fill-46"
             style="fill:#0f9ddb;fill-opacity:1"
             inkscape:connector-curvature="0" />
          <path
             d="m 28.678784,33.555995 c -0.483532,-0.178699 -1.50961,-0.303061 -2.704734,-0.304592 h -0.0027 c -1.195124,0.0015 -2.221963,0.125893 -2.704734,0.304592 -0.06168,0.02755 -0.112316,0.05663 -0.146582,0.08763 0.02665,0.01454 0.112697,0.06543 0.181229,0.159567 0.07957,0.107525 0.256996,0.332525 0.469445,0.376148 0.118408,-0.130868 1.057679,-0.233419 2.201785,-0.234184 1.144486,7.65e-4 2.083756,0.103316 2.201784,0.234184 0.212449,-0.04362 0.389871,-0.268623 0.469064,-0.376148 0.06929,-0.09413 0.154959,-0.145026 0.18161,-0.159567 -0.03465,-0.03099 -0.0849,-0.06008 -0.146202,-0.08763"
             id="Fill-47"
             style="fill:#0f9ddb;fill-opacity:1"
             inkscape:connector-curvature="0" />
          <path
             d="m 33.009252,36.314541 c 0,-0.23648 -0.904624,-0.427806 -2.019793,-0.427806 -1.115931,0 -2.020555,0.191326 -2.020555,0.427806 0,0.0352 0.02208,0.06926 0.05978,0.101785 0.215495,-0.171428 1.010468,-0.298469 1.96078,-0.298469 0.949931,0 1.744142,0.127041 1.960018,0.298469 0.03769,-0.03252 0.05977,-0.06658 0.05977,-0.101785"
             id="Fill-48"
             style="fill:#0f9ddb;fill-opacity:1"
             inkscape:connector-curvature="0" />
          <path
             d="m 32.387514,37.45676 v -0.448469 c -0.0948,-0.07883 -0.67961,-0.139286 -1.388918,-0.139286 h -0.01866 c -0.709688,0 -1.294114,0.06046 -1.388536,0.139286 v 0.48176 c 0.0929,-0.07921 0.678087,-0.139668 1.388536,-0.139668 h 0.01866 c 0.710069,0 1.295257,0.06046 1.388918,0.139668 v -0.03329"
             id="Fill-49"
             style="fill:#0f9ddb;fill-opacity:1"
             inkscape:connector-curvature="0" />
          <path
             d="m 29.219046,32.717602 c 0,0.0398 0.0198,0.07883 0.05254,0.115561 0.188463,-0.195153 0.885207,-0.339796 1.717872,-0.339796 0.832284,0 1.528646,0.144643 1.71711,0.339796 0.03274,-0.03673 0.05254,-0.07576 0.05254,-0.115561 0,-0.269005 -0.792688,-0.487117 -1.769651,-0.487117 -0.977725,0 -1.770413,0.218112 -1.770413,0.487117"
             id="Fill-50"
             style="fill:#0f9ddb;fill-opacity:1"
             inkscape:connector-curvature="0" />
          <path
             d="m 30.989459,33.484056 c -0.686844,0 -1.242716,0.09451 -1.242716,0.211607 v 2.147832 c 0.36322,-0.05855 0.80373,-0.08878 1.242716,-0.08878 0.437463,0 0.878353,0.02985 1.240431,0.08878 V 33.70102 l 0.0015,-0.0054 c 0,-0.117092 -0.555872,-0.211607 -1.241954,-0.211607 z m -0.971253,0.371174 v 1.796556 c -0.04607,0.0046 -0.08947,0.0088 -0.132114,0.01454 V 33.85523 h -7.62e-4 l 7.62e-4,-0.0011 v -0.0011 c 0.0019,-0.04171 0.06396,-0.07232 0.06549,-0.07347 h 7.61e-4 c 7.62e-4,0.0011 0.0632,0.03176 0.06587,0.07347 v 0.0023 z m 0.729867,0.06696 v 1.688265 c -0.130211,0.0031 -0.257376,0.008 -0.379211,0.01531 v -1.703571 h -3.8e-4 l 3.8e-4,-0.0031 v -0.0034 h 3.81e-4 c 0.0065,-0.129337 0.184275,-0.224235 0.188463,-0.227679 h 0.0023 c 0.0038,0.0034 0.182371,0.09834 0.188082,0.227679 v 3.82e-4 l 0.0011,0.0061 h -0.0011 z m 0.86084,0 v 1.703571 c -0.121835,-0.0073 -0.249,-0.01225 -0.379592,-0.01531 v -1.688265 h -0.0011 l 0.0011,-0.0031 v -0.0034 h 7.62e-4 c 0.0053,-0.129337 0.184275,-0.224235 0.188463,-0.227679 h 0.0019 c 0.0034,0.0034 0.181991,0.09834 0.188464,0.227679 v 3.82e-4 l 7.61e-4,0.0061 h -7.61e-4 z m 0.483532,-0.06696 v 1.811096 c -0.04302,-0.0057 -0.08719,-0.0099 -0.132115,-0.01454 v -1.798852 c 0.0023,-0.04171 0.06473,-0.07232 0.06625,-0.07347 h 3.81e-4 c 0.0019,0.0011 0.06396,0.03176 0.06549,0.07347 v 3.82e-4 l 3.81e-4,0.0019 h -3.81e-4 z"
             id="Fill-51"
             style="fill:#0f9ddb;fill-opacity:1"
             inkscape:connector-curvature="0" />
          <path
             d="m 32.497165,33.284311 v -0.342474 l 7.62e-4,-0.0038 c 0,-0.163775 -0.675422,-0.296173 -1.508468,-0.296173 -0.83,0 -1.502757,0.131632 -1.50923,0.293877 h -7.61e-4 v 0.349745 h 7.61e-4 c 0.0065,-0.161862 0.67923,-0.293112 1.50923,-0.293112 0.826573,0 1.497807,0.130102 1.507706,0.291964"
             id="Fill-52"
             style="fill:#0f9ddb;fill-opacity:1"
             inkscape:connector-curvature="0" />
          <path
             id="Fill-53"
             d="m 32.410358,33.400255 c 0,-0.133546 -0.636207,-0.242219 -1.420899,-0.242219 -0.785454,0 -1.422042,0.108673 -1.422042,0.242219 0,0.04362 0.06853,0.08418 0.186179,0.119388 0.06663,-0.105995 0.594326,-0.188648 1.235863,-0.188648 0.640775,0 1.168472,0.08265 1.235101,0.188648 0.117646,-0.0352 0.185798,-0.07577 0.185798,-0.119388"
             style="fill:#0f9ddb;fill-opacity:1"
             inkscape:connector-curvature="0" />
          <path
             d="m 32.350202,38.978189 v -1.248215 c -0.09061,-0.07691 -0.660574,-0.136224 -1.351986,-0.136224 h -0.01828 c -0.691413,0 -1.261752,0.05931 -1.352367,0.136224 v 1.248215 h 2.722629"
             id="Fill-54"
             style="fill:#0f9ddb;fill-opacity:1"
             inkscape:connector-curvature="0" />
          <path
             d="m 32.723702,36.464923 c -0.309537,-0.114413 -0.967445,-0.194005 -1.733863,-0.19477 h -0.0015 c -0.766417,7.65e-4 -1.424325,0.08036 -1.733862,0.19477 -0.0396,0.01799 -0.07196,0.03674 -0.09404,0.05625 0.01751,0.0096 0.07196,0.04209 0.116504,0.102168 0.05064,0.06926 0.164477,0.21352 0.30078,0.241837 0.07577,-0.08418 0.677707,-0.149618 1.411762,-0.150383 0.733293,7.65e-4 1.334853,0.0662 1.41138,0.150383 0.135922,-0.02832 0.250143,-0.172577 0.30078,-0.241837 0.04416,-0.06008 0.09861,-0.0926 0.116124,-0.102168 -0.02246,-0.01952 -0.05445,-0.03827 -0.09404,-0.05625"
             id="Fill-55"
             style="fill:#0f9ddb;fill-opacity:1"
             inkscape:connector-curvature="0" />
          <path
             d="m 29.310803,43.284566 h 8.591261 v 1.014031 h -8.591261 z"
             id="Fill-56"
             style="fill:#0f9ddb;fill-opacity:1"
             inkscape:connector-curvature="0" />
          <path
             d="m 33.121569,52.871556 0.0015,-4.891837 c 0,0 -0.0023,-0.172959 -0.180849,-0.39375 -0.17133,-0.213137 -0.358651,-0.315306 -0.539881,-0.433928 -0.210545,-0.138903 -0.363981,-0.239541 -0.381114,-0.251403 v -0.0015 l -3.81e-4,0.0015 -0.0023,-0.0015 v 0.0015 c -0.01637,0.01186 -0.169808,0.1125 -0.380354,0.251403 -0.18161,0.118622 -0.368169,0.220791 -0.540261,0.433928 -0.177803,0.220791 -0.180468,0.39375 -0.180468,0.39375 l 7.61e-4,4.891837 v 2.021174 h 2.203308 v -0.334822 h 7.61e-4 l -3.81e-4,-0.842602 3.81e-4,-0.84375 h -7.61e-4"
             id="Fill-57"
             style="fill:#0f9ddb;fill-opacity:1"
             inkscape:connector-curvature="0" />
          <path
             d="m 37.091482,52.871556 0.0015,-4.891837 c 0,0 -0.0027,-0.172959 -0.180468,-0.39375 -0.171711,-0.213137 -0.359413,-0.315306 -0.540262,-0.433928 -0.210546,-0.138903 -0.363981,-0.239541 -0.380734,-0.251403 v -0.0015 l -0.0015,0.0015 -0.0011,-0.0015 v 0.0015 c -0.01713,0.01186 -0.170569,0.1125 -0.381114,0.251403 -0.180849,0.118622 -0.36817,0.220791 -0.540262,0.433928 -0.177803,0.220791 -0.180087,0.39375 -0.180087,0.39375 l 7.61e-4,4.891837 v 2.021174 h 2.203308 v -0.334822 h 3.8e-4 v -1.686352 h -3.8e-4"
             id="Fill-58"
             style="fill:#0f9ddb;fill-opacity:1"
             inkscape:connector-curvature="0" />
          <path
             d="M 62.228679,36.753061 C 62.119408,36.470663 61.84033,36.328316 61.676615,36.234184 v -1.102806 h 1.637917 v 3.857525 h -0.912238 c 0.01142,-0.808163 -0.01485,-1.824107 -0.173615,-2.235842"
             id="Fill-59"
             style="fill:#0f9ddb;fill-opacity:1"
             inkscape:connector-curvature="0" />
          <path
             d="m 76.877417,43.284566 v 0.817347 l -0.470587,0.269771 h -5.158945 l -0.470206,-0.269771 v -0.817347 h 6.099738"
             id="Fill-60"
             style="fill:#0f9ddb;fill-opacity:1"
             inkscape:connector-curvature="0" />
          <path
             d="m 70.673738,33.321429 c 0,-0.368878 1.411,-0.66773 3.150955,-0.66773 1.740334,0 3.151334,0.298852 3.151334,0.66773 0,0.05472 -0.03465,0.107908 -0.09328,0.158801 -0.336569,-0.267858 -1.576239,-0.466454 -3.058055,-0.466454 -1.481817,0 -2.721487,0.198596 -3.058055,0.466454 -0.05863,-0.05089 -0.0929,-0.104082 -0.0929,-0.158801"
             id="Fill-61"
             style="fill:#0f9ddb;fill-opacity:1"
             inkscape:connector-curvature="0" />
          <path
             d="m 71.643468,35.103061 v -0.699872 c 0.147725,-0.122449 1.060344,-0.217347 2.165995,-0.217347 h 0.0297 c 1.106793,0 2.019412,0.0949 2.165995,0.217347 v 0.751148 c -0.14506,-0.122832 -1.05806,-0.217347 -2.165995,-0.217347 h -0.0297 c -1.107555,0 -2.020555,0.09452 -2.165995,0.217347 v -0.05128"
             id="Fill-62"
             style="fill:#0f9ddb;fill-opacity:1"
             inkscape:connector-curvature="0" />
          <path
             d="m 76.585395,27.709821 c 0,0.06237 -0.03084,0.122832 -0.08186,0.180613 -0.294688,-0.304592 -1.380922,-0.530357 -2.678844,-0.530357 -1.298303,0 -2.384537,0.225765 -2.679606,0.530357 -0.05102,-0.05778 -0.0811,-0.11824 -0.0811,-0.180613 0,-0.41977 1.235101,-0.759566 2.760702,-0.759566 1.524839,0 2.760702,0.339796 2.760702,0.759566"
             id="Fill-63"
             style="fill:#0f9ddb;fill-opacity:1"
             inkscape:connector-curvature="0" />
          <path
             d="m 71.886376,29.235459 0.0023,0.0088 v 3.341709 c 0.566151,-0.09145 1.252234,-0.13852 1.936032,-0.13852 0.684179,0 1.371403,0.04707 1.937935,0.139286 v -3.351276 c 0,-0.182143 -0.867692,-0.330229 -1.937935,-0.330229 -1.070624,0 -1.938317,0.148086 -1.938317,0.330229 z m 3.453257,0.248725 v 0 l 7.62e-4,-0.0027 v -3.83e-4 c 0.0027,-0.06543 0.09937,-0.112882 0.102036,-0.114796 h 0.0011 c 0.0027,0.0019 0.09861,0.04936 0.102418,0.114796 v 0.0019 l 3.81e-4,0.0011 h -3.81e-4 v 2.825127 c -0.06701,-0.008 -0.135161,-0.01492 -0.205596,-0.02181 v -2.803316 h -7.62e-4 z m -1.140679,0.104847 v 0 l 0.0015,-0.0096 v -3.82e-4 c 0.0095,-0.202424 0.287073,-0.349363 0.293546,-0.355102 h 0.0038 c 0.0057,0.0057 0.284028,0.152678 0.293546,0.355102 h 7.62e-4 v 0.005 l 7.61e-4,0.005 h -7.61e-4 v 2.65676 c -0.189987,-0.0111 -0.387968,-0.01837 -0.591661,-0.02258 v -2.634183 h -0.0015 z m -1.342849,0 v 0 l 0.0015,-0.0096 v -3.82e-4 c 0.0099,-0.202424 0.288216,-0.349363 0.293546,-0.355102 h 0.0042 c 0.0065,0.0057 0.284028,0.152678 0.293546,0.355102 h 7.62e-4 v 0.005 l 0.0011,0.005 h -0.0011 v 2.634183 c -0.204074,0.0042 -0.402055,0.01148 -0.592042,0.02258 v -2.65676 h -0.0015 z m -0.753472,-0.104847 v 0 l 3.81e-4,-0.0027 v -3.83e-4 c 0.0034,-0.06543 0.100514,-0.112882 0.102036,-0.114796 h 0.0015 c 0.0027,0.0019 0.09899,0.04936 0.102418,0.114796 h 3.81e-4 V 32.2875 c -0.07006,0.0069 -0.138968,0.01378 -0.206358,0.02181 v -2.825127 z"
             id="Fill-64"
             style="fill:#0f9ddb;fill-opacity:1"
             inkscape:connector-curvature="0" />
          <path
             d="m 71.471757,28.594133 v -0.534567 l -0.0015,-0.0061 c 0,-0.25523 1.053872,-0.46148 2.354459,-0.46148 1.294114,0 2.343417,0.20472 2.354078,0.458036 h 7.61e-4 v 0.546429 h -7.61e-4 c -0.01066,-0.253699 -1.059964,-0.458036 -2.354078,-0.458036 -1.289927,0 -2.336184,0.203189 -2.352936,0.45574"
             id="Fill-65"
             style="fill:#0f9ddb;fill-opacity:1"
             inkscape:connector-curvature="0" />
          <path
             d="m 71.607298,28.774745 c 0,-0.208163 0.992574,-0.377679 2.217395,-0.377679 1.22444,0 2.217394,0.169516 2.217394,0.377679 0,0.06811 -0.106986,0.131633 -0.2905,0.186735 -0.10356,-0.165307 -0.926326,-0.295409 -1.926894,-0.295409 -1.000188,0 -1.822954,0.130102 -1.926895,0.295409 -0.183894,-0.0551 -0.2905,-0.118623 -0.2905,-0.186735"
             id="Fill-66"
             style="fill:#0f9ddb;fill-opacity:1"
             inkscape:connector-curvature="0" />
          <path
             d="m 71.700959,38.990434 v -3.538776 c 0.142014,-0.119388 1.030266,-0.211607 2.109266,-0.211607 h 0.02855 c 1.079,0 1.968775,0.09222 2.109647,0.211607 v 3.538776 h -4.247468"
             id="Fill-67"
             style="fill:#0f9ddb;fill-opacity:1"
             inkscape:connector-curvature="0" />
          <path
             d="m 71.118436,33.555995 c 0.483151,-0.178699 1.50961,-0.303061 2.705114,-0.304592 h 0.0027 c 1.194362,0.0015 2.221201,0.125893 2.704734,0.304592 0.0613,0.02755 0.111555,0.05663 0.146201,0.08763 -0.02665,0.01454 -0.112316,0.06543 -0.181229,0.159567 -0.07919,0.107525 -0.256995,0.332525 -0.469826,0.376148 -0.118027,-0.130868 -1.056917,-0.233419 -2.201403,-0.234184 -1.144106,7.65e-4 -2.082996,0.103316 -2.201785,0.234184 -0.212449,-0.04362 -0.390252,-0.268623 -0.469064,-0.376148 -0.06891,-0.09413 -0.154578,-0.145026 -0.18161,-0.159567 0.03465,-0.03099 0.0849,-0.06008 0.146202,-0.08763"
             id="Fill-68"
             style="fill:#0f9ddb;fill-opacity:1"
             inkscape:connector-curvature="0" />
          <path
             d="m 66.787587,36.314541 c 0,-0.23648 0.905005,-0.427806 2.020555,-0.427806 1.115551,0 2.019794,0.191326 2.019794,0.427806 0,0.0352 -0.0217,0.06926 -0.05939,0.101785 -0.215876,-0.171428 -1.010087,-0.298469 -1.960399,-0.298469 -0.949931,0 -1.744142,0.127041 -1.960399,0.298469 -0.03769,-0.03252 -0.06016,-0.06658 -0.06016,-0.101785"
             id="Fill-69"
             style="fill:#0f9ddb;fill-opacity:1"
             inkscape:connector-curvature="0" />
          <path
             d="m 67.410087,37.45676 v -0.448469 c 0.09442,-0.07883 0.679229,-0.139286 1.388537,-0.139286 h 0.01904 c 0.709307,0 1.294114,0.06046 1.388155,0.139286 v 0.48176 c -0.0929,-0.07921 -0.678087,-0.139668 -1.388155,-0.139668 h -0.01904 c -0.71045,0 -1.295257,0.06046 -1.388537,0.139668 v -0.03329"
             id="Fill-70"
             style="fill:#0f9ddb;fill-opacity:1"
             inkscape:connector-curvature="0" />
          <path
             d="m 70.577794,32.717602 c 0,0.0398 -0.01942,0.07883 -0.05216,0.115561 -0.189225,-0.195153 -0.885206,-0.339796 -1.717491,-0.339796 -0.832284,0 -1.528266,0.144643 -1.717491,0.339796 -0.03274,-0.03673 -0.05216,-0.07576 -0.05216,-0.115561 0,-0.269005 0.791926,-0.487117 1.769651,-0.487117 0.977725,0 1.769652,0.218112 1.769652,0.487117"
             id="Fill-71"
             style="fill:#0f9ddb;fill-opacity:1"
             inkscape:connector-curvature="0" />
          <path
             d="m 67.565427,33.695663 0.0019,0.0054 v 2.142475 c 0.36284,-0.05893 0.802587,-0.08878 1.240812,-0.08878 0.438986,0 0.879876,0.03023 1.242335,0.08878 v -2.147832 c 0,-0.117092 -0.556633,-0.211607 -1.242335,-0.211607 -0.686844,0 -1.242715,0.09451 -1.242715,0.211607 z m 2.213967,0.159567 v 0 l 3.81e-4,-0.0019 v -3.82e-4 c 0.0015,-0.04171 0.06396,-0.07232 0.06549,-0.07347 h 3.8e-4 c 0.0023,0.0011 0.06396,0.03176 0.06625,0.07347 v 1.813392 c -0.0434,-0.0057 -0.08719,-0.0099 -0.132115,-0.01454 v -1.79657 h -3.81e-4 z m -0.73177,0.06696 v 0 l 0.0011,-0.0061 v -3.82e-4 c 0.0061,-0.129337 0.184656,-0.224235 0.188083,-0.227679 h 0.0023 c 0.0042,0.0034 0.182372,0.09834 0.188463,0.227679 h 7.62e-4 v 0.0034 l 3.8e-4,0.0031 h -3.8e-4 v 1.703571 c -0.121835,-0.0073 -0.249,-0.01225 -0.379592,-0.01531 v -1.688265 h -0.0011 z m -0.860459,0 v 0 l 0.0011,-0.0061 v -3.82e-4 c 0.0065,-0.129337 0.185037,-0.224235 0.188464,-0.227679 h 0.0023 c 0.0042,0.0034 0.182372,0.09834 0.188083,0.227679 h 3.8e-4 v 0.0034 l 3.81e-4,0.0031 h -3.81e-4 v 1.688265 c -0.130972,0.0031 -0.257376,0.008 -0.379211,0.01531 v -1.703571 h -0.0011 z m -0.48277,-0.06696 v 0 l 3.8e-4,-0.0019 v -3.82e-4 c 0.0019,-0.04171 0.06396,-0.07232 0.06549,-0.07347 h 7.61e-4 c 0.0015,0.0011 0.0632,0.03176 0.06549,0.07347 v 0.0011 l 3.81e-4,0.0011 h -3.81e-4 v 1.796556 c -0.04493,0.0046 -0.08833,0.0088 -0.131734,0.01454 V 33.85523 h -3.8e-4 z"
             id="Fill-72"
             style="fill:#0f9ddb;fill-opacity:1"
             inkscape:connector-curvature="0" />
          <path
             d="m 67.299674,33.284311 v -0.342474 l -3.8e-4,-0.0038 c 0,-0.163775 0.675041,-0.296173 1.508848,-0.296173 0.829619,0 1.502376,0.131632 1.508849,0.293877 h 3.81e-4 v 0.349745 h -3.81e-4 c -0.0065,-0.161862 -0.67923,-0.293112 -1.508849,-0.293112 -0.826954,0 -1.497426,0.130102 -1.508468,0.291964"
             id="Fill-73"
             style="fill:#0f9ddb;fill-opacity:1"
             inkscape:connector-curvature="0" />
          <path
             id="Fill-74"
             d="m 67.386482,33.400255 c 0,-0.133546 0.636967,-0.242219 1.42166,-0.242219 0.784693,0 1.421661,0.108673 1.421661,0.242219 0,0.04362 -0.06891,0.08418 -0.18656,0.119388 -0.06663,-0.105995 -0.593945,-0.188648 -1.235101,-0.188648 -0.641156,0 -1.168472,0.08265 -1.235862,0.188648 -0.116886,-0.0352 -0.185798,-0.07577 -0.185798,-0.119388"
             style="fill:#0f9ddb;fill-opacity:1"
             inkscape:connector-curvature="0" />
          <path
             d="m 67.446638,38.978189 v -1.248215 c 0.091,-0.07691 0.660573,-0.136224 1.352747,-0.136224 h 0.01789 c 0.691413,0 1.261752,0.05931 1.352367,0.136224 v 1.248215 h -2.723009"
             id="Fill-75"
             style="fill:#0f9ddb;fill-opacity:1"
             inkscape:connector-curvature="0" />
          <path
             d="m 67.073138,36.464923 c 0.309917,-0.114413 0.967825,-0.194005 1.734243,-0.19477 h 0.0015 c 0.766417,7.65e-4 1.423945,0.08036 1.734243,0.19477 0.0396,0.01799 0.0712,0.03674 0.09328,0.05625 -0.01675,0.0096 -0.07196,0.04209 -0.115743,0.102168 -0.0514,0.06926 -0.165239,0.21352 -0.301161,0.241837 -0.07615,-0.08418 -0.678087,-0.149618 -1.411381,-0.150383 -0.733293,7.65e-4 -1.335234,0.0662 -1.411381,0.150383 -0.135922,-0.02832 -0.249761,-0.172577 -0.30116,-0.241837 -0.04378,-0.06008 -0.09899,-0.0926 -0.116124,-0.102168 0.02246,-0.01952 0.05406,-0.03827 0.09366,-0.05625"
             id="Fill-76"
             style="fill:#0f9ddb;fill-opacity:1"
             inkscape:connector-curvature="0" />
          <path
             d="m 61.895537,43.284566 h 8.59088 v 1.014031 h -8.59088 z"
             id="Fill-77"
             style="fill:#0f9ddb;fill-opacity:1"
             inkscape:connector-curvature="0" />
          <path
             d="m 66.675271,52.871556 -0.0015,-4.891837 c 0,0 0.003,-0.172959 0.181229,-0.39375 0.171711,-0.213137 0.358271,-0.315306 0.5395,-0.433928 0.210927,-0.138903 0.364743,-0.239541 0.381495,-0.251403 v -0.0015 l 0.0011,0.0015 0.0011,-0.0015 v 0.0015 c 0.01637,0.01186 0.170569,0.1125 0.380734,0.251403 0.18161,0.118622 0.36817,0.220791 0.540261,0.433928 0.178184,0.220791 0.180087,0.39375 0.180087,0.39375 l -7.61e-4,4.891837 h 3.81e-4 l -3.81e-4,0.84375 3.81e-4,0.842602 h -3.81e-4 v 0.334822 h -2.203307 v -0.334822 h -3.81e-4 l 3.81e-4,-0.842602 -3.81e-4,-0.84375 h 3.81e-4"
             id="Fill-78"
             style="fill:#0f9ddb;fill-opacity:1"
             inkscape:connector-curvature="0" />
          <path
             d="m 62.705739,52.871556 -0.0019,-4.891837 c 0,0 0.0034,-0.172959 0.181229,-0.39375 0.171331,-0.213137 0.359032,-0.315306 0.540262,-0.433928 0.210165,-0.138903 0.363601,-0.239541 0.380734,-0.251403 v -0.0015 l 0.0011,0.0015 0.0011,-0.0015 v 0.0015 c 0.01675,0.01186 0.170188,0.1125 0.380734,0.251403 0.18161,0.118622 0.36855,0.220791 0.540642,0.433928 0.177803,0.220791 0.179707,0.39375 0.179707,0.39375 l -7.62e-4,4.891837 h 3.81e-4 l -3.81e-4,0.84375 3.81e-4,0.842602 h -3.81e-4 v 0.334822 h -2.202926 v -0.334822 h -3.81e-4 l 3.81e-4,-0.842602 -3.81e-4,-0.84375 h 3.81e-4"
             id="Fill-79"
             style="fill:#0f9ddb;fill-opacity:1"
             inkscape:connector-curvature="0" />
          <path
             d="m 65.237239,56.332653 h 5.613922 V 44.771174 h -5.613922 z m 0.978105,-10.314031 h 3.007037 v 9.066582 h -3.007037 z"
             id="Fill-80"
             style="fill:#0f9ddb;fill-opacity:1"
             inkscape:connector-curvature="0" />
          <path
             d="m 76.883509,42.70102 c 0,0.08189 -0.06549,0.147322 -0.146963,0.147322 H 70.91817 c -0.0811,0 -0.146964,-0.06543 -0.146964,-0.147322 v -3.366581 c 0,-0.08112 0.06587,-0.146939 0.146964,-0.146939 h 5.818376 c 0.08148,0 0.146963,0.06582 0.146963,0.146939 v 3.366581"
             id="Fill-81"
             style="fill:#0f9ddb;fill-opacity:1"
             inkscape:connector-curvature="0" />
          <path
             d="m 29.03439,42.70102 c 0,0.08189 -0.06587,0.147322 -0.146583,0.147322 H 23.06905 c -0.08072,0 -0.146963,-0.06543 -0.146963,-0.147322 v -3.366581 c 0,-0.08112 0.06625,-0.146939 0.146963,-0.146939 h 5.818757 c 0.08072,0 0.146583,0.06582 0.146583,0.146939 v 3.366581"
             id="Fill-82"
             style="fill:#0f9ddb;fill-opacity:1"
             inkscape:connector-curvature="0" />
          <path
             d="m 38.124413,42.694898 c 0,0.0815 -0.06549,0.147321 -0.146964,0.147321 h -8.515114 c -0.0811,0 -0.146583,-0.06582 -0.146583,-0.147321 v -3.360459 c 0,-0.08112 0.06549,-0.146939 0.146583,-0.146939 h 8.515114 c 0.08148,0 0.146964,0.06582 0.146964,0.146939 v 3.360459"
             id="Fill-83"
             style="fill:#0f9ddb;fill-opacity:1"
             inkscape:connector-curvature="0" />
          <path
             d="m 70.469665,42.694898 c 0,0.0815 -0.06511,0.147321 -0.146582,0.147321 h -8.515496 c -0.08071,0 -0.146202,-0.06582 -0.146202,-0.147321 v -3.360459 c 0,-0.08112 0.06549,-0.146939 0.146202,-0.146939 h 8.515496 c 0.08148,0 0.146582,0.06582 0.146582,0.146939 v 3.360459"
             id="Fill-84"
             style="fill:#0f9ddb;fill-opacity:1"
             inkscape:connector-curvature="0" />
          <path
             d="m 12.776289,24.013776 -0.159527,-7.97449 v -0.153061 c -0.164858,-0.156123 -1.19284,-0.276276 -2.443932,-0.277807 h -0.01218 c -1.2514727,0.0015 -2.2790736,0.121684 -2.4435507,0.277807 v 0.153061 l -0.1599082,7.97449 c 0.164477,-0.156123 1.3535092,-0.277041 2.6099309,-0.278189 1.256042,0.0011 2.444693,0.122066 2.60917,0.278189"
             id="Fill-85"
             style="fill:#0f9ddb;fill-opacity:1"
             inkscape:connector-curvature="0" />
          <path
             d="M 12.95295,39.162628 12.673491,26.469643 v -0.152679 c -0.159528,-0.151148 -1.292973,-0.26824 -2.501041,-0.276658 v -3.83e-4 h -0.01066 v 3.83e-4 c -1.2084495,0.0084 -2.3422752,0.12551 -2.5018028,0.276658 v 0.152679 L 7.3805275,39.162628 c 0.1599083,-0.151531 1.5560597,-0.269006 2.7865915,-0.277807 1.229771,0.0088 2.626303,0.126276 2.785831,0.277807"
             id="Fill-86"
             style="fill:#0f9ddb;fill-opacity:1"
             inkscape:connector-curvature="0" />
          <path
             d="m 53.254399,56.31352 h 5.610876 v -2.220535 h -5.610876 z"
             id="Fill-87"
             style="fill:#0f9ddb;fill-opacity:1"
             inkscape:connector-curvature="0" />
          <path
             id="Fill-88"
             d="m 46.194449,55.93125 h 7.407941 v 0.38227 h -7.407941 z"
             style="fill:#0f9ddb;fill-opacity:1"
             inkscape:connector-curvature="0" />
          <path
             d="M 41.796592,56.31352 V 35.550765 H 58.000248 V 56.31352 h 1.943646 V 34.422321 H 39.852945 V 56.31352 h 1.943647"
             id="Fill-89"
             style="fill:#0f9ddb;fill-opacity:1"
             inkscape:connector-curvature="0" />
          <path
             d="m 40.931945,56.31352 h 5.611257 v -2.220535 h -5.611257 z"
             id="Fill-90"
             style="fill:#0f9ddb;fill-opacity:1"
             inkscape:connector-curvature="0" />
          <path
             d="m 28.94644,56.31352 h 5.613161 V 44.771174 H 28.94644 Z m 1.628019,-10.294898 h 3.007417 v 9.066582 h -3.007417 z"
             id="Fill-91"
             style="fill:#0f9ddb;fill-opacity:1"
             inkscape:connector-curvature="0" />
          <path
             d="m 33.444812,56.31352 h 4.525784 V 44.771174 h -4.525784 z m 0.978105,-10.294898 h 3.007418 v 9.066582 h -3.007418 z"
             id="Fill-92"
             style="fill:#0f9ddb;fill-opacity:1"
             inkscape:connector-curvature="0" />
          <path
             d="m 23.372115,44.771174 h 5.195114 V 56.31352 h -5.195114 z"
             id="Fill-93"
             style="fill:#0f9ddb;fill-opacity:1"
             inkscape:connector-curvature="0" />
          <path
             d="m 13.725078,56.31352 v -1.733035 c 0,0 -0.04112,-0.449235 0.488482,-0.938648 0.431371,-0.351658 0.707784,-0.533036 0.726059,-0.544898 v -0.0019 l 0.0015,7.66e-4 7.62e-4,-7.66e-4 v 0.0019 c 0.01828,0.01186 0.295069,0.19324 0.72644,0.544898 0.529982,0.489413 0.488862,0.938648 0.488862,0.938648 v 1.733035 h 0.81934 v -1.733035 c 0,0 -0.04112,-0.449235 0.488101,-0.938648 0.431752,-0.351658 0.709307,-0.533036 0.726821,-0.544898 v -0.0019 h 3.81e-4 l 7.61e-4,7.66e-4 7.62e-4,-7.66e-4 h 7.61e-4 v 0.0019 c 0.01751,0.01186 0.294307,0.19324 0.72644,0.544898 0.529221,0.489413 0.488101,0.938648 0.488101,0.938648 v 1.733035 h 0.81972 v -1.733035 c 0,0 -0.04112,-0.449235 0.488482,-0.938648 0.431372,-0.351658 0.708165,-0.533036 0.726441,-0.544898 v -0.0019 l 0.0011,7.66e-4 7.61e-4,-7.66e-4 h 3.81e-4 v 0.0019 c 0.01789,0.01186 0.295069,0.19324 0.72606,0.544898 0.530362,0.489413 0.488481,0.938648 0.488481,0.938648 v 1.733035 h 0.73139 V 47.210204 H 13.012725 v 9.103316 z m 6.605734,-6.055102 v 0 c 0.209023,-0.260204 0.436702,-0.384183 0.657527,-0.528826 0.256234,-0.167602 0.443175,-0.291964 0.463734,-0.305357 v -0.0019 l 0.0015,0.0011 0.0015,-0.0011 v 0.0019 c 0.02018,0.01339 0.2075,0.137755 0.463734,0.305357 0.220445,0.144643 0.448505,0.268622 0.657147,0.528826 0.216638,0.268623 0.220064,0.479465 0.220064,0.479465 l -3.81e-4,0.95625 h -2.684555 v -0.95625 c 0,0 0.003,-0.210842 0.219684,-0.479465 z m -3.251468,0 v 0 c 0.209023,-0.260204 0.436702,-0.384183 0.657528,-0.528826 0.256233,-0.167602 0.443174,-0.291964 0.463734,-0.305357 v -0.0019 l 0.0015,0.0011 0.0015,-0.0011 v 0.0019 c 0.02018,0.01339 0.20712,0.137755 0.462973,0.305357 0.220825,0.144643 0.448885,0.268622 0.657147,0.528826 0.217399,0.268623 0.220064,0.479465 0.220064,0.479465 v 0.95625 h -2.684174 v -0.95625 c 0,0 0.003,-0.210842 0.219683,-0.479465 z m -3.251087,0 v 0 c 0.208642,-0.260204 0.43556,-0.384183 0.657147,-0.528826 0.255853,-0.167602 0.442413,-0.291964 0.463353,-0.305357 v -0.0019 l 0.0015,0.0011 0.0019,-0.0011 v 0.0019 c 0.0198,0.01339 0.206738,0.137755 0.462972,0.305357 0.220445,0.144643 0.448885,0.268622 0.657147,0.528826 0.217018,0.268623 0.220064,0.479465 0.220064,0.479465 v 0.95625 h -2.684174 v -0.95625 c 0,0 0.0023,-0.210842 0.220064,-0.479465 z"
             id="Fill-94"
             style="fill:#0f9ddb;fill-opacity:1"
             inkscape:connector-curvature="0" />
          <path
             d="M 13.236596,56.31352 12.967417,41.944898 v -0.152679 c -0.159908,-0.15153 -1.586899,-0.268239 -2.794967,-0.27704 v -3.83e-4 h -0.01066 v 3.83e-4 c -1.2084495,0.0088 -2.6358211,0.12551 -2.7953486,0.27704 v 0.152679 L 7.0976422,56.31352 h 6.1389538"
             id="Fill-95"
             style="fill:#0f9ddb;fill-opacity:1"
             inkscape:connector-curvature="0" />
          <path
             d="M 39.25405,33.828826 H 60.54317 V 56.31352 h 0.515894 V 33.304974 H 38.737775 V 56.31352 H 39.25405 V 33.828826"
             id="Fill-96"
             style="fill:#0f9ddb;fill-opacity:1"
             inkscape:connector-curvature="0" />
          <path
             d="m 61.826624,56.31352 h 4.525023 V 44.771174 h -4.525023 z m 0.540261,-10.294898 h 3.007037 v 9.066582 h -3.007037 z"
             id="Fill-97"
             style="fill:#0f9ddb;fill-opacity:1"
             inkscape:connector-curvature="0" />
          <path
             d="m 71.229991,44.771174 h 5.195495 V 56.31352 h -5.195495 z"
             id="Fill-98"
             style="fill:#0f9ddb;fill-opacity:1"
             inkscape:connector-curvature="0" />
          <path
             d="M 1.854555,69.90574 3.4837156,68.127934 1.7841193,66.272832 0.15533945,68.05102 1.854555,69.90574"
             id="Fill-99"
             style="fill:#0f9ddb;fill-opacity:1"
             inkscape:connector-curvature="0" />
          <path
             d="m 81.118794,69.90574 1.62916,-1.777806 -1.699596,-1.855102 -1.62878,1.778188 1.699216,1.85472"
             id="Fill-100"
             style="fill:#0f9ddb;fill-opacity:1"
             inkscape:connector-curvature="0" />
          <path
             d="m 15.446757,72.464158 c 0.0811,0.196684 0.164477,0.39375 0.254711,0.585842 0.04683,0.09949 0.101656,0.216964 0.162573,0.307653 0.07919,0.116709 0.307633,0.191327 0.432514,0.225 l 0.199885,0.05395 v 0.648214 h -4.376917 v -0.654719 l 0.207881,-0.04936 c 0.488862,-0.115561 0.626688,-0.479082 0.626688,-0.966199 0,-0.554847 -0.25395,-1.079847 -0.560821,-1.519515 -0.413858,-0.59273 -0.966303,-1.042347 -1.586138,-1.383291 -0.644582,-0.354337 -1.3382798,-0.534184 -2.0605321,-0.573597 l -0.9065275,2.609311 c -0.1165046,0.335587 -0.2577569,0.791326 -0.2577569,1.151403 0,0.179464 0.051399,0.329464 0.1800872,0.450765 0.1446789,0.136225 0.3129633,0.203954 0.5063761,0.225766 l 0.2383395,0.02717 v 0.68227 H 4.5276881 v -0.652806 l 0.2055963,-0.05051 c 0.1427752,-0.03559 0.3171514,-0.08801 0.4431743,-0.16875 0.1096514,-0.07041 0.2036927,-0.180995 0.2756514,-0.285076 0.3038257,-0.45574 0.5395,-1.056506 0.7279633,-1.573087 L 8.9072706,64.07602 c 0.047211,-0.124744 0.092138,-0.250637 0.1328762,-0.371173 0.029697,-0.09452 0.058252,-0.191709 0.076527,-0.289668 l 0.00152,-0.0073 c 0.017514,-0.08304 0.027413,-0.168367 0.027413,-0.253316 0,-0.06811 -0.013326,-0.12398 -0.061298,-0.171429 -0.065105,-0.06505 -0.1538165,-0.09681 -0.2410046,-0.111352 l -0.2250137,-0.0375 v -0.678826 h 4.2923945 v 0.655867 l -0.198743,0.05472 c -0.19722,0.05434 -0.297353,0.147322 -0.297353,0.364669 0,0.168367 0.08681,0.428189 0.141633,0.585459 l 2.890532,8.647959 z M 10.34378,64.566582 9.2000551,67.709311 c 0.5463532,0.03788 1.0797619,0.158419 1.5960369,0.362373 0.309536,0.122831 0.602321,0.27551 0.874926,0.459949 z"
             id="Fill-101"
             style="fill:#0f9ddb;fill-opacity:1"
             inkscape:connector-curvature="0" />
          <path
             d="m 24.021266,63.580485 -0.820101,-0.04324 -0.0072,-7.65e-4 c -0.04683,-0.0054 -0.0948,-0.0111 -0.142014,-0.01378 -0.05559,-0.0031 -0.112697,-0.0023 -0.168284,-0.0023 -0.56539,0 -1.127353,0.08112 -1.662665,0.274745 -0.504473,0.182143 -0.946505,0.471811 -1.326477,0.861735 -0.405482,0.415561 -0.691794,0.914923 -0.88673,1.469005 l -0.08071,0.229209 -0.641918,-0.150765 1.047399,-4.609822 0.342661,0.441582 c 0.03655,0.04745 0.102417,0.06926 0.157624,0.07959 l 0.0061,0.0015 c 0.176279,0.03712 0.399009,0.03827 0.578334,0.03827 h 7.248413 l -6.603449,10.722321 0.796876,0.04247 c 0.06853,0 0.137064,0.0023 0.205596,0.0061 0.05178,0.0031 0.10356,0.0061 0.15534,0.01148 0.694839,-0.0015 1.379018,-0.113266 2.034261,-0.35625 0.639633,-0.237245 1.214541,-0.590817 1.72206,-1.059949 0.520463,-0.481378 0.926326,-1.060715 1.231293,-1.711225 l 0.09975,-0.212755 0.654101,0.20625 -1.938317,5.071684 -0.275651,-0.498214 c -0.01828,-0.03291 -0.04721,-0.04707 -0.08224,-0.05472 l -0.0061,-0.0015 c -0.146963,-0.0375 -0.371596,-0.03635 -0.523128,-0.03635 h -7.675596 l 6.560807,-10.704336"
             id="Fill-102"
             style="fill:#0f9ddb;fill-opacity:1"
             inkscape:connector-curvature="0" />
          <path
             d="m 38.930046,72.464158 c 0.0811,0.196684 0.164477,0.39375 0.254711,0.585842 0.04645,0.09949 0.101275,0.216964 0.162573,0.307653 0.07919,0.116709 0.307633,0.191327 0.432133,0.225 l 0.200266,0.05395 v 0.648214 h -4.376917 v -0.654719 l 0.207881,-0.04936 c 0.488862,-0.115561 0.626688,-0.479082 0.626688,-0.966199 0,-0.554847 -0.25395,-1.079847 -0.560821,-1.519515 -0.413858,-0.59273 -0.966303,-1.042347 -1.586138,-1.383291 -0.644583,-0.354337 -1.33828,-0.534184 -2.060913,-0.573597 l -0.906147,2.609311 c -0.116885,0.335587 -0.257757,0.791326 -0.257757,1.151403 0,0.179464 0.0514,0.329464 0.180088,0.450765 0.144679,0.136225 0.312963,0.203954 0.506376,0.225766 l 0.238339,0.02717 v 0.68227 h -3.979431 v -0.652806 l 0.205596,-0.05051 c 0.142395,-0.03559 0.317152,-0.08801 0.443175,-0.16875 0.109651,-0.07041 0.203692,-0.180995 0.275651,-0.285076 0.303826,-0.45574 0.5395,-1.056506 0.727963,-1.573087 L 32.39056,64.07602 c 0.04721,-0.124744 0.09214,-0.250637 0.132876,-0.371173 0.02932,-0.09452 0.05787,-0.191709 0.07615,-0.289668 l 0.0015,-0.0073 c 0.01789,-0.08304 0.02741,-0.168367 0.02741,-0.253316 0,-0.06811 -0.01333,-0.12398 -0.06092,-0.171429 -0.06549,-0.06505 -0.153817,-0.09681 -0.241385,-0.111352 l -0.224633,-0.0375 v -0.678826 h 4.292394 v 0.655867 l -0.199124,0.05472 c -0.196839,0.05434 -0.297353,0.147322 -0.297353,0.364669 0,0.168367 0.08719,0.428189 0.142014,0.585459 l 2.890532,8.647959 z m -5.102977,-7.897576 -1.144106,3.142729 c 0.546734,0.03788 1.079762,0.158419 1.596418,0.362373 0.309536,0.122831 0.602321,0.27551 0.874926,0.459949 z"
             id="Fill-103"
             style="fill:#0f9ddb;fill-opacity:1"
             inkscape:connector-curvature="0" />
          <path
             d="M 48.406894,71.209439 43.56967,64.43074 v 7.275 c 0,0.447704 0.02284,1.006377 0.15077,1.431505 0.09404,0.311479 0.348753,0.407908 0.607652,0.437755 l 0.21283,0.02487 v 0.684949 H 40.657817 V 73.61135 l 0.202169,-0.03482 c 0.234532,-0.0398 0.524652,-0.13699 0.621358,-0.422832 0.128307,-0.379592 0.147725,-0.923342 0.147725,-1.327806 v -7.082526 c 0,-0.332525 -0.0061,-0.685714 -0.04759,-1.014796 -0.02665,-0.21352 -0.09442,-0.407525 -0.209023,-0.575892 -0.121073,-0.176786 -0.327812,-0.249873 -0.511326,-0.280103 l -0.203311,-0.03367 v -0.683418 h 4.896619 v 0.703699 l -0.698647,0.0046 3.784876,5.379719 v -3.503189 c 0,-0.440051 -0.01904,-1.025127 -0.151913,-1.441454 -0.09747,-0.306888 -0.380734,-0.396046 -0.63316,-0.424745 L 47.642381,62.85 v -0.694515 h 3.910137 v 0.685331 l -0.204834,0.03214 c -0.241767,0.03788 -0.521225,0.134694 -0.617551,0.428572 -0.126404,0.384566 -0.148486,0.904591 -0.148486,1.312882 v 7.091327 c 0,0.438138 0.02208,0.987245 0.152293,1.402041 0.09747,0.311097 0.357129,0.423979 0.61717,0.469132 l 0.201408,0.03482 v 0.673086 h -3.910137 v -0.682653 l 0.210546,-0.02679 c 0.181229,-0.02296 0.393298,-0.08495 0.521605,-0.249108 0.116885,-0.149617 0.232629,-0.321045 0.261945,-0.521556 l 7.62e-4,-0.740051 c 0,-0.340561 -0.08033,-0.686097 -0.230345,-0.855229"
             id="Fill-104"
             style="fill:#0f9ddb;fill-opacity:1"
             inkscape:connector-curvature="0" />
          <path
             d="m 52.375284,73.33699 c 0,-0.252551 0.083,-0.480612 0.265372,-0.666965 0.185417,-0.189413 0.421853,-0.279719 0.694459,-0.279719 0.262706,0 0.486958,0.09643 0.657146,0.284694 0.162574,0.18023 0.245193,0.393367 0.245193,0.629464 0,0.248342 -0.08947,0.469133 -0.261183,0.657781 -0.177042,0.19324 -0.403198,0.3 -0.675422,0.3 -0.263468,0 -0.486198,-0.103316 -0.661716,-0.286607 -0.172472,-0.180613 -0.263849,-0.395281 -0.263849,-0.638648"
             id="Fill-105"
             style="fill:#0f9ddb;fill-opacity:1"
             inkscape:connector-curvature="0" />
          <path
             d="m 58.44761,66.179082 1.017702,-0.846429 c 0.314867,-0.262117 0.623261,-0.532653 0.926326,-0.809694 0.314486,-0.287755 0.617169,-0.591581 0.895867,-0.917219 0.09823,-0.114796 0.346848,-0.42398 0.346848,-0.588903 0,-0.01799 -0.0019,-0.06276 -0.0095,-0.08418 -0.05597,-0.03329 -0.153817,-0.05166 -0.211688,-0.05969 l -0.232629,-0.03138 V 62.15549 h 4.604977 v 0.706377 l -0.253949,0.01301 c -0.361317,0.01875 -0.708165,0.10523 -1.039404,0.255613 -0.308775,0.140433 -0.612601,0.309566 -0.884445,0.517347 -0.369312,0.282398 -0.729105,0.58278 -1.081665,0.886989 l -1.033312,0.892347 c 0.48734,0.49898 0.942317,1.03125 1.352748,1.600255 0.458404,0.635205 0.869215,1.305613 1.230913,2.005103 0.374642,0.723979 0.704357,1.472831 0.995619,2.23278 l 0.322101,0.808546 0.0011,0.0027 c 0.105083,0.279336 0.213973,0.566709 0.338853,0.837244 0.07653,0.166072 0.18656,0.315307 0.311821,0.445409 l 0.003,0.0034 c 0.115743,0.124362 0.254331,0.192091 0.418808,0.213137 l 0.234151,0.03061 V 74.2848 h -4.258509 v -0.66926 l 0.223871,-0.03788 c 0.247097,-0.04248 0.370835,-0.144261 0.370835,-0.412118 0,-0.490944 -0.198362,-1.087117 -0.372357,-1.537882 -0.237578,-0.615307 -0.509423,-1.219898 -0.829239,-1.793495 -0.581381,-1.043495 -1.305156,-2.017347 -2.076904,-2.919261 l -1.312009,1.084822 v 3.705995 c 0,0.447704 0.02551,1.006377 0.170569,1.431505 0.106225,0.311479 0.394821,0.407908 0.687986,0.437755 l 0.241005,0.02487 V 74.2848 h -4.593936 v -0.67079 l 0.225775,-0.03673 c 0.204454,-0.03329 0.448124,-0.106378 0.588615,-0.276276 0.1245,-0.15 0.201789,-0.322959 0.231867,-0.518877 0.04721,-0.308418 0.0533,-0.644388 0.0533,-0.95625 v -7.082526 c 0,-0.436989 -0.02399,-0.996811 -0.169808,-1.411224 -0.10889,-0.308419 -0.412335,-0.415944 -0.700931,-0.459567 l -0.228821,-0.03482 v -0.68227 h 4.593936 v 0.696811 l -0.244051,0.02219 c -0.268417,0.02411 -0.579858,0.102933 -0.687224,0.391836 -0.14506,0.390307 -0.168285,0.934057 -0.168285,1.348087 v 1.564669"
             id="Fill-106"
             style="fill:#0f9ddb;fill-opacity:1"
             inkscape:connector-curvature="0" />
          <path
             d="m 74.435771,63.580485 -0.820101,-0.04324 -0.0072,-7.65e-4 c -0.04721,-0.0054 -0.0948,-0.0111 -0.142395,-0.01378 -0.05559,-0.0031 -0.112316,-0.0023 -0.167903,-0.0023 -0.565771,0 -1.127354,0.08112 -1.663046,0.274745 -0.504473,0.182143 -0.946505,0.471811 -1.326477,0.861735 -0.405482,0.415561 -0.691794,0.914923 -0.88673,1.469005 l -0.08071,0.229209 -0.641918,-0.150765 1.047399,-4.609822 0.342661,0.441582 c 0.03693,0.04745 0.102417,0.06926 0.158004,0.07959 l 0.0061,0.0015 c 0.175899,0.03712 0.398629,0.03827 0.577954,0.03827 h 7.248794 l -6.60383,10.722321 0.796876,0.04247 c 0.06853,0 0.137064,0.0023 0.205596,0.0061 0.05178,0.0031 0.10356,0.0061 0.15534,0.01148 0.69522,-0.0015 1.379018,-0.113266 2.034642,-0.35625 0.639633,-0.237245 1.214541,-0.590817 1.721679,-1.059949 0.520844,-0.481378 0.926325,-1.060715 1.231674,-1.711225 l 0.09975,-0.212755 0.653721,0.20625 -1.937936,5.071684 -0.276032,-0.498214 c -0.01789,-0.03291 -0.04721,-0.04707 -0.08224,-0.05472 l -0.0061,-0.0015 c -0.146963,-0.0375 -0.371596,-0.03635 -0.522747,-0.03635 h -7.675977 l 6.561188,-10.704336"
             id="Fill-107"
             style="fill:#0f9ddb;fill-opacity:1"
             inkscape:connector-curvature="0" />
        </g>
      </g>
    </g>
  </g>
</svg>
